%TF.GenerationSoftware,Altium Limited,Altium Designer,23.5.1 (21)*%
G04 Layer_Color=8421504*
%FSLAX45Y45*%
%MOMM*%
%TF.SameCoordinates,0CF0D061-263B-42B0-A585-B6EE71A6EBF9*%
%TF.FilePolarity,Positive*%
%TF.FileFunction,Paste,Top*%
%TF.Part,Single*%
G01*
G75*
%TA.AperFunction,SMDPad,CuDef*%
%ADD10R,0.75000X0.60000*%
%ADD11R,1.00000X0.90000*%
%ADD12R,0.60000X0.75000*%
%TA.AperFunction,SMDPad,SMDef*%
%ADD13R,0.65000X1.45000*%
%ADD14R,0.70000X0.27000*%
%TA.AperFunction,SMDPad,CuDef*%
%ADD15R,0.60000X0.64000*%
%ADD16R,0.64000X0.60000*%
%TA.AperFunction,BGAPad,CuDef*%
%ADD17R,0.40000X0.40000*%
%TA.AperFunction,SMDPad,CuDef*%
%ADD18R,1.40000X0.75000*%
G04:AMPARAMS|DCode=19|XSize=0.96535mm|YSize=0.29247mm|CornerRadius=0.14624mm|HoleSize=0mm|Usage=FLASHONLY|Rotation=180.000|XOffset=0mm|YOffset=0mm|HoleType=Round|Shape=RoundedRectangle|*
%AMROUNDEDRECTD19*
21,1,0.96535,0.00000,0,0,180.0*
21,1,0.67288,0.29247,0,0,180.0*
1,1,0.29247,-0.33644,0.00000*
1,1,0.29247,0.33644,0.00000*
1,1,0.29247,0.33644,0.00000*
1,1,0.29247,-0.33644,0.00000*
%
%ADD19ROUNDEDRECTD19*%
%ADD20R,0.96535X0.29247*%
%ADD21R,0.65000X1.60000*%
%ADD22R,0.90000X1.00000*%
%ADD23R,0.60000X2.40000*%
%ADD24R,2.40000X0.60000*%
%ADD25R,0.75000X2.40000*%
D10*
X2914300Y3111500D02*
D03*
X3029300D02*
D03*
Y2984500D02*
D03*
X2914300D02*
D03*
X3295300Y3073400D02*
D03*
X3410300D02*
D03*
X7060500Y5270500D02*
D03*
X7175500D02*
D03*
X7118000Y5397500D02*
D03*
X7233000D02*
D03*
D11*
X3556000Y3386200D02*
D03*
Y3251200D02*
D03*
D12*
X6654800Y2807400D02*
D03*
Y2692400D02*
D03*
Y2962560D02*
D03*
Y3077560D02*
D03*
X6934200Y2806700D02*
D03*
Y2691700D02*
D03*
Y2960020D02*
D03*
Y3075020D02*
D03*
X7213600Y2807400D02*
D03*
Y2692400D02*
D03*
Y2961640D02*
D03*
Y3076640D02*
D03*
D13*
X5194300Y4876800D02*
D03*
D14*
X5283300Y4941800D02*
D03*
Y4876800D02*
D03*
Y4811800D02*
D03*
X5105300D02*
D03*
Y4876800D02*
D03*
Y4941800D02*
D03*
D15*
X5150300Y4686300D02*
D03*
X5238300D02*
D03*
D16*
X4927600Y4431400D02*
D03*
Y4343400D02*
D03*
Y4216400D02*
D03*
Y4128400D02*
D03*
D17*
X5327000Y4387200D02*
D03*
Y4307200D02*
D03*
Y4227200D02*
D03*
Y4147200D02*
D03*
X5087000D02*
D03*
Y4227200D02*
D03*
Y4307200D02*
D03*
Y4387200D02*
D03*
D18*
X6096000Y4182000D02*
D03*
Y4327000D02*
D03*
D19*
X3198584Y3412655D02*
D03*
Y3477655D02*
D03*
Y3542655D02*
D03*
X3389296D02*
D03*
Y3477655D02*
D03*
D20*
Y3412655D02*
D03*
D21*
X3221800Y3746500D02*
D03*
X3356800D02*
D03*
D22*
Y3251200D02*
D03*
X3221800D02*
D03*
D23*
X7753900Y3892700D02*
D03*
X7653900D02*
D03*
X7553900D02*
D03*
X7453900D02*
D03*
X7353900D02*
D03*
X7253900D02*
D03*
X7153900D02*
D03*
X7053900D02*
D03*
X6953900D02*
D03*
X6853900D02*
D03*
X6753900D02*
D03*
X6653900D02*
D03*
X6553900D02*
D03*
X6453900D02*
D03*
Y5022700D02*
D03*
X6553900D02*
D03*
X6653900D02*
D03*
X6753900D02*
D03*
X6853900D02*
D03*
X6953900D02*
D03*
X7053900D02*
D03*
X7153900D02*
D03*
X7253900D02*
D03*
X7353900D02*
D03*
X7453900D02*
D03*
X7553900D02*
D03*
X7653900D02*
D03*
X7753900D02*
D03*
D24*
X6403900Y4107700D02*
D03*
Y4207700D02*
D03*
Y4307700D02*
D03*
Y4407700D02*
D03*
Y4507700D02*
D03*
Y4607700D02*
D03*
Y4707700D02*
D03*
Y4807700D02*
D03*
D25*
X2870200Y5710500D02*
D03*
X2997200D02*
D03*
X3124200D02*
D03*
X3251200D02*
D03*
X3378200D02*
D03*
X2870200Y6100500D02*
D03*
X2997200D02*
D03*
X3124200D02*
D03*
X3251200D02*
D03*
X3378200D02*
D03*
%TF.MD5,fcec6cbc9adbfc818a83efa4fd88a31d*%
M02*
