%TF.GenerationSoftware,Altium Limited,Altium Designer,23.5.1 (21)*%
G04 Layer_Color=65535*
%FSLAX45Y45*%
%MOMM*%
%TF.SameCoordinates,0CF0D061-263B-42B0-A585-B6EE71A6EBF9*%
%TF.FilePolarity,Positive*%
%TF.FileFunction,Legend,Top*%
%TF.Part,Single*%
G01*
G75*
%TA.AperFunction,NonConductor*%
%ADD35C,0.50800*%
%ADD36C,0.25000*%
%ADD37C,0.20000*%
%ADD38C,0.12700*%
%ADD39C,0.15240*%
D35*
X2885440Y2513330D02*
G03*
X2885440Y2513330I-38100J0D01*
G01*
D36*
X5024300Y4942800D02*
G03*
X5024300Y4942800I-12500J0D01*
G01*
X3454200Y3352800D02*
G03*
X3454200Y3352800I-12500J0D01*
G01*
X3529200Y5980500D02*
G03*
X3529200Y5980500I-12500J0D01*
G01*
D37*
X5421500Y4387200D02*
G03*
X5421500Y4387200I-10000J0D01*
G01*
X5091800Y4751800D02*
X5296800D01*
X5091800Y5001800D02*
X5296800D01*
X3193940Y3377655D02*
X3393940D01*
X3193940Y3577655D02*
X3393940D01*
X3456700Y5728000D02*
Y6083000D01*
X2791700D02*
X2795200D01*
X3453200D02*
X3456700D01*
X2791700Y5728000D02*
Y6083000D01*
Y5728000D02*
X2795200D01*
X3453200D02*
X3456700D01*
D38*
X5057000Y4439200D02*
X5357000D01*
X5057000Y4095200D02*
X5357000D01*
D39*
X6311200Y3800000D02*
X6390626D01*
X6311200Y4870974D02*
Y5115400D01*
X7817174D02*
X7836600D01*
X6311200D02*
X6390626D01*
X6311200Y3800000D02*
Y4044426D01*
X7817174Y3800000D02*
X7836600D01*
Y5115400D01*
%TF.MD5,22bdf6d062245a4fa4c07e60a8dab2cd*%
M02*
