M48
;Layer_Color=9474304
;FILE_FORMAT=4:4
METRIC,LZ
;TYPE=PLATED
T1F00S00C0.2000
T2F00S00C1.0160
;TYPE=NON_PLATED
T3F00S00C3.4544
%
T01
X0028575Y0028575
X003175
X0031242Y0029845
X00319786Y0030734
X0034925Y0028575
X00381
X00365125Y003175
X00367063Y00338057
X00367776Y0034483
X00369062Y0035052
X00374904Y00348234
X00374126Y00342544
X00373414Y00335771
X00380238Y00338582
X00380492Y0034417
X00365125Y00381
X00328422Y0035941
X00301625Y00381
X00396875
X00428625
X00460375
X0047625Y0034925
X004445
X0041275
X00428625Y003175
X00460375
X0047625Y0028575
X00508
X0053975
X005715
X0060325
X00635
X00650875Y003175
X0066548Y00317246
X00682625Y003175
X0069342Y00317754
X00714375Y003175
X0072136
X00746125
X00777875
X00762Y0034925
X0076708Y0037211
X0077851
X0075565
X007366
X0072539Y0037233
X0071539Y0037249
X0070539Y0037265
X0069539Y0037281
X006985Y0034925
X0073025
Y0028575
X00762
X00619125Y003175
X00587375
X0060325Y0034925
X00635
X0065532Y0036195
X00619125Y00381
X00587375
X00555625
X00523875
X005715Y0034925
X004445Y0028575
X0041275
X00396875Y003175
X0041275Y0041275
X004445
X0047625
X00483362Y0042164
X00483706Y0044314
X00460375Y004445
X0047625Y0047625
X004445
X0041275
X00428625Y00508
X00460375
X00492125
X00504444Y00500266
X00498348Y00488442
X00523875Y00508
X0053833Y0049418
X0053975Y0047625
X005715
X0060325
X0061778Y0048077
X006223Y0047117
X00619125Y004445
X00587375
X00555625
X00540576Y0043072
X0053994Y0042272
X0053975Y0041275
X00526226Y0041472
X00523875Y004445
X0051503Y00459912
X0047625Y0053975
X004445
X0041275
X00428625Y005715
X00460375
X00396875
Y00508
Y004445
X00587375Y00508
X0060325Y0053975
X005715
X00587375Y005715
X00619125
X00635Y0060325
X0066675
X006985
X0073025
X00762
X00777875Y005715
X00746125
X00714375
X007118Y0054924
X006985Y0053975
X0069539Y0052
X0068539Y0051984
X0065539Y0051936
X0066675Y0047625
X006985
X0070539Y0048568
X0073152Y0048641
Y0047752
Y0046863
Y0045974
Y0045085
Y0044196
Y004318
X00731422Y0042292
X0073152Y0041402
Y0040386
X006985Y0041275
X0066675
X0062413Y0041077
X00682625Y004445
X00714375
X0072539Y0051996
X0073539Y0052841
X00762Y0053975
X0077597Y0051943
X00682625Y005715
X00372872Y0057785
X00381Y0053975
X0034925
X003175Y0055245
X00308102
X0028702Y0055118
X0028575Y0053975
X00301625Y00508
X00333375
X0034925Y0047625
X00381
X00365125Y004445
X00333375
X00301625
X003175Y0047625
X0028575
Y0041275
X003175
X0034925
X00381
X00349413Y00600801
X0031877Y00595677
X00315334Y00591042
T02
X00284734Y0032893
Y0045593
T03
X0052197Y0032893
Y0056388
M30
