M48
;Layer_Color=9474304
;FILE_FORMAT=4:4
METRIC,LZ
;TYPE=PLATED
T1F00S00C0.0254
T2F00S00C0.2000
T3F00S00C0.6604
T4F00S00C1.0160
;TYPE=NON_PLATED
T6F00S00C3.4544
%
T01
X00383576Y00282524
Y00324324
X00469976
X00469976Y00282524
T02
X003175Y0028575
X0034925
X00326136Y00325338
X00325628Y00331216
X0030926Y00360013
X00293878Y0037338
X00301625Y00386869
X00329617Y00389198
X00340031Y00393008
X00352985Y00393516
X00359589Y0039123
X00368987Y00389706
X00370257Y00368116
Y00361766
Y00355162
X00370765Y00348812
X00363907Y0035186
X00363653Y00358972
X00358065Y00355162
X00358573Y0034805
X00356588Y00375228
X00396875Y00381
X00428625
X00426974Y0035687
X0047625Y0034925
X00460375Y00381
X00523875
X00555625
X00587375
X00619125
X00635Y0034925
X0065405Y00338328
X00650875Y003175
X0066548Y00317246
X00682625Y003175
X0069342Y00317754
X00714375Y003175
X0072136
X00746125
X00777875
X00762Y0034925
X0076708Y0037211
X0077851
X0075565
X007366
X0072539Y0037233
X0071539Y0037249
X0070539Y0037265
X0069539Y0037281
X006985Y0034925
X00684022Y00335788
X00666893Y00367649
X00653796Y00362712
X0060325Y0034925
X005715
X00587375Y003175
X00619125
X00635Y0028575
X0060325
X005715
X0053975
X00508
X0073025
X00762
X0073025Y0034925
X0073152Y0040386
Y0041402
X00731422Y0042292
X0073152Y004318
Y0044196
Y0045085
Y0045974
Y0046863
Y0047752
Y0048641
X00705358Y00486719
X006985Y0047625
X0066675
X00682625Y004445
X00714375
X006985Y0041275
X0066675
X0062413Y0041077
X00619125Y004445
X006223Y0047117
X0061778Y0048077
X0060325Y0047625
X005715
X0053975
X0053833Y0049418
X00523875Y00508
X00504444Y00500266
X00498348Y00488442
X00492125Y00508
X00460375
X00428625
X00396875
X0041275Y0053975
X004445
X0047625
X00460375Y005715
X00428625
X00396875
X0041275Y0047625
X004445
X0047625
X00483706Y0044314
X00483362Y0042164
X0047625Y0041275
X004445
X0041275
X00396875Y004445
X00460375
X00523875
X0051503Y00459912
X00540576Y0043072
X0053994Y0042272
X0053975Y0041275
X00526226Y0041472
X00555625Y004445
X00587375
Y00508
X0060325Y0053975
X005715
X00587375Y005715
X00619125
X00635Y0060325
X0066675
X006985
X0073025
X00762
X00777875Y005715
X00746125
X00714375
X007118Y0054924
X006985Y0053975
X0069539Y0052
X0068539Y0051984
X0065539Y0051936
X0072539Y0051996
X0073539Y0052841
X00753872Y0052451
X00765556Y00520192
X0077597Y0051943
X00762Y0053975
X00682625Y005715
X00372872Y0057785
X00381Y0053975
X0034925
X003175Y0055245
X00308102
X0028702Y0055118
X0028575Y0053975
X00301625Y00508
X00333375
X0034925Y0047625
X00381
X00365125Y004445
X00333375
X00301625
X003175Y0047625
X0028575
Y0041275
X003175
X00320473Y00397072
X00345111Y00398342
X0034925Y0041275
X00381
X00349413Y00600801
X0031877Y00595677
X00315334Y00591042
T03
X00397876Y00319024
X00455676
T04
X00284734Y00328676
Y00455676
T06
X0052197Y00328676
Y00563626
M30
