%TF.GenerationSoftware,Altium Limited,Altium Designer,23.6.0 (18)*%
G04 Layer_Physical_Order=3*
G04 Layer_Color=8323857*
%FSLAX45Y45*%
%MOMM*%
%TF.SameCoordinates,DCE0C1D5-9975-4D98-BEBD-45AE40CD8FD9*%
%TF.FilePolarity,Positive*%
%TF.FileFunction,Copper,L3,Inr,Signal*%
%TF.Part,Single*%
G01*
G75*
%TA.AperFunction,ComponentPad*%
%ADD37C,1.52400*%
%TA.AperFunction,ViaPad*%
%ADD42C,0.45000*%
%TA.AperFunction,NonConductor*%
%ADD43C,0.60960*%
G36*
X7327900Y6073474D02*
X7315200Y6065340D01*
X7309502Y6067700D01*
X7295498D01*
X7282561Y6062341D01*
X7272659Y6052439D01*
X7267300Y6039502D01*
Y6025498D01*
X7272659Y6012561D01*
X7282561Y6002659D01*
X7295498Y5997300D01*
X7309502D01*
X7315200Y5999660D01*
X7327900Y5991526D01*
Y5307880D01*
X7324059Y5304039D01*
X7318700Y5291102D01*
Y5277098D01*
X7324059Y5264161D01*
X7327900Y5260320D01*
Y4914900D01*
Y4903107D01*
X7322202Y4899300D01*
X7308198D01*
X7295261Y4893941D01*
X7285359Y4884039D01*
X7280000Y4871102D01*
Y4857098D01*
X7285359Y4844161D01*
X7295261Y4834259D01*
X7308198Y4828900D01*
X7322202D01*
X7326657Y4825923D01*
Y4821255D01*
X7315190Y4810400D01*
X7308198D01*
X7295261Y4805041D01*
X7285359Y4795139D01*
X7280000Y4782202D01*
Y4768198D01*
X7285359Y4755261D01*
X7295261Y4745359D01*
X7308198Y4740000D01*
X7322202D01*
X7326657Y4737023D01*
Y4732355D01*
X7315190Y4721500D01*
X7308198D01*
X7295261Y4716141D01*
X7285359Y4706239D01*
X7280000Y4693302D01*
Y4679298D01*
X7285359Y4666361D01*
X7295261Y4656459D01*
X7308198Y4651100D01*
X7322202D01*
X7326657Y4648123D01*
Y4643455D01*
X7315190Y4632600D01*
X7308198D01*
X7295261Y4627241D01*
X7285359Y4617339D01*
X7280000Y4604402D01*
Y4590398D01*
X7285359Y4577461D01*
X7295261Y4567559D01*
X7308198Y4562200D01*
X7322202D01*
X7326657Y4559223D01*
Y4554555D01*
X7315190Y4543700D01*
X7308198D01*
X7295261Y4538341D01*
X7285359Y4528439D01*
X7280000Y4515502D01*
Y4501498D01*
X7285359Y4488561D01*
X7295261Y4478659D01*
X7308198Y4473300D01*
X7322202D01*
X7326657Y4470323D01*
Y4465655D01*
X7315190Y4454800D01*
X7308198D01*
X7295261Y4449441D01*
X7285359Y4439539D01*
X7280000Y4426602D01*
Y4412598D01*
X7285359Y4399661D01*
X7295261Y4389759D01*
X7308198Y4384400D01*
X7322202D01*
X7327900Y4380593D01*
Y4357007D01*
X7322202Y4353200D01*
X7308198D01*
X7295261Y4347841D01*
X7285359Y4337939D01*
X7280000Y4325002D01*
Y4310998D01*
X7285359Y4298061D01*
X7295261Y4288159D01*
X7308198Y4282800D01*
X7322202D01*
X7325792Y4280401D01*
Y4275204D01*
X7314356Y4264396D01*
X7307219D01*
X7294282Y4259037D01*
X7284380Y4249135D01*
X7279021Y4236198D01*
Y4222194D01*
X7284380Y4209257D01*
X7294282Y4199355D01*
X7307219Y4193996D01*
X7321223D01*
X7326013Y4190795D01*
Y4186521D01*
X7314368Y4175400D01*
X7308198D01*
X7295261Y4170041D01*
X7285359Y4160139D01*
X7280000Y4147202D01*
Y4133198D01*
X7285359Y4120261D01*
X7295261Y4110359D01*
X7308198Y4105000D01*
X7322202D01*
X7327900Y4101193D01*
Y4077607D01*
X7322202Y4073800D01*
X7308198D01*
X7295261Y4068441D01*
X7285359Y4058539D01*
X7280000Y4045602D01*
Y4031598D01*
X7285359Y4018661D01*
X7295261Y4008759D01*
X7308198Y4003400D01*
X7322202D01*
X7327900Y3999593D01*
Y3533474D01*
X7315200Y3525340D01*
X7309502Y3527700D01*
X7295498D01*
X7282561Y3522341D01*
X7272659Y3512439D01*
X7267300Y3499502D01*
Y3485498D01*
X7272659Y3472561D01*
X7282561Y3462659D01*
X7295498Y3457300D01*
X7309502D01*
X7315200Y3459660D01*
X7327900Y3451526D01*
Y2898474D01*
X7315200Y2890340D01*
X7309502Y2892700D01*
X7295498D01*
X7282561Y2887341D01*
X7272659Y2877439D01*
X7267300Y2864502D01*
Y2850498D01*
X7272659Y2837561D01*
X7282561Y2827659D01*
X7295498Y2822300D01*
X7309502D01*
X7315200Y2824660D01*
X7327900Y2816526D01*
Y2560391D01*
X2687391D01*
Y6355009D01*
X7327900D01*
Y6073474D01*
D02*
G37*
%LPC*%
G36*
X6992002Y6067700D02*
X6977998D01*
X6965061Y6062341D01*
X6955159Y6052439D01*
X6949800Y6039502D01*
Y6025498D01*
X6955159Y6012561D01*
X6965061Y6002659D01*
X6977998Y5997300D01*
X6992002D01*
X7004939Y6002659D01*
X7014841Y6012561D01*
X7020200Y6025498D01*
Y6039502D01*
X7014841Y6052439D01*
X7004939Y6062341D01*
X6992002Y6067700D01*
D02*
G37*
G36*
X6674502D02*
X6660498D01*
X6647561Y6062341D01*
X6637659Y6052439D01*
X6632300Y6039502D01*
Y6025498D01*
X6637659Y6012561D01*
X6647561Y6002659D01*
X6660498Y5997300D01*
X6674502D01*
X6687439Y6002659D01*
X6697341Y6012561D01*
X6702700Y6025498D01*
Y6039502D01*
X6697341Y6052439D01*
X6687439Y6062341D01*
X6674502Y6067700D01*
D02*
G37*
G36*
X6357002D02*
X6342998D01*
X6330061Y6062341D01*
X6320159Y6052439D01*
X6314800Y6039502D01*
Y6025498D01*
X6320159Y6012561D01*
X6330061Y6002659D01*
X6342998Y5997300D01*
X6357002D01*
X6369939Y6002659D01*
X6379841Y6012561D01*
X6385200Y6025498D01*
Y6039502D01*
X6379841Y6052439D01*
X6369939Y6062341D01*
X6357002Y6067700D01*
D02*
G37*
G36*
X3501132Y6043210D02*
X3487128D01*
X3474191Y6037851D01*
X3464289Y6027949D01*
X3458930Y6015012D01*
Y6001008D01*
X3464289Y5988071D01*
X3474191Y5978169D01*
X3487128Y5972810D01*
X3501132D01*
X3514069Y5978169D01*
X3523971Y5988071D01*
X3529330Y6001008D01*
Y6015012D01*
X3523971Y6027949D01*
X3514069Y6037851D01*
X3501132Y6043210D01*
D02*
G37*
G36*
X3194702Y5991971D02*
X3180698D01*
X3167761Y5986612D01*
X3157859Y5976710D01*
X3152500Y5963773D01*
Y5949770D01*
X3149728Y5945621D01*
X3146334D01*
X3133397Y5940262D01*
X3123495Y5930360D01*
X3118136Y5917423D01*
Y5903419D01*
X3123495Y5890482D01*
X3133397Y5880580D01*
X3146334Y5875221D01*
X3160337D01*
X3173275Y5880580D01*
X3183177Y5890482D01*
X3188535Y5903419D01*
Y5917422D01*
X3191308Y5921572D01*
X3194702D01*
X3207639Y5926930D01*
X3217541Y5936832D01*
X3222900Y5949770D01*
Y5963773D01*
X3217541Y5976710D01*
X3207639Y5986612D01*
X3194702Y5991971D01*
D02*
G37*
G36*
X3735722Y5813700D02*
X3721718D01*
X3708781Y5808341D01*
X3698879Y5798439D01*
X3693520Y5785502D01*
Y5771498D01*
X3698879Y5758561D01*
X3708781Y5748659D01*
X3721718Y5743300D01*
X3735722D01*
X3748659Y5748659D01*
X3758561Y5758561D01*
X3763920Y5771498D01*
Y5785502D01*
X3758561Y5798439D01*
X3748659Y5808341D01*
X3735722Y5813700D01*
D02*
G37*
G36*
X7150752Y5750200D02*
X7136748D01*
X7123811Y5744841D01*
X7113909Y5734939D01*
X7108550Y5722002D01*
Y5707998D01*
X7113909Y5695061D01*
X7123811Y5685159D01*
X7136748Y5679800D01*
X7150752D01*
X7163689Y5685159D01*
X7173591Y5695061D01*
X7178950Y5707998D01*
Y5722002D01*
X7173591Y5734939D01*
X7163689Y5744841D01*
X7150752Y5750200D01*
D02*
G37*
G36*
X6833252D02*
X6819248D01*
X6806311Y5744841D01*
X6796409Y5734939D01*
X6791050Y5722002D01*
Y5707998D01*
X6796409Y5695061D01*
X6806311Y5685159D01*
X6819248Y5679800D01*
X6833252D01*
X6846189Y5685159D01*
X6856091Y5695061D01*
X6861450Y5707998D01*
Y5722002D01*
X6856091Y5734939D01*
X6846189Y5744841D01*
X6833252Y5750200D01*
D02*
G37*
G36*
X6198252D02*
X6184248D01*
X6171311Y5744841D01*
X6161409Y5734939D01*
X6156050Y5722002D01*
Y5707998D01*
X6161409Y5695061D01*
X6171311Y5685159D01*
X6184248Y5679800D01*
X6198252D01*
X6211189Y5685159D01*
X6221091Y5695061D01*
X6226450Y5707998D01*
Y5722002D01*
X6221091Y5734939D01*
X6211189Y5744841D01*
X6198252Y5750200D01*
D02*
G37*
G36*
X5880752D02*
X5866748D01*
X5853811Y5744841D01*
X5843909Y5734939D01*
X5838550Y5722002D01*
Y5707998D01*
X5843909Y5695061D01*
X5853811Y5685159D01*
X5866748Y5679800D01*
X5880752D01*
X5893689Y5685159D01*
X5903591Y5695061D01*
X5908950Y5707998D01*
Y5722002D01*
X5903591Y5734939D01*
X5893689Y5744841D01*
X5880752Y5750200D01*
D02*
G37*
G36*
X4610752D02*
X4596748D01*
X4583811Y5744841D01*
X4573909Y5734939D01*
X4568550Y5722002D01*
Y5707998D01*
X4573909Y5695061D01*
X4583811Y5685159D01*
X4596748Y5679800D01*
X4610752D01*
X4623689Y5685159D01*
X4633591Y5695061D01*
X4638950Y5707998D01*
Y5722002D01*
X4633591Y5734939D01*
X4623689Y5744841D01*
X4610752Y5750200D01*
D02*
G37*
G36*
X4293252D02*
X4279248D01*
X4266311Y5744841D01*
X4256409Y5734939D01*
X4251050Y5722002D01*
Y5707998D01*
X4256409Y5695061D01*
X4266311Y5685159D01*
X4279248Y5679800D01*
X4293252D01*
X4306189Y5685159D01*
X4316091Y5695061D01*
X4321450Y5707998D01*
Y5722002D01*
X4316091Y5734939D01*
X4306189Y5744841D01*
X4293252Y5750200D01*
D02*
G37*
G36*
X3975752D02*
X3961748D01*
X3948811Y5744841D01*
X3938909Y5734939D01*
X3933550Y5722002D01*
Y5707998D01*
X3938909Y5695061D01*
X3948811Y5685159D01*
X3961748Y5679800D01*
X3975752D01*
X3988689Y5685159D01*
X3998591Y5695061D01*
X4003950Y5707998D01*
Y5722002D01*
X3998591Y5734939D01*
X3988689Y5744841D01*
X3975752Y5750200D01*
D02*
G37*
G36*
X3182002Y5559700D02*
X3167998D01*
X3155061Y5554341D01*
X3145159Y5544439D01*
X3139800Y5531502D01*
Y5517498D01*
X3145159Y5504561D01*
X3155061Y5494659D01*
X3167998Y5489300D01*
X3182002D01*
X3194939Y5494659D01*
X3204841Y5504561D01*
X3210200Y5517498D01*
Y5531502D01*
X3204841Y5544439D01*
X3194939Y5554341D01*
X3182002Y5559700D01*
D02*
G37*
G36*
X3088022D02*
X3074018D01*
X3061081Y5554341D01*
X3051179Y5544439D01*
X3045820Y5531502D01*
Y5517498D01*
X3051179Y5504561D01*
X3061081Y5494659D01*
X3074018Y5489300D01*
X3088022D01*
X3100959Y5494659D01*
X3110861Y5504561D01*
X3116220Y5517498D01*
Y5531502D01*
X3110861Y5544439D01*
X3100959Y5554341D01*
X3088022Y5559700D01*
D02*
G37*
G36*
X5239174Y5833980D02*
X5200226D01*
X5162027Y5826382D01*
X5126045Y5811477D01*
X5093661Y5789839D01*
X5066121Y5762299D01*
X5044483Y5729915D01*
X5029578Y5693933D01*
X5021980Y5655734D01*
Y5616786D01*
X5029578Y5578587D01*
X5044483Y5542605D01*
X5066121Y5510221D01*
X5093661Y5482681D01*
X5126045Y5461043D01*
X5162027Y5446138D01*
X5200226Y5438540D01*
X5239174D01*
X5277373Y5446138D01*
X5313355Y5461043D01*
X5345739Y5482681D01*
X5373279Y5510221D01*
X5394917Y5542605D01*
X5409822Y5578587D01*
X5417420Y5616786D01*
Y5655734D01*
X5409822Y5693933D01*
X5394917Y5729915D01*
X5373279Y5762299D01*
X5345739Y5789839D01*
X5313355Y5811477D01*
X5277373Y5826382D01*
X5239174Y5833980D01*
D02*
G37*
G36*
X6992002Y5432700D02*
X6977998D01*
X6965061Y5427341D01*
X6955159Y5417439D01*
X6949800Y5404502D01*
Y5390498D01*
X6955159Y5377561D01*
X6965061Y5367659D01*
X6977998Y5362300D01*
X6992002D01*
X7004939Y5367659D01*
X7014841Y5377561D01*
X7020200Y5390498D01*
Y5404502D01*
X7014841Y5417439D01*
X7004939Y5427341D01*
X6992002Y5432700D01*
D02*
G37*
G36*
X6039502D02*
X6025498D01*
X6012561Y5427341D01*
X6002659Y5417439D01*
X5997300Y5404502D01*
Y5390498D01*
X6002659Y5377561D01*
X6012561Y5367659D01*
X6025498Y5362300D01*
X6039502D01*
X6052439Y5367659D01*
X6062341Y5377561D01*
X6067700Y5390498D01*
Y5404502D01*
X6062341Y5417439D01*
X6052439Y5427341D01*
X6039502Y5432700D01*
D02*
G37*
G36*
X5722002D02*
X5707998D01*
X5695061Y5427341D01*
X5685159Y5417439D01*
X5679800Y5404502D01*
Y5390498D01*
X5685159Y5377561D01*
X5695061Y5367659D01*
X5707998Y5362300D01*
X5722002D01*
X5734939Y5367659D01*
X5744841Y5377561D01*
X5750200Y5390498D01*
Y5404502D01*
X5744841Y5417439D01*
X5734939Y5427341D01*
X5722002Y5432700D01*
D02*
G37*
G36*
X4769502D02*
X4755498D01*
X4742561Y5427341D01*
X4732659Y5417439D01*
X4727300Y5404502D01*
Y5390498D01*
X4732659Y5377561D01*
X4742561Y5367659D01*
X4755498Y5362300D01*
X4769502D01*
X4782439Y5367659D01*
X4792341Y5377561D01*
X4797700Y5390498D01*
Y5404502D01*
X4792341Y5417439D01*
X4782439Y5427341D01*
X4769502Y5432700D01*
D02*
G37*
G36*
X4452002D02*
X4437998D01*
X4425061Y5427341D01*
X4415159Y5417439D01*
X4409800Y5404502D01*
Y5390498D01*
X4415159Y5377561D01*
X4425061Y5367659D01*
X4437998Y5362300D01*
X4452002D01*
X4464939Y5367659D01*
X4474841Y5377561D01*
X4480200Y5390498D01*
Y5404502D01*
X4474841Y5417439D01*
X4464939Y5427341D01*
X4452002Y5432700D01*
D02*
G37*
G36*
X4134502D02*
X4120498D01*
X4107561Y5427341D01*
X4097659Y5417439D01*
X4092300Y5404502D01*
Y5390498D01*
X4097659Y5377561D01*
X4107561Y5367659D01*
X4120498Y5362300D01*
X4134502D01*
X4147439Y5367659D01*
X4157341Y5377561D01*
X4162700Y5390498D01*
Y5404502D01*
X4157341Y5417439D01*
X4147439Y5427341D01*
X4134502Y5432700D01*
D02*
G37*
G36*
X3817002D02*
X3802998D01*
X3790061Y5427341D01*
X3780159Y5417439D01*
X3774800Y5404502D01*
Y5390498D01*
X3780159Y5377561D01*
X3790061Y5367659D01*
X3802998Y5362300D01*
X3817002D01*
X3829939Y5367659D01*
X3839841Y5377561D01*
X3845200Y5390498D01*
Y5404502D01*
X3839841Y5417439D01*
X3829939Y5427341D01*
X3817002Y5432700D01*
D02*
G37*
G36*
X3499502D02*
X3485498D01*
X3472561Y5427341D01*
X3462659Y5417439D01*
X3457300Y5404502D01*
Y5390498D01*
X3462659Y5377561D01*
X3472561Y5367659D01*
X3485498Y5362300D01*
X3499502D01*
X3512439Y5367659D01*
X3522341Y5377561D01*
X3527700Y5390498D01*
Y5404502D01*
X3522341Y5417439D01*
X3512439Y5427341D01*
X3499502Y5432700D01*
D02*
G37*
G36*
X2864502D02*
X2850498D01*
X2837561Y5427341D01*
X2827659Y5417439D01*
X2822300Y5404502D01*
Y5390498D01*
X2827659Y5377561D01*
X2837561Y5367659D01*
X2850498Y5362300D01*
X2864502D01*
X2877439Y5367659D01*
X2887341Y5377561D01*
X2892700Y5390498D01*
Y5404502D01*
X2887341Y5417439D01*
X2877439Y5427341D01*
X2864502Y5432700D01*
D02*
G37*
G36*
X6960902Y5235200D02*
X6946898D01*
X6933961Y5229841D01*
X6924059Y5219939D01*
X6918700Y5207002D01*
Y5192998D01*
X6924059Y5180061D01*
X6933961Y5170159D01*
X6946898Y5164800D01*
X6960902D01*
X6973839Y5170159D01*
X6983741Y5180061D01*
X6989100Y5192998D01*
Y5207002D01*
X6983741Y5219939D01*
X6973839Y5229841D01*
X6960902Y5235200D01*
D02*
G37*
G36*
X7260902Y5234800D02*
X7246898D01*
X7233961Y5229441D01*
X7224059Y5219539D01*
X7218700Y5206602D01*
Y5192598D01*
X7224059Y5179661D01*
X7233961Y5169759D01*
X7246898Y5164400D01*
X7260902D01*
X7273839Y5169759D01*
X7283741Y5179661D01*
X7289100Y5192598D01*
Y5206602D01*
X7283741Y5219539D01*
X7273839Y5229441D01*
X7260902Y5234800D01*
D02*
G37*
G36*
X6860902Y5233600D02*
X6846898D01*
X6833961Y5228241D01*
X6824059Y5218339D01*
X6818700Y5205402D01*
Y5191398D01*
X6824059Y5178461D01*
X6833961Y5168559D01*
X6846898Y5163200D01*
X6860902D01*
X6873839Y5168559D01*
X6883741Y5178461D01*
X6889100Y5191398D01*
Y5205402D01*
X6883741Y5218339D01*
X6873839Y5228241D01*
X6860902Y5233600D01*
D02*
G37*
G36*
X6560902Y5228800D02*
X6546898D01*
X6533961Y5223441D01*
X6524059Y5213539D01*
X6518700Y5200602D01*
Y5186598D01*
X6524059Y5173661D01*
X6533961Y5163759D01*
X6546898Y5158400D01*
X6560902D01*
X6573839Y5163759D01*
X6583741Y5173661D01*
X6589100Y5186598D01*
Y5200602D01*
X6583741Y5213539D01*
X6573839Y5223441D01*
X6560902Y5228800D01*
D02*
G37*
G36*
X5880752Y5115200D02*
X5866748D01*
X5853811Y5109841D01*
X5843909Y5099939D01*
X5838550Y5087002D01*
Y5072998D01*
X5843909Y5060061D01*
X5853811Y5050159D01*
X5866748Y5044800D01*
X5880752D01*
X5893689Y5050159D01*
X5903591Y5060061D01*
X5908950Y5072998D01*
Y5087002D01*
X5903591Y5099939D01*
X5893689Y5109841D01*
X5880752Y5115200D01*
D02*
G37*
G36*
X5245752D02*
X5231748D01*
X5218811Y5109841D01*
X5208909Y5099939D01*
X5203550Y5087002D01*
Y5072998D01*
X5208909Y5060061D01*
X5218811Y5050159D01*
X5231748Y5044800D01*
X5245752D01*
X5258689Y5050159D01*
X5268591Y5060061D01*
X5273950Y5072998D01*
Y5087002D01*
X5268591Y5099939D01*
X5258689Y5109841D01*
X5245752Y5115200D01*
D02*
G37*
G36*
X4928252D02*
X4914248D01*
X4901311Y5109841D01*
X4891409Y5099939D01*
X4886050Y5087002D01*
Y5072998D01*
X4891409Y5060061D01*
X4901311Y5050159D01*
X4914248Y5044800D01*
X4928252D01*
X4941189Y5050159D01*
X4951091Y5060061D01*
X4956450Y5072998D01*
Y5087002D01*
X4951091Y5099939D01*
X4941189Y5109841D01*
X4928252Y5115200D01*
D02*
G37*
G36*
X4610752D02*
X4596748D01*
X4583811Y5109841D01*
X4573909Y5099939D01*
X4568550Y5087002D01*
Y5072998D01*
X4573909Y5060061D01*
X4583811Y5050159D01*
X4596748Y5044800D01*
X4610752D01*
X4623689Y5050159D01*
X4633591Y5060061D01*
X4638950Y5072998D01*
Y5087002D01*
X4633591Y5099939D01*
X4623689Y5109841D01*
X4610752Y5115200D01*
D02*
G37*
G36*
X4293252D02*
X4279248D01*
X4266311Y5109841D01*
X4256409Y5099939D01*
X4251050Y5087002D01*
Y5072998D01*
X4256409Y5060061D01*
X4266311Y5050159D01*
X4279248Y5044800D01*
X4293252D01*
X4306189Y5050159D01*
X4316091Y5060061D01*
X4321450Y5072998D01*
Y5087002D01*
X4316091Y5099939D01*
X4306189Y5109841D01*
X4293252Y5115200D01*
D02*
G37*
G36*
X3975752D02*
X3961748D01*
X3948811Y5109841D01*
X3938909Y5099939D01*
X3933550Y5087002D01*
Y5072998D01*
X3938909Y5060061D01*
X3948811Y5050159D01*
X3961748Y5044800D01*
X3975752D01*
X3988689Y5050159D01*
X3998591Y5060061D01*
X4003950Y5072998D01*
Y5087002D01*
X3998591Y5099939D01*
X3988689Y5109841D01*
X3975752Y5115200D01*
D02*
G37*
G36*
X3340752D02*
X3326748D01*
X3313811Y5109841D01*
X3303909Y5099939D01*
X3298550Y5087002D01*
Y5072998D01*
X3303909Y5060061D01*
X3313811Y5050159D01*
X3326748Y5044800D01*
X3340752D01*
X3353689Y5050159D01*
X3363591Y5060061D01*
X3368950Y5072998D01*
Y5087002D01*
X3363591Y5099939D01*
X3353689Y5109841D01*
X3340752Y5115200D01*
D02*
G37*
G36*
X3023252D02*
X3009248D01*
X2996311Y5109841D01*
X2986409Y5099939D01*
X2981050Y5087002D01*
Y5072998D01*
X2986409Y5060061D01*
X2996311Y5050159D01*
X3009248Y5044800D01*
X3023252D01*
X3036189Y5050159D01*
X3046091Y5060061D01*
X3051450Y5072998D01*
Y5087002D01*
X3046091Y5099939D01*
X3036189Y5109841D01*
X3023252Y5115200D01*
D02*
G37*
G36*
X5051442Y5037860D02*
X5037438D01*
X5024501Y5032501D01*
X5014599Y5022599D01*
X5009240Y5009662D01*
Y4995658D01*
X5014599Y4982721D01*
X5024501Y4972819D01*
X5037438Y4967460D01*
X5051442D01*
X5064379Y4972819D01*
X5074281Y4982721D01*
X5079640Y4995658D01*
Y5009662D01*
X5074281Y5022599D01*
X5064379Y5032501D01*
X5051442Y5037860D01*
D02*
G37*
G36*
X5390302Y4977000D02*
X5376298D01*
X5363361Y4971641D01*
X5353459Y4961739D01*
X5348100Y4948802D01*
Y4934798D01*
X5353459Y4921861D01*
X5363361Y4911959D01*
X5376298Y4906600D01*
X5390302D01*
X5403239Y4911959D01*
X5413141Y4921861D01*
X5418500Y4934798D01*
Y4948802D01*
X5413141Y4961739D01*
X5403239Y4971641D01*
X5390302Y4977000D01*
D02*
G37*
G36*
X4990482Y4919620D02*
X4976478D01*
X4963541Y4914261D01*
X4953639Y4904359D01*
X4948280Y4891422D01*
Y4877418D01*
X4953639Y4864481D01*
X4963541Y4854579D01*
X4976478Y4849220D01*
X4990482D01*
X5003419Y4854579D01*
X5013321Y4864481D01*
X5018680Y4877418D01*
Y4891422D01*
X5013321Y4904359D01*
X5003419Y4914261D01*
X4990482Y4919620D01*
D02*
G37*
G36*
X7060582Y4902390D02*
X7046578D01*
X7033641Y4897031D01*
X7023739Y4887129D01*
X7018380Y4874192D01*
Y4860188D01*
X7023739Y4847251D01*
X7033641Y4837349D01*
X7046578Y4831990D01*
X7060582D01*
X7073519Y4837349D01*
X7083421Y4847251D01*
X7088780Y4860188D01*
Y4874192D01*
X7083421Y4887129D01*
X7073519Y4897031D01*
X7060582Y4902390D01*
D02*
G37*
G36*
X6992002Y4797700D02*
X6977998D01*
X6965061Y4792341D01*
X6955159Y4782439D01*
X6949800Y4769502D01*
Y4755498D01*
X6955159Y4742561D01*
X6965061Y4732659D01*
X6977998Y4727300D01*
X6992002D01*
X7004939Y4732659D01*
X7014841Y4742561D01*
X7020200Y4755498D01*
Y4769502D01*
X7014841Y4782439D01*
X7004939Y4792341D01*
X6992002Y4797700D01*
D02*
G37*
G36*
X6674502D02*
X6660498D01*
X6647561Y4792341D01*
X6637659Y4782439D01*
X6632300Y4769502D01*
Y4755498D01*
X6637659Y4742561D01*
X6647561Y4732659D01*
X6660498Y4727300D01*
X6674502D01*
X6687439Y4732659D01*
X6697341Y4742561D01*
X6702700Y4755498D01*
Y4769502D01*
X6697341Y4782439D01*
X6687439Y4792341D01*
X6674502Y4797700D01*
D02*
G37*
G36*
X6039502D02*
X6025498D01*
X6012561Y4792341D01*
X6002659Y4782439D01*
X5997300Y4769502D01*
Y4755498D01*
X6002659Y4742561D01*
X6012561Y4732659D01*
X6025498Y4727300D01*
X6039502D01*
X6052439Y4732659D01*
X6062341Y4742561D01*
X6067700Y4755498D01*
Y4769502D01*
X6062341Y4782439D01*
X6052439Y4792341D01*
X6039502Y4797700D01*
D02*
G37*
G36*
X5722002D02*
X5707998D01*
X5695061Y4792341D01*
X5685159Y4782439D01*
X5679800Y4769502D01*
Y4755498D01*
X5685159Y4742561D01*
X5695061Y4732659D01*
X5707998Y4727300D01*
X5722002D01*
X5734939Y4732659D01*
X5744841Y4742561D01*
X5750200Y4755498D01*
Y4769502D01*
X5744841Y4782439D01*
X5734939Y4792341D01*
X5722002Y4797700D01*
D02*
G37*
G36*
X5404502D02*
X5390498D01*
X5377561Y4792341D01*
X5367659Y4782439D01*
X5362300Y4769502D01*
Y4755498D01*
X5367659Y4742561D01*
X5377561Y4732659D01*
X5390498Y4727300D01*
X5404502D01*
X5417439Y4732659D01*
X5427341Y4742561D01*
X5432700Y4755498D01*
Y4769502D01*
X5427341Y4782439D01*
X5417439Y4792341D01*
X5404502Y4797700D01*
D02*
G37*
G36*
X4769502D02*
X4755498D01*
X4742561Y4792341D01*
X4732659Y4782439D01*
X4727300Y4769502D01*
Y4755498D01*
X4732659Y4742561D01*
X4742561Y4732659D01*
X4755498Y4727300D01*
X4769502D01*
X4782439Y4732659D01*
X4792341Y4742561D01*
X4797700Y4755498D01*
Y4769502D01*
X4792341Y4782439D01*
X4782439Y4792341D01*
X4769502Y4797700D01*
D02*
G37*
G36*
X4452002D02*
X4437998D01*
X4425061Y4792341D01*
X4415159Y4782439D01*
X4409800Y4769502D01*
Y4755498D01*
X4415159Y4742561D01*
X4425061Y4732659D01*
X4437998Y4727300D01*
X4452002D01*
X4464939Y4732659D01*
X4474841Y4742561D01*
X4480200Y4755498D01*
Y4769502D01*
X4474841Y4782439D01*
X4464939Y4792341D01*
X4452002Y4797700D01*
D02*
G37*
G36*
X4134502D02*
X4120498D01*
X4107561Y4792341D01*
X4097659Y4782439D01*
X4092300Y4769502D01*
Y4755498D01*
X4097659Y4742561D01*
X4107561Y4732659D01*
X4120498Y4727300D01*
X4134502D01*
X4147439Y4732659D01*
X4157341Y4742561D01*
X4162700Y4755498D01*
Y4769502D01*
X4157341Y4782439D01*
X4147439Y4792341D01*
X4134502Y4797700D01*
D02*
G37*
G36*
X3817002D02*
X3802998D01*
X3790061Y4792341D01*
X3780159Y4782439D01*
X3774800Y4769502D01*
Y4755498D01*
X3780159Y4742561D01*
X3790061Y4732659D01*
X3802998Y4727300D01*
X3817002D01*
X3829939Y4732659D01*
X3839841Y4742561D01*
X3845200Y4755498D01*
Y4769502D01*
X3839841Y4782439D01*
X3829939Y4792341D01*
X3817002Y4797700D01*
D02*
G37*
G36*
X3499502D02*
X3485498D01*
X3472561Y4792341D01*
X3462659Y4782439D01*
X3457300Y4769502D01*
Y4755498D01*
X3462659Y4742561D01*
X3472561Y4732659D01*
X3485498Y4727300D01*
X3499502D01*
X3512439Y4732659D01*
X3522341Y4742561D01*
X3527700Y4755498D01*
Y4769502D01*
X3522341Y4782439D01*
X3512439Y4792341D01*
X3499502Y4797700D01*
D02*
G37*
G36*
X3182002D02*
X3167998D01*
X3155061Y4792341D01*
X3145159Y4782439D01*
X3139800Y4769502D01*
Y4755498D01*
X3145159Y4742561D01*
X3155061Y4732659D01*
X3167998Y4727300D01*
X3182002D01*
X3194939Y4732659D01*
X3204841Y4742561D01*
X3210200Y4755498D01*
Y4769502D01*
X3204841Y4782439D01*
X3194939Y4792341D01*
X3182002Y4797700D01*
D02*
G37*
G36*
X2864502D02*
X2850498D01*
X2837561Y4792341D01*
X2827659Y4782439D01*
X2822300Y4769502D01*
Y4755498D01*
X2827659Y4742561D01*
X2837561Y4732659D01*
X2850498Y4727300D01*
X2864502D01*
X2877439Y4732659D01*
X2887341Y4742561D01*
X2892700Y4755498D01*
Y4769502D01*
X2887341Y4782439D01*
X2877439Y4792341D01*
X2864502Y4797700D01*
D02*
G37*
G36*
X6230002Y4746900D02*
X6215998D01*
X6203061Y4741541D01*
X6193159Y4731639D01*
X6187800Y4718702D01*
Y4704698D01*
X6193159Y4691761D01*
X6203061Y4681859D01*
X6215998Y4676500D01*
X6230002D01*
X6242939Y4681859D01*
X6252841Y4691761D01*
X6258200Y4704698D01*
Y4718702D01*
X6252841Y4731639D01*
X6242939Y4741541D01*
X6230002Y4746900D01*
D02*
G37*
G36*
X2858542Y4641850D02*
X2836138D01*
X2814497Y4636051D01*
X2795093Y4624849D01*
X2779251Y4609007D01*
X2768049Y4589603D01*
X2762250Y4567962D01*
Y4545558D01*
X2768049Y4523917D01*
X2779251Y4504513D01*
X2795093Y4488671D01*
X2814497Y4477469D01*
X2836138Y4471670D01*
X2858542D01*
X2880183Y4477469D01*
X2899587Y4488671D01*
X2915429Y4504513D01*
X2926631Y4523917D01*
X2932430Y4545558D01*
Y4567962D01*
X2926631Y4589603D01*
X2915429Y4609007D01*
X2899587Y4624849D01*
X2880183Y4636051D01*
X2858542Y4641850D01*
D02*
G37*
G36*
X7150752Y4480200D02*
X7136748D01*
X7123811Y4474841D01*
X7113909Y4464939D01*
X7108550Y4452002D01*
Y4437998D01*
X7113909Y4425061D01*
X7123811Y4415159D01*
X7136748Y4409800D01*
X7150752D01*
X7163689Y4415159D01*
X7173591Y4425061D01*
X7178950Y4437998D01*
Y4452002D01*
X7173591Y4464939D01*
X7163689Y4474841D01*
X7150752Y4480200D01*
D02*
G37*
G36*
X6833252D02*
X6819248D01*
X6806311Y4474841D01*
X6796409Y4464939D01*
X6791050Y4452002D01*
Y4437998D01*
X6796409Y4425061D01*
X6806311Y4415159D01*
X6819248Y4409800D01*
X6833252D01*
X6846189Y4415159D01*
X6856091Y4425061D01*
X6861450Y4437998D01*
Y4452002D01*
X6856091Y4464939D01*
X6846189Y4474841D01*
X6833252Y4480200D01*
D02*
G37*
G36*
X6198252D02*
X6184248D01*
X6171311Y4474841D01*
X6161409Y4464939D01*
X6156050Y4452002D01*
Y4437998D01*
X6161409Y4425061D01*
X6171311Y4415159D01*
X6184248Y4409800D01*
X6198252D01*
X6211189Y4415159D01*
X6221091Y4425061D01*
X6226450Y4437998D01*
Y4452002D01*
X6221091Y4464939D01*
X6211189Y4474841D01*
X6198252Y4480200D01*
D02*
G37*
G36*
X5880752D02*
X5866748D01*
X5853811Y4474841D01*
X5843909Y4464939D01*
X5838550Y4452002D01*
Y4437998D01*
X5843909Y4425061D01*
X5853811Y4415159D01*
X5866748Y4409800D01*
X5880752D01*
X5893689Y4415159D01*
X5903591Y4425061D01*
X5908950Y4437998D01*
Y4452002D01*
X5903591Y4464939D01*
X5893689Y4474841D01*
X5880752Y4480200D01*
D02*
G37*
G36*
X5563252D02*
X5549248D01*
X5536311Y4474841D01*
X5526409Y4464939D01*
X5521050Y4452002D01*
Y4437998D01*
X5526409Y4425061D01*
X5536311Y4415159D01*
X5549248Y4409800D01*
X5563252D01*
X5576189Y4415159D01*
X5586091Y4425061D01*
X5591450Y4437998D01*
Y4452002D01*
X5586091Y4464939D01*
X5576189Y4474841D01*
X5563252Y4480200D01*
D02*
G37*
G36*
X5245752D02*
X5231748D01*
X5218811Y4474841D01*
X5208909Y4464939D01*
X5203550Y4452002D01*
Y4437998D01*
X5208909Y4425061D01*
X5218811Y4415159D01*
X5231748Y4409800D01*
X5245752D01*
X5258689Y4415159D01*
X5268591Y4425061D01*
X5273950Y4437998D01*
Y4452002D01*
X5268591Y4464939D01*
X5258689Y4474841D01*
X5245752Y4480200D01*
D02*
G37*
G36*
X4610752D02*
X4596748D01*
X4583811Y4474841D01*
X4573909Y4464939D01*
X4568550Y4452002D01*
Y4437998D01*
X4573909Y4425061D01*
X4583811Y4415159D01*
X4596748Y4409800D01*
X4610752D01*
X4623689Y4415159D01*
X4633591Y4425061D01*
X4638950Y4437998D01*
Y4452002D01*
X4633591Y4464939D01*
X4623689Y4474841D01*
X4610752Y4480200D01*
D02*
G37*
G36*
X3975752D02*
X3961748D01*
X3948811Y4474841D01*
X3938909Y4464939D01*
X3933550Y4452002D01*
Y4437998D01*
X3938909Y4425061D01*
X3948811Y4415159D01*
X3961748Y4409800D01*
X3975752D01*
X3988689Y4415159D01*
X3998591Y4425061D01*
X4003950Y4437998D01*
Y4452002D01*
X3998591Y4464939D01*
X3988689Y4474841D01*
X3975752Y4480200D01*
D02*
G37*
G36*
X3658252D02*
X3644248D01*
X3631311Y4474841D01*
X3621409Y4464939D01*
X3616050Y4452002D01*
Y4437998D01*
X3621409Y4425061D01*
X3631311Y4415159D01*
X3644248Y4409800D01*
X3658252D01*
X3671189Y4415159D01*
X3681091Y4425061D01*
X3686450Y4437998D01*
Y4452002D01*
X3681091Y4464939D01*
X3671189Y4474841D01*
X3658252Y4480200D01*
D02*
G37*
G36*
X3340752D02*
X3326748D01*
X3313811Y4474841D01*
X3303909Y4464939D01*
X3298550Y4452002D01*
Y4437998D01*
X3303909Y4425061D01*
X3313811Y4415159D01*
X3326748Y4409800D01*
X3340752D01*
X3353689Y4415159D01*
X3363591Y4425061D01*
X3368950Y4437998D01*
Y4452002D01*
X3363591Y4464939D01*
X3353689Y4474841D01*
X3340752Y4480200D01*
D02*
G37*
G36*
X3023252D02*
X3009248D01*
X2996311Y4474841D01*
X2986409Y4464939D01*
X2981050Y4452002D01*
Y4437998D01*
X2986409Y4425061D01*
X2996311Y4415159D01*
X3009248Y4409800D01*
X3023252D01*
X3036189Y4415159D01*
X3046091Y4425061D01*
X3051450Y4437998D01*
Y4452002D01*
X3046091Y4464939D01*
X3036189Y4474841D01*
X3023252Y4480200D01*
D02*
G37*
G36*
X5406402Y4262400D02*
X5392398D01*
X5379461Y4257041D01*
X5369559Y4247139D01*
X5364200Y4234202D01*
Y4220198D01*
X5369559Y4207261D01*
X5379461Y4197359D01*
X5392398Y4192000D01*
X5406402D01*
X5419339Y4197359D01*
X5429241Y4207261D01*
X5434600Y4220198D01*
Y4234202D01*
X5429241Y4247139D01*
X5419339Y4257041D01*
X5406402Y4262400D01*
D02*
G37*
G36*
X5269262Y4182400D02*
X5255258D01*
X5242321Y4177041D01*
X5232419Y4167139D01*
X5227060Y4154202D01*
Y4140198D01*
X5232419Y4127261D01*
X5242321Y4117359D01*
X5255258Y4112000D01*
X5269262D01*
X5282199Y4117359D01*
X5292101Y4127261D01*
X5297460Y4140198D01*
Y4154202D01*
X5292101Y4167139D01*
X5282199Y4177041D01*
X5269262Y4182400D01*
D02*
G37*
G36*
X6992002Y4162700D02*
X6977998D01*
X6965061Y4157341D01*
X6955159Y4147439D01*
X6949800Y4134502D01*
Y4120498D01*
X6955159Y4107561D01*
X6965061Y4097659D01*
X6977998Y4092300D01*
X6992002D01*
X7004939Y4097659D01*
X7014841Y4107561D01*
X7020200Y4120498D01*
Y4134502D01*
X7014841Y4147439D01*
X7004939Y4157341D01*
X6992002Y4162700D01*
D02*
G37*
G36*
X6674502D02*
X6660498D01*
X6647561Y4157341D01*
X6637659Y4147439D01*
X6632300Y4134502D01*
Y4120498D01*
X6637659Y4107561D01*
X6647561Y4097659D01*
X6660498Y4092300D01*
X6674502D01*
X6687439Y4097659D01*
X6697341Y4107561D01*
X6702700Y4120498D01*
Y4134502D01*
X6697341Y4147439D01*
X6687439Y4157341D01*
X6674502Y4162700D01*
D02*
G37*
G36*
X5404502D02*
X5390498D01*
X5377561Y4157341D01*
X5367659Y4147439D01*
X5362300Y4134502D01*
Y4120498D01*
X5367659Y4107561D01*
X5377561Y4097659D01*
X5390498Y4092300D01*
X5404502D01*
X5417439Y4097659D01*
X5427341Y4107561D01*
X5432700Y4120498D01*
Y4134502D01*
X5427341Y4147439D01*
X5417439Y4157341D01*
X5404502Y4162700D01*
D02*
G37*
G36*
X4769502D02*
X4755498D01*
X4742561Y4157341D01*
X4732659Y4147439D01*
X4727300Y4134502D01*
Y4120498D01*
X4732659Y4107561D01*
X4742561Y4097659D01*
X4755498Y4092300D01*
X4769502D01*
X4782439Y4097659D01*
X4792341Y4107561D01*
X4797700Y4120498D01*
Y4134502D01*
X4792341Y4147439D01*
X4782439Y4157341D01*
X4769502Y4162700D01*
D02*
G37*
G36*
X4452002D02*
X4437998D01*
X4425061Y4157341D01*
X4415159Y4147439D01*
X4409800Y4134502D01*
Y4120498D01*
X4415159Y4107561D01*
X4425061Y4097659D01*
X4437998Y4092300D01*
X4452002D01*
X4464939Y4097659D01*
X4474841Y4107561D01*
X4480200Y4120498D01*
Y4134502D01*
X4474841Y4147439D01*
X4464939Y4157341D01*
X4452002Y4162700D01*
D02*
G37*
G36*
X4134502D02*
X4120498D01*
X4107561Y4157341D01*
X4097659Y4147439D01*
X4092300Y4134502D01*
Y4120498D01*
X4097659Y4107561D01*
X4107561Y4097659D01*
X4120498Y4092300D01*
X4134502D01*
X4147439Y4097659D01*
X4157341Y4107561D01*
X4162700Y4120498D01*
Y4134502D01*
X4157341Y4147439D01*
X4147439Y4157341D01*
X4134502Y4162700D01*
D02*
G37*
G36*
X3817002D02*
X3802998D01*
X3790061Y4157341D01*
X3780159Y4147439D01*
X3774800Y4134502D01*
Y4120498D01*
X3780159Y4107561D01*
X3790061Y4097659D01*
X3802998Y4092300D01*
X3817002D01*
X3829939Y4097659D01*
X3839841Y4107561D01*
X3845200Y4120498D01*
Y4134502D01*
X3839841Y4147439D01*
X3829939Y4157341D01*
X3817002Y4162700D01*
D02*
G37*
G36*
X3499502D02*
X3485498D01*
X3472561Y4157341D01*
X3462659Y4147439D01*
X3457300Y4134502D01*
Y4120498D01*
X3462659Y4107561D01*
X3472561Y4097659D01*
X3485498Y4092300D01*
X3499502D01*
X3512439Y4097659D01*
X3522341Y4107561D01*
X3527700Y4120498D01*
Y4134502D01*
X3522341Y4147439D01*
X3512439Y4157341D01*
X3499502Y4162700D01*
D02*
G37*
G36*
X3182002D02*
X3167998D01*
X3155061Y4157341D01*
X3145159Y4147439D01*
X3139800Y4134502D01*
Y4120498D01*
X3145159Y4107561D01*
X3155061Y4097659D01*
X3167998Y4092300D01*
X3182002D01*
X3194939Y4097659D01*
X3204841Y4107561D01*
X3210200Y4120498D01*
Y4134502D01*
X3204841Y4147439D01*
X3194939Y4157341D01*
X3182002Y4162700D01*
D02*
G37*
G36*
X2864502D02*
X2850498D01*
X2837561Y4157341D01*
X2827659Y4147439D01*
X2822300Y4134502D01*
Y4120498D01*
X2827659Y4107561D01*
X2837561Y4097659D01*
X2850498Y4092300D01*
X2864502D01*
X2877439Y4097659D01*
X2887341Y4107561D01*
X2892700Y4120498D01*
Y4134502D01*
X2887341Y4147439D01*
X2877439Y4157341D01*
X2864502Y4162700D01*
D02*
G37*
G36*
X6248302Y4142900D02*
X6234298D01*
X6221361Y4137541D01*
X6211459Y4127639D01*
X6206100Y4114702D01*
Y4100698D01*
X6211459Y4087761D01*
X6221361Y4077859D01*
X6234298Y4072500D01*
X6248302D01*
X6261239Y4077859D01*
X6271141Y4087761D01*
X6276500Y4100698D01*
Y4114702D01*
X6271141Y4127639D01*
X6261239Y4137541D01*
X6248302Y4142900D01*
D02*
G37*
G36*
X3211729Y4005917D02*
X3197726D01*
X3184789Y4000558D01*
X3174887Y3990656D01*
X3169528Y3977718D01*
Y3963715D01*
X3174887Y3950778D01*
X3184789Y3940876D01*
X3197726Y3935517D01*
X3211729D01*
X3224667Y3940876D01*
X3234569Y3950778D01*
X3239927Y3963715D01*
Y3977718D01*
X3234569Y3990656D01*
X3224667Y4000558D01*
X3211729Y4005917D01*
D02*
G37*
G36*
X3458109Y4018617D02*
X3444106D01*
X3431169Y4013258D01*
X3421267Y4003356D01*
X3415908Y3990418D01*
Y3976415D01*
X3416385Y3975264D01*
X3407309Y3965277D01*
X3393306D01*
X3380369Y3959918D01*
X3370467Y3950016D01*
X3365108Y3937078D01*
Y3923075D01*
X3370467Y3910138D01*
X3380369Y3900236D01*
X3393306Y3894877D01*
X3407309D01*
X3420247Y3900236D01*
X3430149Y3910138D01*
X3435507Y3923075D01*
Y3937078D01*
X3435031Y3938230D01*
X3444106Y3948217D01*
X3458109D01*
X3471047Y3953576D01*
X3480949Y3963478D01*
X3486307Y3976415D01*
Y3990418D01*
X3480949Y4003356D01*
X3471047Y4013258D01*
X3458109Y4018617D01*
D02*
G37*
G36*
X3536849Y3970357D02*
X3522846D01*
X3509909Y3964998D01*
X3500007Y3955096D01*
X3494648Y3942158D01*
Y3928155D01*
X3500007Y3915218D01*
X3509909Y3905316D01*
X3522846Y3899957D01*
X3536849D01*
X3548244Y3904677D01*
X3551079Y3904817D01*
X3562750Y3900318D01*
X3566047Y3892358D01*
X3575949Y3882456D01*
X3588886Y3877097D01*
X3602889D01*
X3615827Y3882456D01*
X3625729Y3892358D01*
X3631087Y3905295D01*
Y3919298D01*
X3625729Y3932236D01*
X3615827Y3942138D01*
X3602889Y3947497D01*
X3588886D01*
X3577491Y3942777D01*
X3574657Y3942636D01*
X3562986Y3947136D01*
X3559689Y3955096D01*
X3549787Y3964998D01*
X3536849Y3970357D01*
D02*
G37*
G36*
X3696869Y3932257D02*
X3682866D01*
X3669929Y3926898D01*
X3660027Y3916996D01*
X3654668Y3904058D01*
Y3890055D01*
X3660027Y3877118D01*
X3669929Y3867216D01*
X3682866Y3861857D01*
X3696869D01*
X3709807Y3867216D01*
X3719709Y3877118D01*
X3725067Y3890055D01*
Y3904058D01*
X3719709Y3916996D01*
X3709807Y3926898D01*
X3696869Y3932257D01*
D02*
G37*
G36*
X3303169Y3927177D02*
X3289166D01*
X3276229Y3921818D01*
X3266327Y3911916D01*
X3260968Y3898978D01*
Y3884975D01*
X3266327Y3872038D01*
X3276229Y3862136D01*
X3289166Y3856777D01*
X3303169D01*
X3316107Y3862136D01*
X3326009Y3872038D01*
X3331367Y3884975D01*
Y3898978D01*
X3326009Y3911916D01*
X3316107Y3921818D01*
X3303169Y3927177D01*
D02*
G37*
G36*
X3023252Y3903891D02*
X3009248D01*
X2996311Y3898532D01*
X2986409Y3888630D01*
X2981050Y3875693D01*
Y3861689D01*
X2986409Y3848752D01*
X2996311Y3838850D01*
X3009248Y3833491D01*
X3023252D01*
X3036189Y3838850D01*
X3046091Y3848752D01*
X3051450Y3861689D01*
Y3875693D01*
X3046091Y3888630D01*
X3036189Y3898532D01*
X3023252Y3903891D01*
D02*
G37*
G36*
X6198252Y3845200D02*
X6184248D01*
X6171311Y3839841D01*
X6161409Y3829939D01*
X6156050Y3817002D01*
Y3802998D01*
X6161409Y3790061D01*
X6171311Y3780159D01*
X6184248Y3774800D01*
X6198252D01*
X6211189Y3780159D01*
X6221091Y3790061D01*
X6226450Y3802998D01*
Y3817002D01*
X6221091Y3829939D01*
X6211189Y3839841D01*
X6198252Y3845200D01*
D02*
G37*
G36*
X5880752D02*
X5866748D01*
X5853811Y3839841D01*
X5843909Y3829939D01*
X5838550Y3817002D01*
Y3802998D01*
X5843909Y3790061D01*
X5853811Y3780159D01*
X5866748Y3774800D01*
X5880752D01*
X5893689Y3780159D01*
X5903591Y3790061D01*
X5908950Y3802998D01*
Y3817002D01*
X5903591Y3829939D01*
X5893689Y3839841D01*
X5880752Y3845200D01*
D02*
G37*
G36*
X5563252D02*
X5549248D01*
X5536311Y3839841D01*
X5526409Y3829939D01*
X5521050Y3817002D01*
Y3802998D01*
X5526409Y3790061D01*
X5536311Y3780159D01*
X5549248Y3774800D01*
X5563252D01*
X5576189Y3780159D01*
X5586091Y3790061D01*
X5591450Y3802998D01*
Y3817002D01*
X5586091Y3829939D01*
X5576189Y3839841D01*
X5563252Y3845200D01*
D02*
G37*
G36*
X5245752D02*
X5231748D01*
X5218811Y3839841D01*
X5208909Y3829939D01*
X5203550Y3817002D01*
Y3802998D01*
X5208909Y3790061D01*
X5218811Y3780159D01*
X5231748Y3774800D01*
X5245752D01*
X5258689Y3780159D01*
X5268591Y3790061D01*
X5273950Y3802998D01*
Y3817002D01*
X5268591Y3829939D01*
X5258689Y3839841D01*
X5245752Y3845200D01*
D02*
G37*
G36*
X4610752D02*
X4596748D01*
X4583811Y3839841D01*
X4573909Y3829939D01*
X4568550Y3817002D01*
Y3802998D01*
X4573909Y3790061D01*
X4583811Y3780159D01*
X4596748Y3774800D01*
X4610752D01*
X4623689Y3780159D01*
X4633591Y3790061D01*
X4638950Y3802998D01*
Y3817002D01*
X4633591Y3829939D01*
X4623689Y3839841D01*
X4610752Y3845200D01*
D02*
G37*
G36*
X4293252D02*
X4279248D01*
X4266311Y3839841D01*
X4256409Y3829939D01*
X4251050Y3817002D01*
Y3802998D01*
X4256409Y3790061D01*
X4266311Y3780159D01*
X4279248Y3774800D01*
X4293252D01*
X4306189Y3780159D01*
X4316091Y3790061D01*
X4321450Y3802998D01*
Y3817002D01*
X4316091Y3829939D01*
X4306189Y3839841D01*
X4293252Y3845200D01*
D02*
G37*
G36*
X3975752D02*
X3961748D01*
X3948811Y3839841D01*
X3938909Y3829939D01*
X3933550Y3817002D01*
Y3802998D01*
X3938909Y3790061D01*
X3948811Y3780159D01*
X3961748Y3774800D01*
X3975752D01*
X3988689Y3780159D01*
X3998591Y3790061D01*
X4003950Y3802998D01*
Y3817002D01*
X3998591Y3829939D01*
X3988689Y3839841D01*
X3975752Y3845200D01*
D02*
G37*
G36*
X3572883Y3787477D02*
X3558879D01*
X3545942Y3782118D01*
X3536040Y3772216D01*
X3530681Y3759278D01*
Y3745275D01*
X3536040Y3732338D01*
X3545942Y3722436D01*
X3558879Y3717077D01*
X3572883D01*
X3585820Y3722436D01*
X3595722Y3732338D01*
X3601081Y3745275D01*
Y3759278D01*
X3595722Y3772216D01*
X3585820Y3782118D01*
X3572883Y3787477D01*
D02*
G37*
G36*
X2945782Y3769000D02*
X2931778D01*
X2918841Y3763641D01*
X2908939Y3753739D01*
X2903580Y3740802D01*
Y3726798D01*
X2908939Y3713861D01*
X2918841Y3703959D01*
X2931778Y3698600D01*
X2945782D01*
X2958719Y3703959D01*
X2968621Y3713861D01*
X2973980Y3726798D01*
Y3740802D01*
X2968621Y3753739D01*
X2958719Y3763641D01*
X2945782Y3769000D01*
D02*
G37*
G36*
X6960902Y3763300D02*
X6946898D01*
X6933961Y3757941D01*
X6924059Y3748039D01*
X6918700Y3735102D01*
Y3721098D01*
X6924059Y3708161D01*
X6933961Y3698259D01*
X6946898Y3692900D01*
X6960902D01*
X6973839Y3698259D01*
X6983741Y3708161D01*
X6989100Y3721098D01*
Y3735102D01*
X6983741Y3748039D01*
X6973839Y3757941D01*
X6960902Y3763300D01*
D02*
G37*
G36*
X7060902Y3761700D02*
X7046898D01*
X7033961Y3756341D01*
X7024059Y3746439D01*
X7018700Y3733502D01*
Y3719498D01*
X7024059Y3706561D01*
X7033961Y3696659D01*
X7046898Y3691300D01*
X7060902D01*
X7073839Y3696659D01*
X7083741Y3706561D01*
X7089100Y3719498D01*
Y3733502D01*
X7083741Y3746439D01*
X7073839Y3756341D01*
X7060902Y3761700D01*
D02*
G37*
G36*
X7160902Y3760100D02*
X7146898D01*
X7133961Y3754741D01*
X7124059Y3744839D01*
X7118700Y3731902D01*
Y3717898D01*
X7124059Y3704961D01*
X7133961Y3695059D01*
X7146898Y3689700D01*
X7160902D01*
X7173839Y3695059D01*
X7183741Y3704961D01*
X7189100Y3717898D01*
Y3731902D01*
X7183741Y3744839D01*
X7173839Y3754741D01*
X7160902Y3760100D01*
D02*
G37*
G36*
X7260902Y3758500D02*
X7246898D01*
X7233961Y3753141D01*
X7224059Y3743239D01*
X7218700Y3730302D01*
Y3716298D01*
X7224059Y3703361D01*
X7233961Y3693459D01*
X7246898Y3688100D01*
X7260902D01*
X7273839Y3693459D01*
X7283741Y3703361D01*
X7289100Y3716298D01*
Y3730302D01*
X7283741Y3743239D01*
X7273839Y3753141D01*
X7260902Y3758500D01*
D02*
G37*
G36*
X6675931Y3711690D02*
X6661928D01*
X6648991Y3706331D01*
X6639089Y3696429D01*
X6633730Y3683492D01*
Y3669488D01*
X6639089Y3656551D01*
X6648991Y3646649D01*
X6661928Y3641290D01*
X6675931D01*
X6688869Y3646649D01*
X6698770Y3656551D01*
X6704129Y3669488D01*
Y3683492D01*
X6698770Y3696429D01*
X6688869Y3706331D01*
X6675931Y3711690D01*
D02*
G37*
G36*
X3099602Y3635332D02*
X3085598D01*
X3072661Y3629973D01*
X3062759Y3620071D01*
X3057400Y3607134D01*
Y3593131D01*
X3062759Y3580194D01*
X3072661Y3570292D01*
X3085598Y3564933D01*
X3099602D01*
X3112539Y3570292D01*
X3122441Y3580194D01*
X3127800Y3593131D01*
Y3607134D01*
X3122441Y3620071D01*
X3112539Y3629973D01*
X3099602Y3635332D01*
D02*
G37*
G36*
X4276742Y3603900D02*
X4262738D01*
X4249801Y3598541D01*
X4239899Y3588639D01*
X4234540Y3575702D01*
Y3561698D01*
X4239899Y3548761D01*
X4249801Y3538859D01*
X4262738Y3533500D01*
X4276742D01*
X4289679Y3538859D01*
X4299581Y3548761D01*
X4304940Y3561698D01*
Y3575702D01*
X4299581Y3588639D01*
X4289679Y3598541D01*
X4276742Y3603900D01*
D02*
G37*
G36*
X6992002Y3527700D02*
X6977998D01*
X6965061Y3522341D01*
X6955159Y3512439D01*
X6949800Y3499502D01*
Y3485498D01*
X6955159Y3472561D01*
X6965061Y3462659D01*
X6977998Y3457300D01*
X6992002D01*
X7004939Y3462659D01*
X7014841Y3472561D01*
X7020200Y3485498D01*
Y3499502D01*
X7014841Y3512439D01*
X7004939Y3522341D01*
X6992002Y3527700D01*
D02*
G37*
G36*
X6357002D02*
X6342998D01*
X6330061Y3522341D01*
X6320159Y3512439D01*
X6314800Y3499502D01*
Y3485498D01*
X6320159Y3472561D01*
X6330061Y3462659D01*
X6342998Y3457300D01*
X6357002D01*
X6369939Y3462659D01*
X6379841Y3472561D01*
X6385200Y3485498D01*
Y3499502D01*
X6379841Y3512439D01*
X6369939Y3522341D01*
X6357002Y3527700D01*
D02*
G37*
G36*
X6039502D02*
X6025498D01*
X6012561Y3522341D01*
X6002659Y3512439D01*
X5997300Y3499502D01*
Y3485498D01*
X6002659Y3472561D01*
X6012561Y3462659D01*
X6025498Y3457300D01*
X6039502D01*
X6052439Y3462659D01*
X6062341Y3472561D01*
X6067700Y3485498D01*
Y3499502D01*
X6062341Y3512439D01*
X6052439Y3522341D01*
X6039502Y3527700D01*
D02*
G37*
G36*
X5722002D02*
X5707998D01*
X5695061Y3522341D01*
X5685159Y3512439D01*
X5679800Y3499502D01*
Y3485498D01*
X5685159Y3472561D01*
X5695061Y3462659D01*
X5707998Y3457300D01*
X5722002D01*
X5734939Y3462659D01*
X5744841Y3472561D01*
X5750200Y3485498D01*
Y3499502D01*
X5744841Y3512439D01*
X5734939Y3522341D01*
X5722002Y3527700D01*
D02*
G37*
G36*
X4769502D02*
X4755498D01*
X4742561Y3522341D01*
X4732659Y3512439D01*
X4727300Y3499502D01*
Y3485498D01*
X4732659Y3472561D01*
X4742561Y3462659D01*
X4755498Y3457300D01*
X4769502D01*
X4782439Y3462659D01*
X4792341Y3472561D01*
X4797700Y3485498D01*
Y3499502D01*
X4792341Y3512439D01*
X4782439Y3522341D01*
X4769502Y3527700D01*
D02*
G37*
G36*
X6547502Y3418480D02*
X6533498D01*
X6520561Y3413121D01*
X6510659Y3403219D01*
X6505300Y3390282D01*
Y3376278D01*
X6510659Y3363341D01*
X6520561Y3353439D01*
X6533498Y3348080D01*
X6547502D01*
X6560439Y3353439D01*
X6570341Y3363341D01*
X6575700Y3376278D01*
Y3390282D01*
X6570341Y3403219D01*
X6560439Y3413121D01*
X6547502Y3418480D01*
D02*
G37*
G36*
X4699763Y3351877D02*
X4678116Y3347571D01*
X4659764Y3335309D01*
X4647502Y3316957D01*
X4646101Y3309913D01*
X4631674Y3295486D01*
X4620472Y3276083D01*
X4618093Y3267204D01*
X4616607Y3265753D01*
X4603429Y3261549D01*
X4589603Y3269531D01*
X4567962Y3275330D01*
X4545558D01*
X4523917Y3269531D01*
X4504513Y3258329D01*
X4488671Y3242487D01*
X4477469Y3223083D01*
X4471670Y3201442D01*
Y3179038D01*
X4477469Y3157397D01*
X4488671Y3137993D01*
X4504513Y3122151D01*
X4523917Y3110949D01*
X4545558Y3105150D01*
X4567962D01*
X4589603Y3110949D01*
X4609007Y3122151D01*
X4624849Y3137993D01*
X4636051Y3157397D01*
X4637276Y3161968D01*
X4651033Y3164239D01*
X4659764Y3151171D01*
X4678116Y3138909D01*
X4699763Y3134603D01*
X4721410Y3138909D01*
X4739762Y3151171D01*
X4752024Y3169523D01*
X4753425Y3176566D01*
X4767852Y3190993D01*
X4779055Y3210396D01*
X4784853Y3232037D01*
Y3254442D01*
X4779055Y3276083D01*
X4767852Y3295486D01*
X4753425Y3309913D01*
X4752024Y3316957D01*
X4739762Y3335309D01*
X4721410Y3347571D01*
X4699763Y3351877D01*
D02*
G37*
G36*
X3263282Y3347360D02*
X3249278D01*
X3236341Y3342001D01*
X3226439Y3332099D01*
X3221080Y3319162D01*
Y3305158D01*
X3226439Y3292221D01*
X3236341Y3282319D01*
X3231921Y3273721D01*
X3231519Y3273319D01*
X3226160Y3260382D01*
Y3246378D01*
X3231519Y3233441D01*
X3241421Y3223539D01*
X3254358Y3218180D01*
X3268362D01*
X3281299Y3223539D01*
X3291201Y3233441D01*
X3296560Y3246378D01*
Y3260382D01*
X3291201Y3273319D01*
X3281299Y3283221D01*
X3285719Y3291819D01*
X3286121Y3292221D01*
X3291480Y3305158D01*
Y3319162D01*
X3286121Y3332099D01*
X3276219Y3342001D01*
X3263282Y3347360D01*
D02*
G37*
G36*
X2858542Y3371850D02*
X2836138D01*
X2814497Y3366051D01*
X2795093Y3354849D01*
X2779251Y3339007D01*
X2768049Y3319603D01*
X2762250Y3297962D01*
Y3275558D01*
X2768049Y3253917D01*
X2779251Y3234513D01*
X2795093Y3218671D01*
X2814497Y3207469D01*
X2836138Y3201670D01*
X2858542D01*
X2880183Y3207469D01*
X2899587Y3218671D01*
X2915429Y3234513D01*
X2926631Y3253917D01*
X2932430Y3275558D01*
Y3297962D01*
X2926631Y3319603D01*
X2915429Y3339007D01*
X2899587Y3354849D01*
X2880183Y3366051D01*
X2858542Y3371850D01*
D02*
G37*
G36*
X7220602Y3210200D02*
X7206598D01*
X7193661Y3204841D01*
X7186289Y3197469D01*
X7178675Y3195952D01*
X7171061Y3197469D01*
X7163689Y3204841D01*
X7150752Y3210200D01*
X7136748D01*
X7123811Y3204841D01*
X7113909Y3194939D01*
X7108550Y3182002D01*
Y3167998D01*
X7113909Y3155061D01*
X7123811Y3145159D01*
X7136748Y3139800D01*
X7150752D01*
X7163689Y3145159D01*
X7171061Y3152531D01*
X7178675Y3154048D01*
X7186289Y3152531D01*
X7193661Y3145159D01*
X7206598Y3139800D01*
X7220602D01*
X7233539Y3145159D01*
X7243441Y3155061D01*
X7248800Y3167998D01*
Y3182002D01*
X7243441Y3194939D01*
X7233539Y3204841D01*
X7220602Y3210200D01*
D02*
G37*
G36*
X6941202Y3212740D02*
X6927198D01*
X6914261Y3207381D01*
X6904359Y3197479D01*
X6899000Y3184542D01*
Y3170538D01*
X6904359Y3157601D01*
X6914261Y3147699D01*
X6927198Y3142340D01*
X6941202D01*
X6954139Y3147699D01*
X6964041Y3157601D01*
X6969400Y3170538D01*
Y3184542D01*
X6964041Y3197479D01*
X6954139Y3207381D01*
X6941202Y3212740D01*
D02*
G37*
G36*
X6833252Y3210200D02*
X6819248D01*
X6806311Y3204841D01*
X6796409Y3194939D01*
X6791050Y3182002D01*
Y3167998D01*
X6796409Y3155061D01*
X6806311Y3145159D01*
X6819248Y3139800D01*
X6833252D01*
X6846189Y3145159D01*
X6856091Y3155061D01*
X6861450Y3167998D01*
Y3182002D01*
X6856091Y3194939D01*
X6846189Y3204841D01*
X6833252Y3210200D01*
D02*
G37*
G36*
X6515752D02*
X6501748D01*
X6488811Y3204841D01*
X6478909Y3194939D01*
X6473550Y3182002D01*
Y3167998D01*
X6478909Y3155061D01*
X6488811Y3145159D01*
X6501748Y3139800D01*
X6515752D01*
X6528689Y3145159D01*
X6538591Y3155061D01*
X6543950Y3167998D01*
Y3182002D01*
X6538591Y3194939D01*
X6528689Y3204841D01*
X6515752Y3210200D01*
D02*
G37*
G36*
X6198252D02*
X6184248D01*
X6171311Y3204841D01*
X6161409Y3194939D01*
X6156050Y3182002D01*
Y3167998D01*
X6161409Y3155061D01*
X6171311Y3145159D01*
X6184248Y3139800D01*
X6198252D01*
X6211189Y3145159D01*
X6221091Y3155061D01*
X6226450Y3167998D01*
Y3182002D01*
X6221091Y3194939D01*
X6211189Y3204841D01*
X6198252Y3210200D01*
D02*
G37*
G36*
X5880752D02*
X5866748D01*
X5853811Y3204841D01*
X5843909Y3194939D01*
X5838550Y3182002D01*
Y3167998D01*
X5843909Y3155061D01*
X5853811Y3145159D01*
X5866748Y3139800D01*
X5880752D01*
X5893689Y3145159D01*
X5903591Y3155061D01*
X5908950Y3167998D01*
Y3182002D01*
X5903591Y3194939D01*
X5893689Y3204841D01*
X5880752Y3210200D01*
D02*
G37*
G36*
X6661802Y3207660D02*
X6647798D01*
X6634861Y3202301D01*
X6624959Y3192399D01*
X6619600Y3179462D01*
Y3165458D01*
X6624959Y3152521D01*
X6634861Y3142619D01*
X6647798Y3137260D01*
X6661802D01*
X6674739Y3142619D01*
X6684641Y3152521D01*
X6690000Y3165458D01*
Y3179462D01*
X6684641Y3192399D01*
X6674739Y3202301D01*
X6661802Y3207660D01*
D02*
G37*
G36*
X3835757Y3351877D02*
X3814110Y3347571D01*
X3795758Y3335309D01*
X3783496Y3316957D01*
X3782095Y3309913D01*
X3767668Y3295486D01*
X3756465Y3276083D01*
X3750667Y3254442D01*
Y3232037D01*
X3756465Y3210396D01*
X3767668Y3190993D01*
X3782095Y3176566D01*
X3783496Y3169523D01*
X3795758Y3151171D01*
X3814110Y3138909D01*
X3835757Y3134603D01*
X3857404Y3138909D01*
X3875756Y3151171D01*
X3884487Y3164239D01*
X3898244Y3161968D01*
X3899469Y3157397D01*
X3910671Y3137993D01*
X3926514Y3122151D01*
X3945917Y3110949D01*
X3967558Y3105150D01*
X3989963D01*
X4011604Y3110949D01*
X4031007Y3122151D01*
X4046849Y3137993D01*
X4058052Y3157397D01*
X4063850Y3179038D01*
Y3201442D01*
X4058052Y3223083D01*
X4046849Y3242487D01*
X4031007Y3258329D01*
X4011604Y3269531D01*
X3989963Y3275330D01*
X3967558D01*
X3945917Y3269531D01*
X3932091Y3261549D01*
X3918913Y3265753D01*
X3917428Y3267204D01*
X3915048Y3276083D01*
X3903846Y3295486D01*
X3889419Y3309913D01*
X3888018Y3316957D01*
X3875756Y3335309D01*
X3857404Y3347571D01*
X3835757Y3351877D01*
D02*
G37*
G36*
X5239174Y3484480D02*
X5200226D01*
X5162027Y3476882D01*
X5126045Y3461977D01*
X5093661Y3440339D01*
X5066121Y3412799D01*
X5044483Y3380415D01*
X5029578Y3344433D01*
X5021980Y3306234D01*
Y3267286D01*
X5029578Y3229087D01*
X5044483Y3193105D01*
X5066121Y3160721D01*
X5093661Y3133181D01*
X5126045Y3111543D01*
X5162027Y3096638D01*
X5200226Y3089040D01*
X5239174D01*
X5277373Y3096638D01*
X5313355Y3111543D01*
X5345739Y3133181D01*
X5373279Y3160721D01*
X5394917Y3193105D01*
X5409822Y3229087D01*
X5417420Y3267286D01*
Y3306234D01*
X5409822Y3344433D01*
X5394917Y3380415D01*
X5373279Y3412799D01*
X5345739Y3440339D01*
X5313355Y3461977D01*
X5277373Y3476882D01*
X5239174Y3484480D01*
D02*
G37*
G36*
X6357002Y2892700D02*
X6342998D01*
X6330061Y2887341D01*
X6320159Y2877439D01*
X6314800Y2864502D01*
Y2850498D01*
X6320159Y2837561D01*
X6330061Y2827659D01*
X6342998Y2822300D01*
X6357002D01*
X6369939Y2827659D01*
X6379841Y2837561D01*
X6385200Y2850498D01*
Y2864502D01*
X6379841Y2877439D01*
X6369939Y2887341D01*
X6357002Y2892700D01*
D02*
G37*
G36*
X6039502D02*
X6025498D01*
X6012561Y2887341D01*
X6002659Y2877439D01*
X5997300Y2864502D01*
Y2850498D01*
X6002659Y2837561D01*
X6012561Y2827659D01*
X6025498Y2822300D01*
X6039502D01*
X6052439Y2827659D01*
X6062341Y2837561D01*
X6067700Y2850498D01*
Y2864502D01*
X6062341Y2877439D01*
X6052439Y2887341D01*
X6039502Y2892700D01*
D02*
G37*
G36*
X5722002D02*
X5707998D01*
X5695061Y2887341D01*
X5685159Y2877439D01*
X5679800Y2864502D01*
Y2850498D01*
X5685159Y2837561D01*
X5695061Y2827659D01*
X5707998Y2822300D01*
X5722002D01*
X5734939Y2827659D01*
X5744841Y2837561D01*
X5750200Y2850498D01*
Y2864502D01*
X5744841Y2877439D01*
X5734939Y2887341D01*
X5722002Y2892700D01*
D02*
G37*
G36*
X5404502D02*
X5390498D01*
X5377561Y2887341D01*
X5367659Y2877439D01*
X5362300Y2864502D01*
Y2850498D01*
X5367659Y2837561D01*
X5377561Y2827659D01*
X5390498Y2822300D01*
X5404502D01*
X5417439Y2827659D01*
X5427341Y2837561D01*
X5432700Y2850498D01*
Y2864502D01*
X5427341Y2877439D01*
X5417439Y2887341D01*
X5404502Y2892700D01*
D02*
G37*
G36*
X5087002D02*
X5072998D01*
X5060061Y2887341D01*
X5050159Y2877439D01*
X5044800Y2864502D01*
Y2850498D01*
X5050159Y2837561D01*
X5060061Y2827659D01*
X5072998Y2822300D01*
X5087002D01*
X5099939Y2827659D01*
X5109841Y2837561D01*
X5115200Y2850498D01*
Y2864502D01*
X5109841Y2877439D01*
X5099939Y2887341D01*
X5087002Y2892700D01*
D02*
G37*
G36*
X3499502D02*
X3485498D01*
X3472561Y2887341D01*
X3462659Y2877439D01*
X3457300Y2864502D01*
Y2850498D01*
X3462659Y2837561D01*
X3472561Y2827659D01*
X3485498Y2822300D01*
X3499502D01*
X3512439Y2827659D01*
X3522341Y2837561D01*
X3527700Y2850498D01*
Y2864502D01*
X3522341Y2877439D01*
X3512439Y2887341D01*
X3499502Y2892700D01*
D02*
G37*
G36*
X3182002D02*
X3167998D01*
X3155061Y2887341D01*
X3145159Y2877439D01*
X3139800Y2864502D01*
Y2850498D01*
X3145159Y2837561D01*
X3155061Y2827659D01*
X3167998Y2822300D01*
X3182002D01*
X3194939Y2827659D01*
X3204841Y2837561D01*
X3210200Y2850498D01*
Y2864502D01*
X3204841Y2877439D01*
X3194939Y2887341D01*
X3182002Y2892700D01*
D02*
G37*
G36*
X4699760Y2912287D02*
X4689923Y2910330D01*
X4688558D01*
X4684626Y2909276D01*
X4678113Y2907981D01*
X4676990Y2907230D01*
X4666917Y2904531D01*
X4647514Y2893329D01*
X4631671Y2877486D01*
X4620469Y2858083D01*
X4614670Y2836442D01*
Y2814038D01*
X4620469Y2792396D01*
X4631671Y2772993D01*
X4647514Y2757151D01*
X4666917Y2745949D01*
X4676990Y2743250D01*
X4678113Y2742499D01*
X4684626Y2741204D01*
X4688558Y2740150D01*
X4689923D01*
X4699760Y2738193D01*
X4709598Y2740150D01*
X4710963D01*
X4714895Y2741204D01*
X4721407Y2742499D01*
X4722531Y2743250D01*
X4732604Y2745949D01*
X4752007Y2757151D01*
X4767849Y2772993D01*
X4779052Y2792396D01*
X4784850Y2814038D01*
Y2836442D01*
X4779052Y2858083D01*
X4767849Y2877486D01*
X4752007Y2893329D01*
X4732604Y2904531D01*
X4722531Y2907230D01*
X4721407Y2907981D01*
X4714895Y2909276D01*
X4710963Y2910330D01*
X4709598D01*
X4699760Y2912287D01*
D02*
G37*
G36*
X3835757D02*
X3825919Y2910330D01*
X3824554D01*
X3820623Y2909276D01*
X3814110Y2907981D01*
X3812986Y2907230D01*
X3802913Y2904531D01*
X3783510Y2893329D01*
X3767668Y2877486D01*
X3756465Y2858083D01*
X3750667Y2836442D01*
Y2814038D01*
X3756465Y2792396D01*
X3767668Y2772993D01*
X3783510Y2757151D01*
X3802913Y2745949D01*
X3812986Y2743250D01*
X3814110Y2742499D01*
X3820623Y2741204D01*
X3824554Y2740150D01*
X3825919D01*
X3835757Y2738193D01*
X3845595Y2740150D01*
X3846959D01*
X3850891Y2741204D01*
X3857404Y2742499D01*
X3858527Y2743250D01*
X3868600Y2745949D01*
X3888003Y2757151D01*
X3903846Y2772993D01*
X3915048Y2792396D01*
X3920847Y2814038D01*
Y2836442D01*
X3915048Y2858083D01*
X3903846Y2877486D01*
X3888003Y2893329D01*
X3868600Y2904531D01*
X3858527Y2907230D01*
X3857404Y2907981D01*
X3850891Y2909276D01*
X3846959Y2910330D01*
X3845595D01*
X3835757Y2912287D01*
D02*
G37*
%LPD*%
D37*
X5219700Y5636260D02*
D03*
Y3286760D02*
D03*
X2847340Y4556760D02*
D03*
Y3286760D02*
D03*
X3835757Y3243240D02*
D03*
D03*
Y2825240D02*
D03*
X4699760D02*
D03*
X4699763Y3243240D02*
D03*
X3978760Y3190240D02*
D03*
X4556760D02*
D03*
X4699760Y2825240D02*
D03*
X4699763Y3243240D02*
D03*
X3835757Y2825240D02*
D03*
D42*
X3016250Y3868691D02*
D03*
X2938780Y3733800D02*
D03*
X3092600Y3600133D02*
D03*
X6537960Y3627120D02*
D03*
X7053580Y4867190D02*
D03*
X7538720Y5245100D02*
D03*
X7315200Y4864100D02*
D03*
X6985000Y4762500D02*
D03*
X6667500D02*
D03*
X7315200Y4686300D02*
D03*
X4269740Y3568700D02*
D03*
X4286250Y3810000D02*
D03*
X3256280Y3312160D02*
D03*
X5150300Y4599120D02*
D03*
X5715000Y4762500D02*
D03*
X5397500D02*
D03*
X6032500D02*
D03*
X4762500D02*
D03*
X3261360Y3253380D02*
D03*
X3702568Y3617657D02*
D03*
Y3681157D02*
D03*
Y3551617D02*
D03*
X3585728Y3480497D02*
D03*
X3580648Y3551617D02*
D03*
X7655560Y5201920D02*
D03*
X7143750Y5715000D02*
D03*
X6840220Y3357880D02*
D03*
X6540500Y3383280D02*
D03*
X6668930Y3676490D02*
D03*
X6191250Y3175000D02*
D03*
X3204728Y3970717D02*
D03*
X3296168Y3891977D02*
D03*
X3689868Y3897057D02*
D03*
X3595888Y3912297D02*
D03*
X3451108Y3983417D02*
D03*
X3529848Y3935157D02*
D03*
X3400308Y3930077D02*
D03*
X3565881Y3752277D02*
D03*
X3636528Y3589717D02*
D03*
X3492500Y2857500D02*
D03*
X3707648Y3488117D02*
D03*
X3639068Y3518597D02*
D03*
X3175000Y2857500D02*
D03*
X6667500Y4127500D02*
D03*
X7759700Y5194300D02*
D03*
X7785100Y3721100D02*
D03*
X7670800D02*
D03*
X7556500D02*
D03*
X7366000D02*
D03*
X7315200Y4038600D02*
D03*
X7314221Y4229196D02*
D03*
X7315200Y4140200D02*
D03*
Y4318000D02*
D03*
Y4419600D02*
D03*
Y4508500D02*
D03*
Y4597400D02*
D03*
Y4775200D02*
D03*
X7620000Y6032500D02*
D03*
X7778750Y5715000D02*
D03*
X7620000Y5397500D02*
D03*
Y3492500D02*
D03*
X7778750Y3175000D02*
D03*
X7620000Y2857500D02*
D03*
X7302500Y6032500D02*
D03*
X7461250Y5715000D02*
D03*
X7302500Y3492500D02*
D03*
X7461250Y3175000D02*
D03*
X7302500Y2857500D02*
D03*
X6985000Y6032500D02*
D03*
Y5397500D02*
D03*
X7143750Y4445000D02*
D03*
X6985000Y4127500D02*
D03*
Y3492500D02*
D03*
X7143750Y3175000D02*
D03*
X6667500Y6032500D02*
D03*
X6826250Y5715000D02*
D03*
Y4445000D02*
D03*
Y3175000D02*
D03*
X6350000Y6032500D02*
D03*
Y3492500D02*
D03*
X6508750Y3175000D02*
D03*
X6350000Y2857500D02*
D03*
X6191250Y5715000D02*
D03*
X6032500Y5397500D02*
D03*
X6191250Y4445000D02*
D03*
Y3810000D02*
D03*
X6032500Y3492500D02*
D03*
Y2857500D02*
D03*
X5873750Y5715000D02*
D03*
X5715000Y5397500D02*
D03*
X5873750Y5080000D02*
D03*
Y4445000D02*
D03*
Y3810000D02*
D03*
X5715000Y3492500D02*
D03*
X5873750Y3175000D02*
D03*
X5715000Y2857500D02*
D03*
X5556250Y4445000D02*
D03*
X5397500Y4127500D02*
D03*
X5556250Y3810000D02*
D03*
X5397500Y2857500D02*
D03*
X5238750Y5080000D02*
D03*
Y4445000D02*
D03*
Y3810000D02*
D03*
X5080000Y2857500D02*
D03*
X4762500Y5397500D02*
D03*
X4921250Y5080000D02*
D03*
X4762500Y4127500D02*
D03*
Y3492500D02*
D03*
X4603750Y5715000D02*
D03*
X4445000Y5397500D02*
D03*
X4603750Y5080000D02*
D03*
X4445000Y4762500D02*
D03*
X4603750Y4445000D02*
D03*
X4445000Y4127500D02*
D03*
X4603750Y3810000D02*
D03*
X4286250Y5715000D02*
D03*
X4127500Y5397500D02*
D03*
X4286250Y5080000D02*
D03*
X4127500Y4762500D02*
D03*
Y4127500D02*
D03*
X3968750Y5715000D02*
D03*
X3810000Y5397500D02*
D03*
X3968750Y5080000D02*
D03*
X3810000Y4762500D02*
D03*
X3968750Y4445000D02*
D03*
X3810000Y4127500D02*
D03*
X3968750Y3810000D02*
D03*
X3492500Y5397500D02*
D03*
Y4762500D02*
D03*
X3651250Y4445000D02*
D03*
X3492500Y4127500D02*
D03*
X3333750Y5080000D02*
D03*
X3175000Y4762500D02*
D03*
X3333750Y4445000D02*
D03*
X3175000Y4127500D02*
D03*
X2857500Y5397500D02*
D03*
X3016250Y5080000D02*
D03*
X2857500Y4762500D02*
D03*
X3016250Y4445000D02*
D03*
X2857500Y4127500D02*
D03*
X2870200Y5511800D02*
D03*
X3187700Y5956771D02*
D03*
X3153336Y5910421D02*
D03*
X3494130Y6008010D02*
D03*
X7118000Y5492400D02*
D03*
X6177800Y4807700D02*
D03*
X6223000Y4711700D02*
D03*
X5405760Y4307200D02*
D03*
X4833620Y4216400D02*
D03*
X4837060Y4431400D02*
D03*
X3728720Y5778500D02*
D03*
X3081020Y5524500D02*
D03*
X3175000D02*
D03*
X6553900Y5193600D02*
D03*
X6953900Y3728100D02*
D03*
X7213600Y3175000D02*
D03*
X6934200Y3177540D02*
D03*
X6654800Y3172460D02*
D03*
X4983480Y4884420D02*
D03*
X5044440Y5002660D02*
D03*
X5383300Y4941800D02*
D03*
X5399400Y4227200D02*
D03*
X5262260Y4147200D02*
D03*
X7253900Y3723300D02*
D03*
X7153900Y3724900D02*
D03*
X7053900Y3726500D02*
D03*
X6241300Y4107700D02*
D03*
X6853900Y5198400D02*
D03*
X6953900Y5200000D02*
D03*
X7353900Y5284100D02*
D03*
X7253900Y5199600D02*
D03*
D43*
X3835757Y3188630D02*
Y3243240D01*
X4699760Y2796030D02*
Y2825240D01*
X4699763Y3188630D02*
Y3243240D01*
X3835757Y2796030D02*
Y2825240D01*
%TF.MD5,7460a008132aae10f3985b5fd0eb40f2*%
M02*
