%TF.GenerationSoftware,Altium Limited,Altium Designer,23.6.0 (18)*%
G04 Layer_Color=8421504*
%FSLAX45Y45*%
%MOMM*%
%TF.SameCoordinates,DCE0C1D5-9975-4D98-BEBD-45AE40CD8FD9*%
%TF.FilePolarity,Positive*%
%TF.FileFunction,Paste,Top*%
%TF.Part,Single*%
G01*
G75*
%TA.AperFunction,SMDPad,CuDef*%
%ADD10R,0.60000X0.75000*%
%ADD11R,0.60000X0.64000*%
%ADD12R,0.64000X0.60000*%
%ADD13R,0.75000X0.60000*%
%ADD14R,0.20320X0.86360*%
%ADD15R,0.86360X0.20320*%
%ADD16R,0.65000X1.60000*%
%ADD17R,0.30000X0.67000*%
%ADD18R,0.60960X1.44780*%
%ADD19R,0.30480X1.44780*%
%ADD20R,1.60000X0.20000*%
%ADD21R,0.25000X0.30000*%
%ADD22R,0.60000X2.40000*%
%TA.AperFunction,SMDPad,SMDef*%
%ADD23R,0.65000X1.45000*%
%ADD24R,0.70000X0.27000*%
%TA.AperFunction,BGAPad,CuDef*%
%ADD25R,0.40000X0.40000*%
%TA.AperFunction,SMDPad,CuDef*%
%ADD26R,1.40000X0.75000*%
%ADD27R,2.40000X0.60000*%
%ADD28R,0.75000X2.40000*%
D10*
X2799080Y3636360D02*
D03*
Y3521360D02*
D03*
X6654800Y2807400D02*
D03*
Y2692400D02*
D03*
Y2962560D02*
D03*
Y3077560D02*
D03*
X6934200Y2806700D02*
D03*
Y2691700D02*
D03*
Y2960020D02*
D03*
Y3075020D02*
D03*
X7213600Y2807400D02*
D03*
Y2692400D02*
D03*
Y2961640D02*
D03*
Y3076640D02*
D03*
D11*
X3120760Y3012440D02*
D03*
X3032760D02*
D03*
X5150300Y4686300D02*
D03*
X5238300D02*
D03*
D12*
X6758940Y3447600D02*
D03*
Y3359600D02*
D03*
X3606800Y3329120D02*
D03*
Y3417120D02*
D03*
X3164840Y3636460D02*
D03*
Y3724460D02*
D03*
X4927600Y4431400D02*
D03*
Y4343400D02*
D03*
Y4216400D02*
D03*
Y4128400D02*
D03*
D13*
X3146140Y3390900D02*
D03*
X3031140D02*
D03*
X3146140Y3237185D02*
D03*
X3135980Y3126740D02*
D03*
X3031140Y3237185D02*
D03*
X3020980Y3126740D02*
D03*
X7060500Y5270500D02*
D03*
X7175500D02*
D03*
X7118000Y5397500D02*
D03*
X7233000D02*
D03*
D14*
X3398520Y3844290D02*
D03*
Y3658870D02*
D03*
D15*
X3475990Y3831580D02*
D03*
Y3791580D02*
D03*
Y3751580D02*
D03*
Y3711580D02*
D03*
Y3671580D02*
D03*
X3321050D02*
D03*
Y3711580D02*
D03*
Y3751580D02*
D03*
Y3791580D02*
D03*
Y3831580D02*
D03*
D16*
X3333560Y3454400D02*
D03*
X3468560D02*
D03*
D17*
X3061565Y3649188D02*
D03*
X3011565D02*
D03*
X2961565D02*
D03*
X2911565D02*
D03*
Y3501187D02*
D03*
X2961565D02*
D03*
X3011565D02*
D03*
X3061565D02*
D03*
D18*
X3942741Y3334840D02*
D03*
X4022766D02*
D03*
X4512754D02*
D03*
X4592779D02*
D03*
D19*
X4192741D02*
D03*
X4242754D02*
D03*
X4292766D02*
D03*
X4342779D02*
D03*
X4092741D02*
D03*
X4142754D02*
D03*
X4442779D02*
D03*
X4392766D02*
D03*
D20*
X6564283Y3449680D02*
D03*
D21*
X6639283Y3329680D02*
D03*
X6589283D02*
D03*
X6539283D02*
D03*
X6489283D02*
D03*
Y3569680D02*
D03*
X6539283D02*
D03*
X6589283D02*
D03*
X6639283D02*
D03*
D22*
X6553900Y3892700D02*
D03*
X6753900D02*
D03*
X6853900D02*
D03*
X6653900D02*
D03*
X7653900Y5022700D02*
D03*
X7753900Y3892700D02*
D03*
X7653900D02*
D03*
X7553900D02*
D03*
X7453900D02*
D03*
X7353900D02*
D03*
X7253900D02*
D03*
X7153900D02*
D03*
X7053900D02*
D03*
X6953900D02*
D03*
X6453900D02*
D03*
Y5022700D02*
D03*
X6553900D02*
D03*
X6653900D02*
D03*
X6753900D02*
D03*
X6853900D02*
D03*
X6953900D02*
D03*
X7053900D02*
D03*
X7153900D02*
D03*
X7253900D02*
D03*
X7353900D02*
D03*
X7453900D02*
D03*
X7553900D02*
D03*
X7753900D02*
D03*
D23*
X5194300Y4876800D02*
D03*
D24*
X5283300Y4941800D02*
D03*
Y4876800D02*
D03*
Y4811800D02*
D03*
X5105300D02*
D03*
Y4876800D02*
D03*
Y4941800D02*
D03*
D25*
X5327000Y4387200D02*
D03*
Y4307200D02*
D03*
Y4227200D02*
D03*
Y4147200D02*
D03*
X5087000D02*
D03*
Y4227200D02*
D03*
Y4307200D02*
D03*
Y4387200D02*
D03*
D26*
X6096000Y4182000D02*
D03*
Y4327000D02*
D03*
D27*
X6403900Y4107700D02*
D03*
Y4207700D02*
D03*
Y4307700D02*
D03*
Y4407700D02*
D03*
Y4507700D02*
D03*
Y4607700D02*
D03*
Y4707700D02*
D03*
Y4807700D02*
D03*
D28*
X2870200Y5710500D02*
D03*
X2997200D02*
D03*
X3124200D02*
D03*
X3251200D02*
D03*
X3378200D02*
D03*
X2870200Y6100500D02*
D03*
X2997200D02*
D03*
X3124200D02*
D03*
X3251200D02*
D03*
X3378200D02*
D03*
%TF.MD5,8ce20a746b4492f4e561a2672dee0677*%
M02*
