%TF.GenerationSoftware,Altium Limited,Altium Designer,23.6.0 (18)*%
G04 Layer_Physical_Order=5*
G04 Layer_Color=16737945*
%FSLAX45Y45*%
%MOMM*%
%TF.SameCoordinates,DCE0C1D5-9975-4D98-BEBD-45AE40CD8FD9*%
%TF.FilePolarity,Positive*%
%TF.FileFunction,Copper,L5,Inr,Signal*%
%TF.Part,Single*%
G01*
G75*
%TA.AperFunction,ComponentPad*%
%ADD37C,1.52400*%
%TA.AperFunction,ViaPad*%
%ADD42C,0.45000*%
%TA.AperFunction,NonConductor*%
%ADD43C,0.60960*%
G36*
X7828209Y4890991D02*
X7337096D01*
Y4010896D01*
X7828209D01*
Y2560391D01*
X2687391D01*
Y6355009D01*
X7828209D01*
Y4890991D01*
D02*
G37*
%LPC*%
G36*
X3501132Y6043210D02*
X3487128D01*
X3474191Y6037851D01*
X3464289Y6027949D01*
X3458930Y6015012D01*
Y6001008D01*
X3464289Y5988071D01*
X3474191Y5978169D01*
X3487128Y5972810D01*
X3501132D01*
X3514069Y5978169D01*
X3523971Y5988071D01*
X3529330Y6001008D01*
Y6015012D01*
X3523971Y6027949D01*
X3514069Y6037851D01*
X3501132Y6043210D01*
D02*
G37*
G36*
X3194702Y5991971D02*
X3180698D01*
X3167761Y5986612D01*
X3157859Y5976710D01*
X3152500Y5963773D01*
Y5949770D01*
X3149728Y5945621D01*
X3146334D01*
X3133397Y5940262D01*
X3123495Y5930360D01*
X3118136Y5917423D01*
Y5903419D01*
X3123495Y5890482D01*
X3133397Y5880580D01*
X3146334Y5875221D01*
X3160337D01*
X3173275Y5880580D01*
X3183177Y5890482D01*
X3188535Y5903419D01*
Y5917422D01*
X3191308Y5921572D01*
X3194702D01*
X3207639Y5926930D01*
X3217541Y5936832D01*
X3222900Y5949770D01*
Y5963773D01*
X3217541Y5976710D01*
X3207639Y5986612D01*
X3194702Y5991971D01*
D02*
G37*
G36*
X3735722Y5813700D02*
X3721718D01*
X3708781Y5808341D01*
X3698879Y5798439D01*
X3693520Y5785502D01*
Y5771498D01*
X3698879Y5758561D01*
X3708781Y5748659D01*
X3721718Y5743300D01*
X3735722D01*
X3748659Y5748659D01*
X3758561Y5758561D01*
X3763920Y5771498D01*
Y5785502D01*
X3758561Y5798439D01*
X3748659Y5808341D01*
X3735722Y5813700D01*
D02*
G37*
G36*
X3182002Y5559700D02*
X3167998D01*
X3155061Y5554341D01*
X3145159Y5544439D01*
X3139800Y5531502D01*
Y5517498D01*
X3145159Y5504561D01*
X3155061Y5494659D01*
X3167998Y5489300D01*
X3182002D01*
X3194939Y5494659D01*
X3204841Y5504561D01*
X3210200Y5517498D01*
Y5531502D01*
X3204841Y5544439D01*
X3194939Y5554341D01*
X3182002Y5559700D01*
D02*
G37*
G36*
X3088022D02*
X3074018D01*
X3061081Y5554341D01*
X3051179Y5544439D01*
X3045820Y5531502D01*
Y5517498D01*
X3051179Y5504561D01*
X3061081Y5494659D01*
X3074018Y5489300D01*
X3088022D01*
X3100959Y5494659D01*
X3110861Y5504561D01*
X3116220Y5517498D01*
Y5531502D01*
X3110861Y5544439D01*
X3100959Y5554341D01*
X3088022Y5559700D01*
D02*
G37*
G36*
X2877202Y5547000D02*
X2863198D01*
X2850261Y5541641D01*
X2840359Y5531739D01*
X2835000Y5518802D01*
Y5504798D01*
X2840359Y5491861D01*
X2850261Y5481959D01*
X2863198Y5476600D01*
X2877202D01*
X2890139Y5481959D01*
X2900041Y5491861D01*
X2905400Y5504798D01*
Y5518802D01*
X2900041Y5531739D01*
X2890139Y5541641D01*
X2877202Y5547000D01*
D02*
G37*
G36*
X7125002Y5527600D02*
X7110998D01*
X7098061Y5522241D01*
X7088159Y5512339D01*
X7082800Y5499402D01*
Y5485398D01*
X7088159Y5472461D01*
X7098061Y5462559D01*
X7110998Y5457200D01*
X7125002D01*
X7137939Y5462559D01*
X7147841Y5472461D01*
X7153200Y5485398D01*
Y5499402D01*
X7147841Y5512339D01*
X7137939Y5522241D01*
X7125002Y5527600D01*
D02*
G37*
G36*
X5239174Y5833980D02*
X5200226D01*
X5162027Y5826382D01*
X5126045Y5811477D01*
X5093661Y5789839D01*
X5066121Y5762299D01*
X5044483Y5729915D01*
X5029578Y5693933D01*
X5021980Y5655734D01*
Y5616786D01*
X5029578Y5578587D01*
X5044483Y5542605D01*
X5066121Y5510221D01*
X5093661Y5482681D01*
X5126045Y5461043D01*
X5162027Y5446138D01*
X5200226Y5438540D01*
X5239174D01*
X5277373Y5446138D01*
X5313355Y5461043D01*
X5345739Y5482681D01*
X5373279Y5510221D01*
X5394917Y5542605D01*
X5409822Y5578587D01*
X5417420Y5616786D01*
Y5655734D01*
X5409822Y5693933D01*
X5394917Y5729915D01*
X5373279Y5762299D01*
X5345739Y5789839D01*
X5313355Y5811477D01*
X5277373Y5826382D01*
X5239174Y5833980D01*
D02*
G37*
G36*
X7360902Y5319300D02*
X7346898D01*
X7333961Y5313941D01*
X7324059Y5304039D01*
X7318700Y5291102D01*
Y5277098D01*
X7324059Y5264161D01*
X7333961Y5254259D01*
X7346898Y5248900D01*
X7360902D01*
X7373839Y5254259D01*
X7383741Y5264161D01*
X7389100Y5277098D01*
Y5291102D01*
X7383741Y5304039D01*
X7373839Y5313941D01*
X7360902Y5319300D01*
D02*
G37*
G36*
X7545722Y5280300D02*
X7531718D01*
X7518781Y5274941D01*
X7508879Y5265039D01*
X7503520Y5252102D01*
Y5238098D01*
X7508879Y5225161D01*
X7518781Y5215259D01*
X7531718Y5209900D01*
X7545722D01*
X7558659Y5215259D01*
X7568561Y5225161D01*
X7573920Y5238098D01*
Y5252102D01*
X7568561Y5265039D01*
X7558659Y5274941D01*
X7545722Y5280300D01*
D02*
G37*
G36*
X7662562Y5237120D02*
X7648558D01*
X7635621Y5231761D01*
X7625719Y5221859D01*
X7620360Y5208922D01*
Y5194918D01*
X7625719Y5181981D01*
X7635621Y5172079D01*
X7648558Y5166720D01*
X7662562D01*
X7675499Y5172079D01*
X7685401Y5181981D01*
X7690760Y5194918D01*
Y5208922D01*
X7685401Y5221859D01*
X7675499Y5231761D01*
X7662562Y5237120D01*
D02*
G37*
G36*
X6960902Y5235200D02*
X6946898D01*
X6933961Y5229841D01*
X6924059Y5219939D01*
X6918700Y5207002D01*
Y5192998D01*
X6924059Y5180061D01*
X6933961Y5170159D01*
X6946898Y5164800D01*
X6960902D01*
X6973839Y5170159D01*
X6983741Y5180061D01*
X6989100Y5192998D01*
Y5207002D01*
X6983741Y5219939D01*
X6973839Y5229841D01*
X6960902Y5235200D01*
D02*
G37*
G36*
X7260902Y5234800D02*
X7246898D01*
X7233961Y5229441D01*
X7224059Y5219539D01*
X7218700Y5206602D01*
Y5192598D01*
X7224059Y5179661D01*
X7233961Y5169759D01*
X7246898Y5164400D01*
X7260902D01*
X7273839Y5169759D01*
X7283741Y5179661D01*
X7289100Y5192598D01*
Y5206602D01*
X7283741Y5219539D01*
X7273839Y5229441D01*
X7260902Y5234800D01*
D02*
G37*
G36*
X6860902Y5233600D02*
X6846898D01*
X6833961Y5228241D01*
X6824059Y5218339D01*
X6818700Y5205402D01*
Y5191398D01*
X6824059Y5178461D01*
X6833961Y5168559D01*
X6846898Y5163200D01*
X6860902D01*
X6873839Y5168559D01*
X6883741Y5178461D01*
X6889100Y5191398D01*
Y5205402D01*
X6883741Y5218339D01*
X6873839Y5228241D01*
X6860902Y5233600D01*
D02*
G37*
G36*
X6560902Y5228800D02*
X6546898D01*
X6533961Y5223441D01*
X6524059Y5213539D01*
X6518700Y5200602D01*
Y5186598D01*
X6524059Y5173661D01*
X6533961Y5163759D01*
X6546898Y5158400D01*
X6560902D01*
X6573839Y5163759D01*
X6583741Y5173661D01*
X6589100Y5186598D01*
Y5200602D01*
X6583741Y5213539D01*
X6573839Y5223441D01*
X6560902Y5228800D01*
D02*
G37*
G36*
X5051442Y5037860D02*
X5037438D01*
X5024501Y5032501D01*
X5014599Y5022599D01*
X5009240Y5009662D01*
Y4995658D01*
X5014599Y4982721D01*
X5024501Y4972819D01*
X5037438Y4967460D01*
X5051442D01*
X5064379Y4972819D01*
X5074281Y4982721D01*
X5079640Y4995658D01*
Y5009662D01*
X5074281Y5022599D01*
X5064379Y5032501D01*
X5051442Y5037860D01*
D02*
G37*
G36*
X5390302Y4977000D02*
X5376298D01*
X5363361Y4971641D01*
X5353459Y4961739D01*
X5348100Y4948802D01*
Y4934798D01*
X5353459Y4921861D01*
X5363361Y4911959D01*
X5376298Y4906600D01*
X5390302D01*
X5403239Y4911959D01*
X5413141Y4921861D01*
X5418500Y4934798D01*
Y4948802D01*
X5413141Y4961739D01*
X5403239Y4971641D01*
X5390302Y4977000D01*
D02*
G37*
G36*
X4990482Y4919620D02*
X4976478D01*
X4963541Y4914261D01*
X4953639Y4904359D01*
X4948280Y4891422D01*
Y4877418D01*
X4953639Y4864481D01*
X4963541Y4854579D01*
X4976478Y4849220D01*
X4990482D01*
X5003419Y4854579D01*
X5013321Y4864481D01*
X5018680Y4877418D01*
Y4891422D01*
X5013321Y4904359D01*
X5003419Y4914261D01*
X4990482Y4919620D01*
D02*
G37*
G36*
X7060582Y4902390D02*
X7046578D01*
X7033641Y4897031D01*
X7023739Y4887129D01*
X7018380Y4874192D01*
Y4860188D01*
X7023739Y4847251D01*
X7033641Y4837349D01*
X7046578Y4831990D01*
X7060582D01*
X7073519Y4837349D01*
X7083421Y4847251D01*
X7088780Y4860188D01*
Y4874192D01*
X7083421Y4887129D01*
X7073519Y4897031D01*
X7060582Y4902390D01*
D02*
G37*
G36*
X6184802Y4842900D02*
X6170798D01*
X6157861Y4837541D01*
X6147959Y4827639D01*
X6142600Y4814702D01*
Y4800698D01*
X6147959Y4787761D01*
X6157861Y4777859D01*
X6170798Y4772500D01*
X6184802D01*
X6197739Y4777859D01*
X6207641Y4787761D01*
X6213000Y4800698D01*
Y4814702D01*
X6207641Y4827639D01*
X6197739Y4837541D01*
X6184802Y4842900D01*
D02*
G37*
G36*
X6230002Y4746900D02*
X6215998D01*
X6203061Y4741541D01*
X6193159Y4731639D01*
X6187800Y4718702D01*
Y4704698D01*
X6193159Y4691761D01*
X6203061Y4681859D01*
X6215998Y4676500D01*
X6230002D01*
X6242939Y4681859D01*
X6252841Y4691761D01*
X6258200Y4704698D01*
Y4718702D01*
X6252841Y4731639D01*
X6242939Y4741541D01*
X6230002Y4746900D01*
D02*
G37*
G36*
X5157302Y4634320D02*
X5143298D01*
X5130361Y4628961D01*
X5120459Y4619059D01*
X5115100Y4606122D01*
Y4592118D01*
X5120459Y4579181D01*
X5130361Y4569279D01*
X5143298Y4563920D01*
X5157302D01*
X5170239Y4569279D01*
X5180141Y4579181D01*
X5185500Y4592118D01*
Y4606122D01*
X5180141Y4619059D01*
X5170239Y4628961D01*
X5157302Y4634320D01*
D02*
G37*
G36*
X4844062Y4466600D02*
X4830058D01*
X4817121Y4461241D01*
X4807219Y4451339D01*
X4801860Y4438402D01*
Y4424398D01*
X4807219Y4411461D01*
X4817121Y4401559D01*
X4830058Y4396200D01*
X4844062D01*
X4856999Y4401559D01*
X4866901Y4411461D01*
X4872260Y4424398D01*
Y4438402D01*
X4866901Y4451339D01*
X4856999Y4461241D01*
X4844062Y4466600D01*
D02*
G37*
G36*
X5412762Y4342400D02*
X5398758D01*
X5385821Y4337041D01*
X5375919Y4327139D01*
X5370560Y4314202D01*
Y4300198D01*
X5375919Y4287261D01*
X5385821Y4277359D01*
X5391836Y4274867D01*
X5392141Y4268096D01*
X5390573Y4261644D01*
X5379461Y4257041D01*
X5369559Y4247139D01*
X5364200Y4234202D01*
Y4220198D01*
X5369559Y4207261D01*
X5379461Y4197359D01*
X5392398Y4192000D01*
X5406402D01*
X5419339Y4197359D01*
X5429241Y4207261D01*
X5434600Y4220198D01*
Y4234202D01*
X5429241Y4247139D01*
X5419339Y4257041D01*
X5413324Y4259533D01*
X5413019Y4266304D01*
X5414587Y4272756D01*
X5425699Y4277359D01*
X5435601Y4287261D01*
X5440960Y4300198D01*
Y4314202D01*
X5435601Y4327139D01*
X5425699Y4337041D01*
X5412762Y4342400D01*
D02*
G37*
G36*
X4840622Y4251600D02*
X4826618D01*
X4813681Y4246241D01*
X4803779Y4236339D01*
X4798420Y4223402D01*
Y4209398D01*
X4803779Y4196461D01*
X4813681Y4186559D01*
X4826618Y4181200D01*
X4840622D01*
X4853559Y4186559D01*
X4863461Y4196461D01*
X4868820Y4209398D01*
Y4223402D01*
X4863461Y4236339D01*
X4853559Y4246241D01*
X4840622Y4251600D01*
D02*
G37*
G36*
X5269262Y4182400D02*
X5255258D01*
X5242321Y4177041D01*
X5232419Y4167139D01*
X5227060Y4154202D01*
Y4140198D01*
X5232419Y4127261D01*
X5242321Y4117359D01*
X5255258Y4112000D01*
X5269262D01*
X5282199Y4117359D01*
X5292101Y4127261D01*
X5297460Y4140198D01*
Y4154202D01*
X5292101Y4167139D01*
X5282199Y4177041D01*
X5269262Y4182400D01*
D02*
G37*
G36*
X6248302Y4142900D02*
X6234298D01*
X6221361Y4137541D01*
X6211459Y4127639D01*
X6206100Y4114702D01*
Y4100698D01*
X6211459Y4087761D01*
X6221361Y4077859D01*
X6234298Y4072500D01*
X6248302D01*
X6261239Y4077859D01*
X6271141Y4087761D01*
X6276500Y4100698D01*
Y4114702D01*
X6271141Y4127639D01*
X6261239Y4137541D01*
X6248302Y4142900D01*
D02*
G37*
G36*
X3407309Y3965277D02*
X3393306D01*
X3380369Y3959918D01*
X3370467Y3950016D01*
X3365108Y3937078D01*
Y3923075D01*
X3370467Y3910138D01*
X3380369Y3900236D01*
X3393306Y3894877D01*
X3407309D01*
X3420247Y3900236D01*
X3430149Y3910138D01*
X3435507Y3923075D01*
Y3937078D01*
X3430149Y3950016D01*
X3420247Y3959918D01*
X3407309Y3965277D01*
D02*
G37*
G36*
X3572883Y3787477D02*
X3558879D01*
X3545942Y3782118D01*
X3536040Y3772216D01*
X3530681Y3759278D01*
Y3745275D01*
X3536040Y3732338D01*
X3545942Y3722436D01*
X3558879Y3717077D01*
X3572883D01*
X3585820Y3722436D01*
X3595722Y3732338D01*
X3601081Y3745275D01*
Y3759278D01*
X3595722Y3772216D01*
X3585820Y3782118D01*
X3572883Y3787477D01*
D02*
G37*
G36*
X2945782Y3769000D02*
X2931778D01*
X2918841Y3763641D01*
X2908939Y3753739D01*
X2903580Y3740802D01*
Y3726798D01*
X2908939Y3713861D01*
X2918841Y3703959D01*
X2931778Y3698600D01*
X2945782D01*
X2958719Y3703959D01*
X2968621Y3713861D01*
X2973980Y3726798D01*
Y3740802D01*
X2968621Y3753739D01*
X2958719Y3763641D01*
X2945782Y3769000D01*
D02*
G37*
G36*
X6960902Y3763300D02*
X6946898D01*
X6933961Y3757941D01*
X6924059Y3748039D01*
X6918700Y3735102D01*
Y3721098D01*
X6924059Y3708161D01*
X6933961Y3698259D01*
X6946898Y3692900D01*
X6960902D01*
X6973839Y3698259D01*
X6983741Y3708161D01*
X6989100Y3721098D01*
Y3735102D01*
X6983741Y3748039D01*
X6973839Y3757941D01*
X6960902Y3763300D01*
D02*
G37*
G36*
X7060902Y3761700D02*
X7046898D01*
X7033961Y3756341D01*
X7024059Y3746439D01*
X7018700Y3733502D01*
Y3719498D01*
X7024059Y3706561D01*
X7033961Y3696659D01*
X7046898Y3691300D01*
X7060902D01*
X7073839Y3696659D01*
X7083741Y3706561D01*
X7089100Y3719498D01*
Y3733502D01*
X7083741Y3746439D01*
X7073839Y3756341D01*
X7060902Y3761700D01*
D02*
G37*
G36*
X7160902Y3760100D02*
X7146898D01*
X7133961Y3754741D01*
X7124059Y3744839D01*
X7118700Y3731902D01*
Y3717898D01*
X7124059Y3704961D01*
X7133961Y3695059D01*
X7146898Y3689700D01*
X7160902D01*
X7173839Y3695059D01*
X7183741Y3704961D01*
X7189100Y3717898D01*
Y3731902D01*
X7183741Y3744839D01*
X7173839Y3754741D01*
X7160902Y3760100D01*
D02*
G37*
G36*
X7260902Y3758500D02*
X7246898D01*
X7233961Y3753141D01*
X7224059Y3743239D01*
X7218700Y3730302D01*
Y3716298D01*
X7224059Y3703361D01*
X7233961Y3693459D01*
X7246898Y3688100D01*
X7260902D01*
X7273839Y3693459D01*
X7283741Y3703361D01*
X7289100Y3716298D01*
Y3730302D01*
X7283741Y3743239D01*
X7273839Y3753141D01*
X7260902Y3758500D01*
D02*
G37*
G36*
X6675931Y3711690D02*
X6661928D01*
X6648991Y3706331D01*
X6639089Y3696429D01*
X6633730Y3683492D01*
Y3669488D01*
X6639089Y3656551D01*
X6648991Y3646649D01*
X6661928Y3641290D01*
X6675931D01*
X6688869Y3646649D01*
X6698770Y3656551D01*
X6704129Y3669488D01*
Y3683492D01*
X6698770Y3696429D01*
X6688869Y3706331D01*
X6675931Y3711690D01*
D02*
G37*
G36*
X3709569Y3716357D02*
X3695566D01*
X3682629Y3710998D01*
X3672727Y3701096D01*
X3667368Y3688158D01*
Y3674155D01*
X3672727Y3661218D01*
X3676241Y3657703D01*
X3681434Y3649407D01*
X3676241Y3641110D01*
X3672727Y3637596D01*
X3667942Y3626044D01*
X3662595Y3623022D01*
X3654668Y3620303D01*
X3643529Y3624917D01*
X3629526D01*
X3616589Y3619558D01*
X3606687Y3609656D01*
X3601328Y3596718D01*
Y3594897D01*
X3588628Y3586411D01*
X3587649Y3586817D01*
X3573646D01*
X3560709Y3581458D01*
X3550807Y3571556D01*
X3545448Y3558618D01*
Y3544615D01*
X3550807Y3531678D01*
X3560708Y3521776D01*
X3561872Y3519156D01*
X3562669Y3507218D01*
X3555887Y3500436D01*
X3550528Y3487498D01*
Y3473495D01*
X3555887Y3460558D01*
X3565789Y3450656D01*
X3578726Y3445297D01*
X3592729D01*
X3605667Y3450656D01*
X3615569Y3460558D01*
X3620927Y3473495D01*
Y3474264D01*
X3632066Y3483397D01*
X3646069D01*
X3659007Y3488756D01*
X3659748Y3489497D01*
X3672448Y3484236D01*
Y3481115D01*
X3677807Y3468178D01*
X3687709Y3458276D01*
X3700646Y3452917D01*
X3714649D01*
X3727587Y3458276D01*
X3737489Y3468178D01*
X3742847Y3481115D01*
Y3495118D01*
X3737489Y3508056D01*
X3727587Y3517957D01*
X3731015Y3530284D01*
X3732409Y3531678D01*
X3737767Y3544615D01*
Y3558618D01*
X3732409Y3571556D01*
X3727624Y3576340D01*
X3723924Y3584637D01*
X3727624Y3592934D01*
X3732409Y3597718D01*
X3737767Y3610655D01*
Y3624658D01*
X3732409Y3637596D01*
X3728894Y3641110D01*
X3723702Y3649407D01*
X3728894Y3657703D01*
X3732409Y3661218D01*
X3737767Y3674155D01*
Y3688158D01*
X3732409Y3701096D01*
X3722507Y3710998D01*
X3709569Y3716357D01*
D02*
G37*
G36*
X6544962Y3662320D02*
X6530958D01*
X6518021Y3656961D01*
X6508119Y3647059D01*
X6502760Y3634122D01*
Y3620118D01*
X6508119Y3607181D01*
X6518021Y3597279D01*
X6530958Y3591920D01*
X6544962D01*
X6557899Y3597279D01*
X6567801Y3607181D01*
X6573160Y3620118D01*
Y3634122D01*
X6567801Y3647059D01*
X6557899Y3656961D01*
X6544962Y3662320D01*
D02*
G37*
G36*
X4276742Y3603900D02*
X4262738D01*
X4249801Y3598541D01*
X4239899Y3588639D01*
X4234540Y3575702D01*
Y3561698D01*
X4239899Y3548761D01*
X4249801Y3538859D01*
X4262738Y3533500D01*
X4276742D01*
X4289679Y3538859D01*
X4299581Y3548761D01*
X4304940Y3561698D01*
Y3575702D01*
X4299581Y3588639D01*
X4289679Y3598541D01*
X4276742Y3603900D01*
D02*
G37*
G36*
X6547502Y3418480D02*
X6533498D01*
X6520561Y3413121D01*
X6510659Y3403219D01*
X6505300Y3390282D01*
Y3376278D01*
X6510659Y3363341D01*
X6520561Y3353439D01*
X6533498Y3348080D01*
X6547502D01*
X6560439Y3353439D01*
X6570341Y3363341D01*
X6575700Y3376278D01*
Y3390282D01*
X6570341Y3403219D01*
X6560439Y3413121D01*
X6547502Y3418480D01*
D02*
G37*
G36*
X6847222Y3393080D02*
X6833218D01*
X6820281Y3387721D01*
X6810379Y3377819D01*
X6805020Y3364882D01*
Y3350878D01*
X6810379Y3337941D01*
X6820281Y3328039D01*
X6833218Y3322680D01*
X6847222D01*
X6860159Y3328039D01*
X6870061Y3337941D01*
X6875420Y3350878D01*
Y3364882D01*
X6870061Y3377819D01*
X6860159Y3387721D01*
X6847222Y3393080D01*
D02*
G37*
G36*
X4699763Y3351877D02*
X4678116Y3347571D01*
X4659764Y3335309D01*
X4647502Y3316957D01*
X4646101Y3309913D01*
X4631674Y3295486D01*
X4620472Y3276083D01*
X4618093Y3267204D01*
X4616607Y3265753D01*
X4603429Y3261549D01*
X4589603Y3269531D01*
X4567962Y3275330D01*
X4545558D01*
X4523917Y3269531D01*
X4504513Y3258329D01*
X4488671Y3242487D01*
X4477469Y3223083D01*
X4471670Y3201442D01*
Y3179038D01*
X4477469Y3157397D01*
X4488671Y3137993D01*
X4504513Y3122151D01*
X4523917Y3110949D01*
X4545558Y3105150D01*
X4567962D01*
X4589603Y3110949D01*
X4609007Y3122151D01*
X4624849Y3137993D01*
X4636051Y3157397D01*
X4637276Y3161968D01*
X4651033Y3164239D01*
X4659764Y3151171D01*
X4678116Y3138909D01*
X4699763Y3134603D01*
X4721410Y3138909D01*
X4739762Y3151171D01*
X4752024Y3169523D01*
X4753425Y3176566D01*
X4767852Y3190993D01*
X4779055Y3210396D01*
X4784853Y3232037D01*
Y3254442D01*
X4779055Y3276083D01*
X4767852Y3295486D01*
X4753425Y3309913D01*
X4752024Y3316957D01*
X4739762Y3335309D01*
X4721410Y3347571D01*
X4699763Y3351877D01*
D02*
G37*
G36*
X3263282Y3347360D02*
X3249278D01*
X3236341Y3342001D01*
X3226439Y3332099D01*
X3221080Y3319162D01*
Y3305158D01*
X3226439Y3292221D01*
X3236341Y3282319D01*
X3231921Y3273721D01*
X3231519Y3273319D01*
X3226160Y3260382D01*
Y3246378D01*
X3231519Y3233441D01*
X3241421Y3223539D01*
X3254358Y3218180D01*
X3268362D01*
X3281299Y3223539D01*
X3291201Y3233441D01*
X3296560Y3246378D01*
Y3260382D01*
X3291201Y3273319D01*
X3281299Y3283221D01*
X3285719Y3291819D01*
X3286121Y3292221D01*
X3291480Y3305158D01*
Y3319162D01*
X3286121Y3332099D01*
X3276219Y3342001D01*
X3263282Y3347360D01*
D02*
G37*
G36*
X2858542Y3371850D02*
X2836138D01*
X2814497Y3366051D01*
X2795093Y3354849D01*
X2779251Y3339007D01*
X2768049Y3319603D01*
X2762250Y3297962D01*
Y3275558D01*
X2768049Y3253917D01*
X2779251Y3234513D01*
X2795093Y3218671D01*
X2814497Y3207469D01*
X2836138Y3201670D01*
X2858542D01*
X2880183Y3207469D01*
X2899587Y3218671D01*
X2915429Y3234513D01*
X2926631Y3253917D01*
X2932430Y3275558D01*
Y3297962D01*
X2926631Y3319603D01*
X2915429Y3339007D01*
X2899587Y3354849D01*
X2880183Y3366051D01*
X2858542Y3371850D01*
D02*
G37*
G36*
X6941202Y3212740D02*
X6927198D01*
X6914261Y3207381D01*
X6904359Y3197479D01*
X6899000Y3184542D01*
Y3170538D01*
X6904359Y3157601D01*
X6914261Y3147699D01*
X6927198Y3142340D01*
X6941202D01*
X6954139Y3147699D01*
X6964041Y3157601D01*
X6969400Y3170538D01*
Y3184542D01*
X6964041Y3197479D01*
X6954139Y3207381D01*
X6941202Y3212740D01*
D02*
G37*
G36*
X7220602Y3210200D02*
X7206598D01*
X7193661Y3204841D01*
X7183759Y3194939D01*
X7178400Y3182002D01*
Y3167998D01*
X7183759Y3155061D01*
X7193661Y3145159D01*
X7206598Y3139800D01*
X7220602D01*
X7233539Y3145159D01*
X7243441Y3155061D01*
X7248800Y3167998D01*
Y3182002D01*
X7243441Y3194939D01*
X7233539Y3204841D01*
X7220602Y3210200D01*
D02*
G37*
G36*
X6661802Y3207660D02*
X6647798D01*
X6634861Y3202301D01*
X6624959Y3192399D01*
X6619600Y3179462D01*
Y3165458D01*
X6624959Y3152521D01*
X6634861Y3142619D01*
X6647798Y3137260D01*
X6661802D01*
X6674739Y3142619D01*
X6684641Y3152521D01*
X6690000Y3165458D01*
Y3179462D01*
X6684641Y3192399D01*
X6674739Y3202301D01*
X6661802Y3207660D01*
D02*
G37*
G36*
X3835757Y3351877D02*
X3814110Y3347571D01*
X3795758Y3335309D01*
X3783496Y3316957D01*
X3782095Y3309913D01*
X3767668Y3295486D01*
X3756465Y3276083D01*
X3750667Y3254442D01*
Y3232037D01*
X3756465Y3210396D01*
X3767668Y3190993D01*
X3782095Y3176566D01*
X3783496Y3169523D01*
X3795758Y3151171D01*
X3814110Y3138909D01*
X3835757Y3134603D01*
X3857404Y3138909D01*
X3875756Y3151171D01*
X3884487Y3164239D01*
X3898244Y3161968D01*
X3899469Y3157397D01*
X3910671Y3137993D01*
X3926514Y3122151D01*
X3945917Y3110949D01*
X3967558Y3105150D01*
X3989963D01*
X4011604Y3110949D01*
X4031007Y3122151D01*
X4046849Y3137993D01*
X4058052Y3157397D01*
X4063850Y3179038D01*
Y3201442D01*
X4058052Y3223083D01*
X4046849Y3242487D01*
X4031007Y3258329D01*
X4011604Y3269531D01*
X3989963Y3275330D01*
X3967558D01*
X3945917Y3269531D01*
X3932091Y3261549D01*
X3918913Y3265753D01*
X3917428Y3267204D01*
X3915048Y3276083D01*
X3903846Y3295486D01*
X3889419Y3309913D01*
X3888018Y3316957D01*
X3875756Y3335309D01*
X3857404Y3347571D01*
X3835757Y3351877D01*
D02*
G37*
G36*
X5239174Y3484480D02*
X5200226D01*
X5162027Y3476882D01*
X5126045Y3461977D01*
X5093661Y3440339D01*
X5066121Y3412799D01*
X5044483Y3380415D01*
X5029578Y3344433D01*
X5021980Y3306234D01*
Y3267286D01*
X5029578Y3229087D01*
X5044483Y3193105D01*
X5066121Y3160721D01*
X5093661Y3133181D01*
X5126045Y3111543D01*
X5162027Y3096638D01*
X5200226Y3089040D01*
X5239174D01*
X5277373Y3096638D01*
X5313355Y3111543D01*
X5345739Y3133181D01*
X5373279Y3160721D01*
X5394917Y3193105D01*
X5409822Y3229087D01*
X5417420Y3267286D01*
Y3306234D01*
X5409822Y3344433D01*
X5394917Y3380415D01*
X5373279Y3412799D01*
X5345739Y3440339D01*
X5313355Y3461977D01*
X5277373Y3476882D01*
X5239174Y3484480D01*
D02*
G37*
G36*
X4699760Y2912287D02*
X4689923Y2910330D01*
X4688558D01*
X4684626Y2909276D01*
X4678113Y2907981D01*
X4676990Y2907230D01*
X4666917Y2904531D01*
X4647514Y2893329D01*
X4631671Y2877486D01*
X4620469Y2858083D01*
X4614670Y2836442D01*
Y2814038D01*
X4620469Y2792396D01*
X4631671Y2772993D01*
X4647514Y2757151D01*
X4666917Y2745949D01*
X4676990Y2743250D01*
X4678113Y2742499D01*
X4684626Y2741204D01*
X4688558Y2740150D01*
X4689923D01*
X4699760Y2738193D01*
X4709598Y2740150D01*
X4710963D01*
X4714895Y2741204D01*
X4721407Y2742499D01*
X4722531Y2743250D01*
X4732604Y2745949D01*
X4752007Y2757151D01*
X4767849Y2772993D01*
X4779052Y2792396D01*
X4784850Y2814038D01*
Y2836442D01*
X4779052Y2858083D01*
X4767849Y2877486D01*
X4752007Y2893329D01*
X4732604Y2904531D01*
X4722531Y2907230D01*
X4721407Y2907981D01*
X4714895Y2909276D01*
X4710963Y2910330D01*
X4709598D01*
X4699760Y2912287D01*
D02*
G37*
G36*
X3835757D02*
X3825919Y2910330D01*
X3824554D01*
X3820623Y2909276D01*
X3814110Y2907981D01*
X3812986Y2907230D01*
X3802913Y2904531D01*
X3783510Y2893329D01*
X3767668Y2877486D01*
X3756465Y2858083D01*
X3750667Y2836442D01*
Y2814038D01*
X3756465Y2792396D01*
X3767668Y2772993D01*
X3783510Y2757151D01*
X3802913Y2745949D01*
X3812986Y2743250D01*
X3814110Y2742499D01*
X3820623Y2741204D01*
X3824554Y2740150D01*
X3825919D01*
X3835757Y2738193D01*
X3845595Y2740150D01*
X3846959D01*
X3850891Y2741204D01*
X3857404Y2742499D01*
X3858527Y2743250D01*
X3868600Y2745949D01*
X3888003Y2757151D01*
X3903846Y2772993D01*
X3915048Y2792396D01*
X3920847Y2814038D01*
Y2836442D01*
X3915048Y2858083D01*
X3903846Y2877486D01*
X3888003Y2893329D01*
X3868600Y2904531D01*
X3858527Y2907230D01*
X3857404Y2907981D01*
X3850891Y2909276D01*
X3846959Y2910330D01*
X3845595D01*
X3835757Y2912287D01*
D02*
G37*
%LPD*%
D37*
X5219700Y5636260D02*
D03*
Y3286760D02*
D03*
X2847340Y4556760D02*
D03*
Y3286760D02*
D03*
X3835757Y3243240D02*
D03*
D03*
Y2825240D02*
D03*
X4699760D02*
D03*
X4699763Y3243240D02*
D03*
X3978760Y3190240D02*
D03*
X4556760D02*
D03*
X4699760Y2825240D02*
D03*
X4699763Y3243240D02*
D03*
X3835757Y2825240D02*
D03*
D42*
X3016250Y3868691D02*
D03*
X2938780Y3733800D02*
D03*
X3092600Y3600133D02*
D03*
X6537960Y3627120D02*
D03*
X7053580Y4867190D02*
D03*
X7538720Y5245100D02*
D03*
X7315200Y4864100D02*
D03*
X6985000Y4762500D02*
D03*
X6667500D02*
D03*
X7315200Y4686300D02*
D03*
X4269740Y3568700D02*
D03*
X4286250Y3810000D02*
D03*
X3256280Y3312160D02*
D03*
X5150300Y4599120D02*
D03*
X5715000Y4762500D02*
D03*
X5397500D02*
D03*
X6032500D02*
D03*
X4762500D02*
D03*
X3261360Y3253380D02*
D03*
X3702568Y3617657D02*
D03*
Y3681157D02*
D03*
Y3551617D02*
D03*
X3585728Y3480497D02*
D03*
X3580648Y3551617D02*
D03*
X7655560Y5201920D02*
D03*
X7143750Y5715000D02*
D03*
X6840220Y3357880D02*
D03*
X6540500Y3383280D02*
D03*
X6668930Y3676490D02*
D03*
X6191250Y3175000D02*
D03*
X3204728Y3970717D02*
D03*
X3296168Y3891977D02*
D03*
X3689868Y3897057D02*
D03*
X3595888Y3912297D02*
D03*
X3451108Y3983417D02*
D03*
X3529848Y3935157D02*
D03*
X3400308Y3930077D02*
D03*
X3565881Y3752277D02*
D03*
X3636528Y3589717D02*
D03*
X3492500Y2857500D02*
D03*
X3707648Y3488117D02*
D03*
X3639068Y3518597D02*
D03*
X3175000Y2857500D02*
D03*
X6667500Y4127500D02*
D03*
X7759700Y5194300D02*
D03*
X7785100Y3721100D02*
D03*
X7670800D02*
D03*
X7556500D02*
D03*
X7366000D02*
D03*
X7315200Y4038600D02*
D03*
X7314221Y4229196D02*
D03*
X7315200Y4140200D02*
D03*
Y4318000D02*
D03*
Y4419600D02*
D03*
Y4508500D02*
D03*
Y4597400D02*
D03*
Y4775200D02*
D03*
X7620000Y6032500D02*
D03*
X7778750Y5715000D02*
D03*
X7620000Y5397500D02*
D03*
Y3492500D02*
D03*
X7778750Y3175000D02*
D03*
X7620000Y2857500D02*
D03*
X7302500Y6032500D02*
D03*
X7461250Y5715000D02*
D03*
X7302500Y3492500D02*
D03*
X7461250Y3175000D02*
D03*
X7302500Y2857500D02*
D03*
X6985000Y6032500D02*
D03*
Y5397500D02*
D03*
X7143750Y4445000D02*
D03*
X6985000Y4127500D02*
D03*
Y3492500D02*
D03*
X7143750Y3175000D02*
D03*
X6667500Y6032500D02*
D03*
X6826250Y5715000D02*
D03*
Y4445000D02*
D03*
Y3175000D02*
D03*
X6350000Y6032500D02*
D03*
Y3492500D02*
D03*
X6508750Y3175000D02*
D03*
X6350000Y2857500D02*
D03*
X6191250Y5715000D02*
D03*
X6032500Y5397500D02*
D03*
X6191250Y4445000D02*
D03*
Y3810000D02*
D03*
X6032500Y3492500D02*
D03*
Y2857500D02*
D03*
X5873750Y5715000D02*
D03*
X5715000Y5397500D02*
D03*
X5873750Y5080000D02*
D03*
Y4445000D02*
D03*
Y3810000D02*
D03*
X5715000Y3492500D02*
D03*
X5873750Y3175000D02*
D03*
X5715000Y2857500D02*
D03*
X5556250Y4445000D02*
D03*
X5397500Y4127500D02*
D03*
X5556250Y3810000D02*
D03*
X5397500Y2857500D02*
D03*
X5238750Y5080000D02*
D03*
Y4445000D02*
D03*
Y3810000D02*
D03*
X5080000Y2857500D02*
D03*
X4762500Y5397500D02*
D03*
X4921250Y5080000D02*
D03*
X4762500Y4127500D02*
D03*
Y3492500D02*
D03*
X4603750Y5715000D02*
D03*
X4445000Y5397500D02*
D03*
X4603750Y5080000D02*
D03*
X4445000Y4762500D02*
D03*
X4603750Y4445000D02*
D03*
X4445000Y4127500D02*
D03*
X4603750Y3810000D02*
D03*
X4286250Y5715000D02*
D03*
X4127500Y5397500D02*
D03*
X4286250Y5080000D02*
D03*
X4127500Y4762500D02*
D03*
Y4127500D02*
D03*
X3968750Y5715000D02*
D03*
X3810000Y5397500D02*
D03*
X3968750Y5080000D02*
D03*
X3810000Y4762500D02*
D03*
X3968750Y4445000D02*
D03*
X3810000Y4127500D02*
D03*
X3968750Y3810000D02*
D03*
X3492500Y5397500D02*
D03*
Y4762500D02*
D03*
X3651250Y4445000D02*
D03*
X3492500Y4127500D02*
D03*
X3333750Y5080000D02*
D03*
X3175000Y4762500D02*
D03*
X3333750Y4445000D02*
D03*
X3175000Y4127500D02*
D03*
X2857500Y5397500D02*
D03*
X3016250Y5080000D02*
D03*
X2857500Y4762500D02*
D03*
X3016250Y4445000D02*
D03*
X2857500Y4127500D02*
D03*
X2870200Y5511800D02*
D03*
X3187700Y5956771D02*
D03*
X3153336Y5910421D02*
D03*
X3494130Y6008010D02*
D03*
X7118000Y5492400D02*
D03*
X6177800Y4807700D02*
D03*
X6223000Y4711700D02*
D03*
X5405760Y4307200D02*
D03*
X4833620Y4216400D02*
D03*
X4837060Y4431400D02*
D03*
X3728720Y5778500D02*
D03*
X3081020Y5524500D02*
D03*
X3175000D02*
D03*
X6553900Y5193600D02*
D03*
X6953900Y3728100D02*
D03*
X7213600Y3175000D02*
D03*
X6934200Y3177540D02*
D03*
X6654800Y3172460D02*
D03*
X4983480Y4884420D02*
D03*
X5044440Y5002660D02*
D03*
X5383300Y4941800D02*
D03*
X5399400Y4227200D02*
D03*
X5262260Y4147200D02*
D03*
X7253900Y3723300D02*
D03*
X7153900Y3724900D02*
D03*
X7053900Y3726500D02*
D03*
X6241300Y4107700D02*
D03*
X6853900Y5198400D02*
D03*
X6953900Y5200000D02*
D03*
X7353900Y5284100D02*
D03*
X7253900Y5199600D02*
D03*
D43*
X3835757Y3188630D02*
Y3243240D01*
X4699760Y2796030D02*
Y2825240D01*
X4699763Y3188630D02*
Y3243240D01*
X3835757Y2796030D02*
Y2825240D01*
%TF.MD5,b6576024818c55d4433c4a19bb827bec*%
M02*
