%TF.GenerationSoftware,Altium Limited,Altium Designer,23.5.1 (21)*%
G04 Layer_Physical_Order=1*
G04 Layer_Color=255*
%FSLAX45Y45*%
%MOMM*%
%TF.SameCoordinates,0CF0D061-263B-42B0-A585-B6EE71A6EBF9*%
%TF.FilePolarity,Positive*%
%TF.FileFunction,Copper,L1,Top,Signal*%
%TF.Part,Single*%
G01*
G75*
%TA.AperFunction,SMDPad,CuDef*%
%ADD10R,0.75000X0.60000*%
%ADD11R,1.00000X0.90000*%
%ADD12R,0.60000X0.75000*%
%TA.AperFunction,SMDPad,SMDef*%
%ADD13R,0.65000X1.45000*%
%ADD14R,0.70000X0.27000*%
%TA.AperFunction,SMDPad,CuDef*%
%ADD15R,0.60000X0.64000*%
%ADD16R,0.64000X0.60000*%
%TA.AperFunction,BGAPad,CuDef*%
%ADD17R,0.40000X0.40000*%
%TA.AperFunction,SMDPad,CuDef*%
%ADD18R,1.40000X0.75000*%
G04:AMPARAMS|DCode=19|XSize=0.96535mm|YSize=0.29247mm|CornerRadius=0.14624mm|HoleSize=0mm|Usage=FLASHONLY|Rotation=180.000|XOffset=0mm|YOffset=0mm|HoleType=Round|Shape=RoundedRectangle|*
%AMROUNDEDRECTD19*
21,1,0.96535,0.00000,0,0,180.0*
21,1,0.67288,0.29247,0,0,180.0*
1,1,0.29247,-0.33644,0.00000*
1,1,0.29247,0.33644,0.00000*
1,1,0.29247,0.33644,0.00000*
1,1,0.29247,-0.33644,0.00000*
%
%ADD19ROUNDEDRECTD19*%
%ADD20R,0.96535X0.29247*%
%ADD21R,0.65000X1.60000*%
%ADD22R,0.90000X1.00000*%
%ADD23R,0.60000X2.40000*%
%ADD24R,2.40000X0.60000*%
%ADD25R,0.75000X2.40000*%
%TA.AperFunction,Conductor*%
%ADD26C,0.15240*%
%ADD27C,0.63500*%
%ADD28C,0.12700*%
%ADD29C,0.30480*%
%ADD30C,0.25400*%
%TA.AperFunction,TestPad*%
%ADD31C,1.52400*%
%TA.AperFunction,ComponentPad*%
%ADD32C,3.45440*%
%TA.AperFunction,ViaPad*%
%ADD33C,0.45000*%
G36*
X7828209Y4908615D02*
X7823900Y4897700D01*
X7692790D01*
Y5151590D01*
X7617246D01*
X7614350Y5152790D01*
X7592130D01*
X7589233Y5151590D01*
X7517153D01*
X7513133Y5153255D01*
X7490913D01*
X7486893Y5151590D01*
X7420820D01*
X7416330Y5153450D01*
X7394110D01*
X7389620Y5151590D01*
X7370396D01*
Y5252833D01*
X7373839Y5254259D01*
X7383741Y5264161D01*
X7389100Y5277098D01*
Y5291102D01*
X7383741Y5304039D01*
X7373839Y5313941D01*
X7360902Y5319300D01*
X7346898D01*
X7343455Y5317874D01*
X7279390Y5381938D01*
Y5436390D01*
X7186610D01*
Y5358610D01*
X7256062D01*
X7320126Y5294545D01*
X7318700Y5291102D01*
Y5277098D01*
X7324059Y5264161D01*
X7333961Y5254259D01*
X7337404Y5252833D01*
Y5151590D01*
X7315010D01*
Y4893810D01*
X7325563D01*
X7337096Y4890991D01*
Y4010896D01*
X7415010D01*
Y3763810D01*
X7492790D01*
Y4010896D01*
X7828209D01*
Y2560391D01*
X2687391D01*
Y6355009D01*
X7828209D01*
Y4908615D01*
D02*
G37*
%LPC*%
G36*
X3429000Y6297916D02*
X3017520D01*
X3005856Y6293084D01*
X2985536Y6272764D01*
X2980704Y6261100D01*
Y6229390D01*
X2950810D01*
Y5971610D01*
X3043590D01*
Y6229390D01*
X3013696D01*
Y6254267D01*
X3024353Y6264924D01*
X3422167D01*
X3519184Y6167907D01*
Y6049329D01*
X3506484Y6040993D01*
X3501132Y6043210D01*
X3487128D01*
X3474191Y6037851D01*
X3464289Y6027949D01*
X3458930Y6015012D01*
Y6001008D01*
X3461649Y5994445D01*
X3454486Y5981756D01*
X3424590D01*
Y6229390D01*
X3331810D01*
Y5981756D01*
X3310773D01*
X3297590Y5994939D01*
Y6229390D01*
X3204810D01*
Y5998725D01*
X3194702Y5991971D01*
X3180698D01*
X3170590Y5998725D01*
Y6229390D01*
X3077810D01*
Y5971610D01*
X3107704D01*
Y5948680D01*
X3112536Y5937016D01*
X3122234Y5927317D01*
X3118136Y5917423D01*
Y5903419D01*
X3123495Y5890482D01*
X3133397Y5880580D01*
X3146334Y5875221D01*
X3160337D01*
X3173275Y5880580D01*
X3183177Y5890482D01*
X3188535Y5903419D01*
Y5917422D01*
X3199705Y5923644D01*
X3200804Y5924099D01*
X3249944Y5874959D01*
Y5839390D01*
X3204810D01*
Y5581610D01*
X3297590D01*
Y5839390D01*
X3282936D01*
Y5881792D01*
X3278104Y5893456D01*
X3222575Y5948985D01*
X3222900Y5949770D01*
Y5963773D01*
X3228136Y5971610D01*
X3274261D01*
X3292276Y5953596D01*
X3303940Y5948764D01*
X3469138D01*
X3480803Y5953596D01*
X3489783Y5962576D01*
X3494022Y5972810D01*
X3501132D01*
X3506484Y5975027D01*
X3518211Y5971807D01*
X3520581Y5968167D01*
X3524016Y5959876D01*
X3694946Y5788945D01*
X3693520Y5785502D01*
Y5771498D01*
X3698879Y5758561D01*
X3708781Y5748659D01*
X3721718Y5743300D01*
X3735722D01*
X3748659Y5748659D01*
X3758561Y5758561D01*
X3763920Y5771498D01*
Y5785502D01*
X3758561Y5798439D01*
X3748659Y5808341D01*
X3735722Y5813700D01*
X3721718D01*
X3718275Y5812274D01*
X3552176Y5978373D01*
Y6174740D01*
X3547344Y6186404D01*
X3440664Y6293084D01*
X3429000Y6297916D01*
D02*
G37*
G36*
X3424590Y5839390D02*
X3331810D01*
Y5581610D01*
X3424590D01*
Y5839390D01*
D02*
G37*
G36*
X3170590D02*
X3077810D01*
Y5581610D01*
X3138854D01*
Y5552890D01*
X3143686Y5541226D01*
X3143786Y5541126D01*
X3139800Y5531502D01*
Y5517498D01*
X3145159Y5504561D01*
X3155061Y5494659D01*
X3167998Y5489300D01*
X3182002D01*
X3194939Y5494659D01*
X3204841Y5504561D01*
X3210200Y5517498D01*
Y5531502D01*
X3204841Y5544439D01*
X3194939Y5554341D01*
X3182002Y5559700D01*
X3171869D01*
X3171846Y5559723D01*
Y5679350D01*
X3170590Y5682382D01*
Y5839390D01*
D02*
G37*
G36*
X3043590D02*
X2950810D01*
Y5581610D01*
X2980704D01*
Y5570220D01*
X2985536Y5558556D01*
X3027806Y5516286D01*
X3039470Y5511454D01*
X3048324D01*
X3051179Y5504561D01*
X3061081Y5494659D01*
X3074018Y5489300D01*
X3088022D01*
X3100959Y5494659D01*
X3110861Y5504561D01*
X3116220Y5517498D01*
Y5531502D01*
X3110861Y5544439D01*
X3100959Y5554341D01*
X3088022Y5559700D01*
X3074018D01*
X3061081Y5554341D01*
X3051186Y5544446D01*
X3046303D01*
X3021839Y5568910D01*
X3027099Y5581610D01*
X3043590D01*
Y5839390D01*
D02*
G37*
G36*
X2916590D02*
X2823810D01*
Y5581610D01*
X2828764D01*
Y5511800D01*
X2831918Y5495943D01*
X2840900Y5482500D01*
X2854343Y5473518D01*
X2870200Y5470364D01*
X2886057Y5473518D01*
X2899500Y5482500D01*
X2908482Y5495943D01*
X2911636Y5511800D01*
Y5581610D01*
X2916590D01*
Y5839390D01*
D02*
G37*
G36*
X5219700Y5918728D02*
X5175910Y5915282D01*
X5133198Y5905028D01*
X5092615Y5888218D01*
X5055162Y5865267D01*
X5021761Y5836739D01*
X4993233Y5803338D01*
X4970282Y5765885D01*
X4953472Y5725302D01*
X4943218Y5682590D01*
X4939772Y5638800D01*
X4943218Y5595010D01*
X4953472Y5552298D01*
X4970282Y5511715D01*
X4993233Y5474262D01*
X5021761Y5440861D01*
X5055162Y5412333D01*
X5092615Y5389382D01*
X5133198Y5372572D01*
X5175910Y5362318D01*
X5219700Y5358872D01*
X5263490Y5362318D01*
X5306202Y5372572D01*
X5346785Y5389382D01*
X5384238Y5412333D01*
X5417639Y5440861D01*
X5446167Y5474262D01*
X5469118Y5511715D01*
X5485928Y5552298D01*
X5496182Y5595010D01*
X5499628Y5638800D01*
X5496182Y5682590D01*
X5485928Y5725302D01*
X5469118Y5765885D01*
X5446167Y5803338D01*
X5417639Y5836739D01*
X5384238Y5865267D01*
X5346785Y5888218D01*
X5306202Y5905028D01*
X5263490Y5915282D01*
X5219700Y5918728D01*
D02*
G37*
G36*
X7118000Y5533836D02*
X7102143Y5530682D01*
X7088700Y5521700D01*
X7079718Y5508257D01*
X7076564Y5492400D01*
Y5436390D01*
X7071610D01*
Y5413710D01*
X7036950Y5379050D01*
X7027968Y5365607D01*
X7024814Y5349750D01*
Y5309390D01*
X7014110D01*
Y5231610D01*
X7047699D01*
X7060500Y5229064D01*
X7064500D01*
X7077301Y5231610D01*
X7106890D01*
Y5268247D01*
X7107686Y5272250D01*
Y5332586D01*
X7133710Y5358610D01*
X7164390D01*
Y5436390D01*
X7159436D01*
Y5492400D01*
X7156282Y5508257D01*
X7147300Y5521700D01*
X7133857Y5530682D01*
X7118000Y5533836D01*
D02*
G37*
G36*
X5390302Y4977000D02*
X5376298D01*
X5363361Y4971641D01*
X5353459Y4961739D01*
X5352033Y4958296D01*
X5327190D01*
Y4964190D01*
X5239410D01*
Y4919410D01*
X5327190D01*
Y4925304D01*
X5352033D01*
X5353459Y4921861D01*
X5363361Y4911959D01*
X5376298Y4906600D01*
X5390302D01*
X5403239Y4911959D01*
X5413141Y4921861D01*
X5418500Y4934798D01*
Y4948802D01*
X5413141Y4961739D01*
X5403239Y4971641D01*
X5390302Y4977000D01*
D02*
G37*
G36*
X5051442Y5037860D02*
X5037438D01*
X5024501Y5032501D01*
X5014599Y5022599D01*
X5009240Y5009662D01*
Y4995658D01*
X5014599Y4982721D01*
X5024501Y4972819D01*
X5037198Y4967560D01*
X5038956Y4963315D01*
X5061410Y4940862D01*
Y4919410D01*
X5149190D01*
Y4964190D01*
X5084738D01*
X5070244Y4978684D01*
X5074281Y4982721D01*
X5079640Y4995658D01*
Y5009662D01*
X5074281Y5022599D01*
X5064379Y5032501D01*
X5051442Y5037860D01*
D02*
G37*
G36*
X7221890Y5309390D02*
X7129110D01*
Y5231610D01*
X7198562D01*
X7220126Y5210045D01*
X7218700Y5206602D01*
Y5192598D01*
X7224059Y5179661D01*
X7233961Y5169759D01*
X7237404Y5168333D01*
Y5151590D01*
X7215010D01*
Y4893810D01*
X7292790D01*
Y5151590D01*
X7270396D01*
Y5168333D01*
X7273839Y5169759D01*
X7283741Y5179661D01*
X7289100Y5192598D01*
Y5206602D01*
X7283741Y5219539D01*
X7273839Y5229441D01*
X7260902Y5234800D01*
X7246898D01*
X7243455Y5233374D01*
X7221890Y5254938D01*
Y5309390D01*
D02*
G37*
G36*
X7192790Y5151590D02*
X7115010D01*
Y4893810D01*
X7192790D01*
Y5151590D01*
D02*
G37*
G36*
X6960902Y5235200D02*
X6946898D01*
X6933961Y5229841D01*
X6924059Y5219939D01*
X6918700Y5207002D01*
Y5192998D01*
X6924059Y5180061D01*
X6933961Y5170159D01*
X6937404Y5168733D01*
Y5151590D01*
X6915010D01*
Y4893810D01*
X6992790D01*
Y5151590D01*
X6970396D01*
Y5168733D01*
X6973839Y5170159D01*
X6983741Y5180061D01*
X6989100Y5192998D01*
Y5207002D01*
X6983741Y5219939D01*
X6973839Y5229841D01*
X6960902Y5235200D01*
D02*
G37*
G36*
X6860902Y5233600D02*
X6846898D01*
X6833961Y5228241D01*
X6824059Y5218339D01*
X6818700Y5205402D01*
Y5191398D01*
X6824059Y5178461D01*
X6833961Y5168559D01*
X6837404Y5167133D01*
Y5151590D01*
X6815010D01*
Y4893810D01*
X6892790D01*
Y5151590D01*
X6870396D01*
Y5167133D01*
X6873839Y5168559D01*
X6883741Y5178461D01*
X6889100Y5191398D01*
Y5205402D01*
X6883741Y5218339D01*
X6873839Y5228241D01*
X6860902Y5233600D01*
D02*
G37*
G36*
X6792790Y5151590D02*
X6715010D01*
Y4893810D01*
X6792790D01*
Y5151590D01*
D02*
G37*
G36*
X6692790D02*
X6615010D01*
Y4893810D01*
X6692790D01*
Y5151590D01*
D02*
G37*
G36*
X6560902Y5228800D02*
X6546898D01*
X6533961Y5223441D01*
X6524059Y5213539D01*
X6518700Y5200602D01*
Y5186598D01*
X6524059Y5173661D01*
X6533430Y5164290D01*
X6533268Y5161544D01*
X6530153Y5151590D01*
X6515010D01*
Y4893810D01*
X6592790D01*
Y5151590D01*
X6577647D01*
X6574532Y5161544D01*
X6574370Y5164290D01*
X6583741Y5173661D01*
X6589100Y5186598D01*
Y5200602D01*
X6583741Y5213539D01*
X6573839Y5223441D01*
X6560902Y5228800D01*
D02*
G37*
G36*
X4990482Y4919620D02*
X4976478D01*
X4963541Y4914261D01*
X4953639Y4904359D01*
X4948280Y4891422D01*
Y4877418D01*
X4953639Y4864481D01*
X4963541Y4854579D01*
X4976478Y4849220D01*
X4990482D01*
X5003419Y4854579D01*
X5012954Y4864114D01*
X5061410D01*
Y4854410D01*
X5149190D01*
Y4899190D01*
X5061410D01*
Y4897106D01*
X5016326D01*
X5013321Y4904359D01*
X5003419Y4914261D01*
X4990482Y4919620D01*
D02*
G37*
G36*
X7092790Y5151590D02*
X7015010D01*
Y4893810D01*
X7023169D01*
X7028430Y4881110D01*
X7024059Y4876739D01*
X7018700Y4863802D01*
Y4849798D01*
X7024059Y4836861D01*
X7033961Y4826959D01*
X7046898Y4821600D01*
X7060902D01*
X7073839Y4826959D01*
X7083741Y4836861D01*
X7089100Y4849798D01*
Y4863802D01*
X7083741Y4876739D01*
X7079370Y4881110D01*
X7084631Y4893810D01*
X7092790D01*
Y5151590D01*
D02*
G37*
G36*
X6403900Y4849136D02*
X6177800D01*
X6161943Y4845982D01*
X6148500Y4837000D01*
X6139518Y4823557D01*
X6136364Y4807700D01*
X6139518Y4791843D01*
X6148500Y4778400D01*
X6161943Y4769418D01*
X6177800Y4766264D01*
X6403900D01*
X6416701Y4768810D01*
X6532790D01*
Y4846590D01*
X6416701D01*
X6403900Y4849136D01*
D02*
G37*
G36*
X6230002Y4746900D02*
X6215998D01*
X6203061Y4741541D01*
X6193159Y4731639D01*
X6187800Y4718702D01*
Y4704698D01*
X6193159Y4691761D01*
X6203061Y4681859D01*
X6215998Y4676500D01*
X6230002D01*
X6242939Y4681859D01*
X6252841Y4691761D01*
X6254267Y4695204D01*
X6275010D01*
Y4668810D01*
X6532790D01*
Y4746590D01*
X6275010D01*
Y4728196D01*
X6254267D01*
X6252841Y4731639D01*
X6242939Y4741541D01*
X6230002Y4746900D01*
D02*
G37*
G36*
X6532790Y4646590D02*
X6275010D01*
Y4568810D01*
X6532790D01*
Y4646590D01*
D02*
G37*
G36*
X5149190Y4834190D02*
X5061410D01*
Y4789410D01*
X5105587D01*
Y4779100D01*
X5107263Y4770676D01*
X5112035Y4763535D01*
X5128287Y4747282D01*
Y4727190D01*
X5111410D01*
Y4645410D01*
X5128287D01*
Y4626887D01*
X5120459Y4619059D01*
X5115100Y4606122D01*
Y4592118D01*
X5120459Y4579181D01*
X5130361Y4569279D01*
X5143298Y4563920D01*
X5157302D01*
X5170239Y4569279D01*
X5180141Y4579181D01*
X5185500Y4592118D01*
Y4606122D01*
X5180141Y4619059D01*
X5172313Y4626887D01*
Y4645410D01*
X5189190D01*
Y4727190D01*
X5172313D01*
Y4756400D01*
X5170637Y4764824D01*
X5165865Y4771966D01*
X5149613Y4788218D01*
Y4811000D01*
X5149190Y4813127D01*
Y4834190D01*
D02*
G37*
G36*
X6532790Y4546590D02*
X6275010D01*
Y4468810D01*
X6532790D01*
Y4546590D01*
D02*
G37*
G36*
X4968490Y4470290D02*
X4886710D01*
Y4456003D01*
X4862237D01*
X4856999Y4461241D01*
X4844062Y4466600D01*
X4830058D01*
X4817121Y4461241D01*
X4807219Y4451339D01*
X4801860Y4438402D01*
Y4424398D01*
X4807219Y4411461D01*
X4817121Y4401559D01*
X4830058Y4396200D01*
X4844062D01*
X4856999Y4401559D01*
X4862237Y4406797D01*
X4886710D01*
Y4392510D01*
X4968490D01*
Y4406797D01*
X4986889D01*
X5019123Y4374563D01*
X5027105Y4369230D01*
X5036520Y4367357D01*
X5058110D01*
Y4358310D01*
X5115890D01*
Y4416090D01*
X5084616D01*
X5082240Y4416563D01*
X5046711D01*
X5014477Y4448797D01*
X5006495Y4454130D01*
X4997080Y4456003D01*
X4968490D01*
Y4470290D01*
D02*
G37*
G36*
X6532790Y4446590D02*
X6275010D01*
Y4368810D01*
X6532790D01*
Y4446590D01*
D02*
G37*
G36*
X5412762Y4342400D02*
X5398758D01*
X5385821Y4337041D01*
X5380583Y4331803D01*
X5355890D01*
Y4336090D01*
X5298110D01*
Y4278310D01*
X5355890D01*
Y4282597D01*
X5380583D01*
X5385821Y4277359D01*
X5391836Y4274867D01*
X5392141Y4268096D01*
X5390573Y4261644D01*
X5379461Y4257041D01*
X5369559Y4247139D01*
X5368133Y4243696D01*
X5355890D01*
Y4256090D01*
X5298110D01*
Y4198310D01*
X5355890D01*
Y4210704D01*
X5368133D01*
X5369559Y4207261D01*
X5379461Y4197359D01*
X5392398Y4192000D01*
X5406402D01*
X5419339Y4197359D01*
X5429241Y4207261D01*
X5434600Y4220198D01*
Y4234202D01*
X5429241Y4247139D01*
X5419339Y4257041D01*
X5413324Y4259533D01*
X5413019Y4266304D01*
X5414587Y4272756D01*
X5425699Y4277359D01*
X5435601Y4287261D01*
X5440960Y4300198D01*
Y4314202D01*
X5435601Y4327139D01*
X5425699Y4337041D01*
X5412762Y4342400D01*
D02*
G37*
G36*
X6174890Y4373390D02*
X6017110D01*
Y4280610D01*
X6174890D01*
Y4291204D01*
X6275010D01*
Y4268810D01*
X6532790D01*
Y4346590D01*
X6275010D01*
Y4324196D01*
X6174890D01*
Y4373390D01*
D02*
G37*
G36*
X5115890Y4256090D02*
X5058110D01*
Y4247043D01*
X4968490D01*
Y4255290D01*
X4886710D01*
Y4241003D01*
X4858797D01*
X4853559Y4246241D01*
X4840622Y4251600D01*
X4826618D01*
X4813681Y4246241D01*
X4803779Y4236339D01*
X4798420Y4223402D01*
Y4209398D01*
X4803779Y4196461D01*
X4813681Y4186559D01*
X4826618Y4181200D01*
X4840622D01*
X4853559Y4186559D01*
X4858797Y4191797D01*
X4886710D01*
Y4177510D01*
X4968490D01*
Y4197837D01*
X5082240D01*
X5084616Y4198310D01*
X5115890D01*
Y4256090D01*
D02*
G37*
G36*
X6532790Y4246590D02*
X6275010D01*
Y4224196D01*
X6174890D01*
Y4228390D01*
X6017110D01*
Y4135610D01*
X6174890D01*
Y4191204D01*
X6275010D01*
Y4168810D01*
X6532790D01*
Y4246590D01*
D02*
G37*
G36*
Y4146590D02*
X6275010D01*
Y4141730D01*
X6262310Y4136470D01*
X6261239Y4137541D01*
X6248302Y4142900D01*
X6234298D01*
X6221361Y4137541D01*
X6211459Y4127639D01*
X6206100Y4114702D01*
Y4100698D01*
X6211459Y4087761D01*
X6221361Y4077859D01*
X6234298Y4072500D01*
X6248302D01*
X6261239Y4077859D01*
X6262310Y4078930D01*
X6275010Y4073670D01*
Y4068810D01*
X6532790D01*
Y4146590D01*
D02*
G37*
G36*
X5269262Y4182400D02*
X5255258D01*
X5242321Y4177041D01*
X5232419Y4167139D01*
X5227060Y4154202D01*
Y4140198D01*
X5232419Y4127261D01*
X5242321Y4117359D01*
X5255258Y4112000D01*
X5269262D01*
X5282199Y4117359D01*
X5285410Y4120570D01*
X5298110Y4118310D01*
X5298110Y4118310D01*
X5355890D01*
Y4176090D01*
X5298110D01*
Y4176090D01*
X5285410Y4173830D01*
X5282199Y4177041D01*
X5269262Y4182400D01*
D02*
G37*
G36*
X6892790Y4021590D02*
X6815010D01*
Y3763810D01*
X6892790D01*
Y4021590D01*
D02*
G37*
G36*
X6792790D02*
X6715010D01*
Y3763810D01*
X6792790D01*
Y4021590D01*
D02*
G37*
G36*
X6692790D02*
X6615010D01*
Y3763810D01*
X6692790D01*
Y4021590D01*
D02*
G37*
G36*
X6992790D02*
X6915010D01*
Y3763810D01*
X6921870D01*
X6927130Y3751110D01*
X6924059Y3748039D01*
X6918700Y3735102D01*
Y3721098D01*
X6924059Y3708161D01*
X6933961Y3698259D01*
X6946898Y3692900D01*
X6960902D01*
X6973839Y3698259D01*
X6983741Y3708161D01*
X6989100Y3721098D01*
Y3735102D01*
X6983741Y3748039D01*
X6980670Y3751110D01*
X6985930Y3763810D01*
X6992790D01*
Y4021590D01*
D02*
G37*
G36*
X7092790D02*
X7015010D01*
Y3763810D01*
X7023470D01*
X7028730Y3751110D01*
X7024059Y3746439D01*
X7018700Y3733502D01*
Y3719498D01*
X7024059Y3706561D01*
X7033961Y3696659D01*
X7046898Y3691300D01*
X7060902D01*
X7073839Y3696659D01*
X7083741Y3706561D01*
X7089100Y3719498D01*
Y3733502D01*
X7083741Y3746439D01*
X7079070Y3751110D01*
X7084331Y3763810D01*
X7092790D01*
Y4021590D01*
D02*
G37*
G36*
X7192790D02*
X7115010D01*
Y3763810D01*
X7125196D01*
X7130330Y3751110D01*
X7124059Y3744839D01*
X7118700Y3731902D01*
Y3717898D01*
X7124059Y3704961D01*
X7133961Y3695059D01*
X7146898Y3689700D01*
X7160902D01*
X7173839Y3695059D01*
X7183741Y3704961D01*
X7189100Y3717898D01*
Y3731902D01*
X7183741Y3744839D01*
X7177470Y3751110D01*
X7182604Y3763810D01*
X7192790D01*
Y4021590D01*
D02*
G37*
G36*
X7292790D02*
X7215010D01*
Y3763810D01*
X7228037D01*
X7229760Y3760706D01*
X7231930Y3751110D01*
X7224059Y3743239D01*
X7218700Y3730302D01*
Y3716298D01*
X7224059Y3703361D01*
X7233961Y3693459D01*
X7246898Y3688100D01*
X7260902D01*
X7273839Y3693459D01*
X7283741Y3703361D01*
X7289100Y3716298D01*
Y3730302D01*
X7283741Y3743239D01*
X7275870Y3751110D01*
X7278040Y3760706D01*
X7279763Y3763810D01*
X7292790D01*
Y4021590D01*
D02*
G37*
G36*
X6592790D02*
X6515010D01*
Y3763810D01*
X6536367D01*
Y3650627D01*
X6533261Y3649341D01*
X6523359Y3639439D01*
X6518000Y3626502D01*
Y3612498D01*
X6523359Y3599561D01*
X6533261Y3589659D01*
X6546198Y3584300D01*
X6560202D01*
X6573139Y3589659D01*
X6583041Y3599561D01*
X6588400Y3612498D01*
Y3626502D01*
X6583041Y3639439D01*
X6573139Y3649341D01*
X6570033Y3650627D01*
Y3763810D01*
X6592790D01*
Y4021590D01*
D02*
G37*
G36*
X3251200Y3845023D02*
X3136900D01*
X3130096Y3842204D01*
X2710996Y3423104D01*
X2708177Y3416300D01*
Y3263900D01*
X2710996Y3257096D01*
X2774496Y3193596D01*
X2781300Y3190777D01*
X2872864D01*
Y3150390D01*
X2867910D01*
Y3072610D01*
X2901499D01*
X2914300Y3070064D01*
X2927101Y3072610D01*
X2960690D01*
Y3150390D01*
X2955736D01*
Y3190777D01*
X3263900D01*
X3267600Y3192310D01*
X3275690D01*
Y3310090D01*
X3269418D01*
X3260823Y3318686D01*
Y3492500D01*
X3258004Y3499304D01*
X3251200Y3502123D01*
X3165711D01*
X3157481Y3512084D01*
X3164940Y3518681D01*
X3232227D01*
X3241402Y3520506D01*
X3249180Y3525702D01*
X3254377Y3533480D01*
X3256202Y3542655D01*
X3256140Y3542965D01*
X3273581Y3560407D01*
X3277218Y3558900D01*
X3291222D01*
X3304159Y3564259D01*
X3314061Y3574161D01*
X3319420Y3587098D01*
Y3601102D01*
X3314061Y3614039D01*
X3304159Y3623941D01*
X3291222Y3629300D01*
X3277218D01*
X3264281Y3623941D01*
X3254379Y3614039D01*
X3249020Y3601102D01*
Y3587098D01*
X3250366Y3583849D01*
X3232994Y3566476D01*
X3232227Y3566629D01*
X3179098D01*
X3173837Y3579329D01*
X3252118Y3657610D01*
X3263190D01*
Y3835390D01*
X3260823D01*
Y3835400D01*
X3258004Y3842204D01*
X3251200Y3845023D01*
D02*
G37*
G36*
X3556000Y3842483D02*
X3324860D01*
X3318056Y3839664D01*
X3315516Y3837124D01*
X3312697Y3830320D01*
Y3667760D01*
X3315410Y3661212D01*
Y3657610D01*
X3398190D01*
Y3658137D01*
X3422474D01*
X3452397Y3628214D01*
Y3521886D01*
X3432634Y3502123D01*
X3340100D01*
X3333296Y3499304D01*
X3330477Y3492500D01*
Y3462020D01*
X3333296Y3455216D01*
X3340100Y3452397D01*
X3472967D01*
X3479755Y3439697D01*
X3477340Y3436083D01*
X3446454D01*
Y3436168D01*
X3332139D01*
Y3430471D01*
X3330477Y3426460D01*
Y3401060D01*
X3332139Y3397049D01*
Y3389141D01*
X3368891D01*
X3452676Y3305356D01*
X3459480Y3302537D01*
X3787140D01*
X3793944Y3305356D01*
X3854904Y3366316D01*
X3857723Y3373120D01*
Y3449320D01*
X3854904Y3456124D01*
X3760924Y3550104D01*
X3754120Y3552923D01*
X3611120D01*
X3606649Y3553115D01*
X3598643Y3563290D01*
Y3799840D01*
X3595824Y3806644D01*
X3562804Y3839664D01*
X3556000Y3842483D01*
D02*
G37*
G36*
X3341690Y3112290D02*
X3248910D01*
Y3089896D01*
X3229127D01*
X3227701Y3093339D01*
X3217799Y3103241D01*
X3204862Y3108600D01*
X3190858D01*
X3177921Y3103241D01*
X3168019Y3093339D01*
X3162660Y3080402D01*
Y3066398D01*
X3168019Y3053461D01*
X3177921Y3043559D01*
X3190858Y3038200D01*
X3204862D01*
X3217799Y3043559D01*
X3227701Y3053461D01*
X3229127Y3056904D01*
X3248910D01*
Y3034510D01*
X3341690D01*
Y3112290D01*
D02*
G37*
G36*
X6661802Y3207660D02*
X6647798D01*
X6634861Y3202301D01*
X6624959Y3192399D01*
X6619600Y3179462D01*
Y3165458D01*
X6624959Y3152521D01*
X6634861Y3142619D01*
X6638304Y3141193D01*
Y3123950D01*
X6615910D01*
Y3031170D01*
X6693690D01*
Y3123950D01*
X6671296D01*
Y3141193D01*
X6674739Y3142619D01*
X6684641Y3152521D01*
X6690000Y3165458D01*
Y3179462D01*
X6684641Y3192399D01*
X6674739Y3202301D01*
X6661802Y3207660D01*
D02*
G37*
G36*
X7220602Y3210200D02*
X7206598D01*
X7193661Y3204841D01*
X7183759Y3194939D01*
X7178400Y3182002D01*
Y3167998D01*
X7183759Y3155061D01*
X7193661Y3145159D01*
X7197104Y3143733D01*
Y3123030D01*
X7174710D01*
Y3030250D01*
X7252490D01*
Y3123030D01*
X7230096D01*
Y3143733D01*
X7233539Y3145159D01*
X7243441Y3155061D01*
X7248800Y3167998D01*
Y3182002D01*
X7243441Y3194939D01*
X7233539Y3204841D01*
X7220602Y3210200D01*
D02*
G37*
G36*
X6941202Y3212740D02*
X6927198D01*
X6914261Y3207381D01*
X6904359Y3197479D01*
X6899000Y3184542D01*
Y3170538D01*
X6904359Y3157601D01*
X6914261Y3147699D01*
X6917704Y3146273D01*
Y3121410D01*
X6895310D01*
Y3028630D01*
X6973090D01*
Y3121410D01*
X6950696D01*
Y3146273D01*
X6954139Y3147699D01*
X6964041Y3157601D01*
X6969400Y3170538D01*
Y3184542D01*
X6964041Y3197479D01*
X6954139Y3207381D01*
X6941202Y3212740D01*
D02*
G37*
G36*
X5219700Y3569228D02*
X5175910Y3565782D01*
X5133198Y3555528D01*
X5092615Y3538718D01*
X5055162Y3515767D01*
X5021761Y3487239D01*
X4993233Y3453838D01*
X4970282Y3416385D01*
X4953472Y3375802D01*
X4943218Y3333090D01*
X4939772Y3289300D01*
X4943218Y3245510D01*
X4953472Y3202798D01*
X4970282Y3162215D01*
X4993233Y3124762D01*
X5021761Y3091361D01*
X5055162Y3062833D01*
X5092615Y3039882D01*
X5133198Y3023072D01*
X5175910Y3012818D01*
X5219700Y3009372D01*
X5263490Y3012818D01*
X5306202Y3023072D01*
X5346785Y3039882D01*
X5384238Y3062833D01*
X5417639Y3091361D01*
X5446167Y3124762D01*
X5469118Y3162215D01*
X5485928Y3202798D01*
X5496182Y3245510D01*
X5499628Y3289300D01*
X5496182Y3333090D01*
X5485928Y3375802D01*
X5469118Y3416385D01*
X5446167Y3453838D01*
X5417639Y3487239D01*
X5384238Y3515767D01*
X5346785Y3538718D01*
X5306202Y3555528D01*
X5263490Y3565782D01*
X5219700Y3569228D01*
D02*
G37*
G36*
X3075690Y3150390D02*
X2982910D01*
Y3072610D01*
X3012467D01*
Y3023390D01*
X2982910D01*
Y2945610D01*
X3075690D01*
Y2967667D01*
X3093073D01*
X3094359Y2964561D01*
X3104261Y2954659D01*
X3117198Y2949300D01*
X3131202D01*
X3144139Y2954659D01*
X3154041Y2964561D01*
X3159400Y2977498D01*
Y2991502D01*
X3154041Y3004439D01*
X3144139Y3014341D01*
X3131202Y3019700D01*
X3117198D01*
X3104261Y3014341D01*
X3094359Y3004439D01*
X3093073Y3001333D01*
X3075690D01*
Y3023390D01*
X3046133D01*
Y3072610D01*
X3075690D01*
Y3150390D01*
D02*
G37*
G36*
X7252490Y3008030D02*
X7174710D01*
Y2915250D01*
X7197104D01*
Y2853790D01*
X7174710D01*
Y2761010D01*
X7252490D01*
Y2853790D01*
X7230096D01*
Y2915250D01*
X7252490D01*
Y3008030D01*
D02*
G37*
G36*
X6693690Y3008950D02*
X6615910D01*
Y2916170D01*
X6638304D01*
Y2853790D01*
X6615910D01*
Y2761010D01*
X6693690D01*
Y2853790D01*
X6671296D01*
Y2916170D01*
X6693690D01*
Y3008950D01*
D02*
G37*
G36*
X6973090Y3006410D02*
X6895310D01*
Y2913630D01*
X6917704D01*
Y2853090D01*
X6895310D01*
Y2760310D01*
X6973090D01*
Y2853090D01*
X6950696D01*
Y2913630D01*
X6973090D01*
Y3006410D01*
D02*
G37*
%LPD*%
G36*
X3251200Y3670300D02*
X3136900Y3556000D01*
Y3505200D01*
X3149600Y3492500D01*
X3251200D01*
Y3314700D01*
X3263900Y3302000D01*
Y3200400D01*
X2781300D01*
X2717800Y3263900D01*
Y3416300D01*
X3136900Y3835400D01*
X3251200D01*
X3251200Y3670300D01*
D02*
G37*
G36*
X3589020Y3799840D02*
Y3553460D01*
X3497580Y3462020D01*
X3340100D01*
Y3492500D01*
X3436620D01*
X3462020Y3517900D01*
Y3632200D01*
X3426460Y3667760D01*
X3322320D01*
Y3830320D01*
X3324860Y3832860D01*
X3556000D01*
X3589020Y3799840D01*
D02*
G37*
G36*
X3848100Y3449320D02*
Y3373120D01*
X3787140Y3312160D01*
X3459480D01*
X3370580Y3401060D01*
X3340100D01*
Y3426460D01*
X3489960D01*
X3606800Y3543300D01*
X3754120D01*
X3848100Y3449320D01*
D02*
G37*
D10*
X2914300Y3111500D02*
D03*
X3029300D02*
D03*
Y2984500D02*
D03*
X2914300D02*
D03*
X3295300Y3073400D02*
D03*
X3410300D02*
D03*
X7060500Y5270500D02*
D03*
X7175500D02*
D03*
X7118000Y5397500D02*
D03*
X7233000D02*
D03*
D11*
X3556000Y3386200D02*
D03*
Y3251200D02*
D03*
D12*
X6654800Y2807400D02*
D03*
Y2692400D02*
D03*
Y2962560D02*
D03*
Y3077560D02*
D03*
X6934200Y2806700D02*
D03*
Y2691700D02*
D03*
Y2960020D02*
D03*
Y3075020D02*
D03*
X7213600Y2807400D02*
D03*
Y2692400D02*
D03*
Y2961640D02*
D03*
Y3076640D02*
D03*
D13*
X5194300Y4876800D02*
D03*
D14*
X5283300Y4941800D02*
D03*
Y4876800D02*
D03*
Y4811800D02*
D03*
X5105300D02*
D03*
Y4876800D02*
D03*
Y4941800D02*
D03*
D15*
X5150300Y4686300D02*
D03*
X5238300D02*
D03*
D16*
X4927600Y4431400D02*
D03*
Y4343400D02*
D03*
Y4216400D02*
D03*
Y4128400D02*
D03*
D17*
X5327000Y4387200D02*
D03*
Y4307200D02*
D03*
Y4227200D02*
D03*
Y4147200D02*
D03*
X5087000D02*
D03*
Y4227200D02*
D03*
Y4307200D02*
D03*
Y4387200D02*
D03*
D18*
X6096000Y4182000D02*
D03*
Y4327000D02*
D03*
D19*
X3198584Y3412655D02*
D03*
Y3477655D02*
D03*
Y3542655D02*
D03*
X3389296D02*
D03*
Y3477655D02*
D03*
D20*
Y3412655D02*
D03*
D21*
X3221800Y3746500D02*
D03*
X3356800D02*
D03*
D22*
Y3251200D02*
D03*
X3221800D02*
D03*
D23*
X7753900Y3892700D02*
D03*
X7653900D02*
D03*
X7553900D02*
D03*
X7453900D02*
D03*
X7353900D02*
D03*
X7253900D02*
D03*
X7153900D02*
D03*
X7053900D02*
D03*
X6953900D02*
D03*
X6853900D02*
D03*
X6753900D02*
D03*
X6653900D02*
D03*
X6553900D02*
D03*
X6453900D02*
D03*
Y5022700D02*
D03*
X6553900D02*
D03*
X6653900D02*
D03*
X6753900D02*
D03*
X6853900D02*
D03*
X6953900D02*
D03*
X7053900D02*
D03*
X7153900D02*
D03*
X7253900D02*
D03*
X7353900D02*
D03*
X7453900D02*
D03*
X7553900D02*
D03*
X7653900D02*
D03*
X7753900D02*
D03*
D24*
X6403900Y4107700D02*
D03*
Y4207700D02*
D03*
Y4307700D02*
D03*
Y4407700D02*
D03*
Y4507700D02*
D03*
Y4607700D02*
D03*
Y4707700D02*
D03*
Y4807700D02*
D03*
D25*
X2870200Y5710500D02*
D03*
X2997200D02*
D03*
X3124200D02*
D03*
X3251200D02*
D03*
X3378200D02*
D03*
X2870200Y6100500D02*
D03*
X2997200D02*
D03*
X3124200D02*
D03*
X3251200D02*
D03*
X3378200D02*
D03*
D26*
X6553200Y3619500D02*
Y3892000D01*
X6553900Y3892700D01*
X3029300Y2984500D02*
X3124200D01*
X3029300D02*
Y3111500D01*
D27*
X2914300D02*
Y3295300D01*
X2870200Y5511800D02*
Y5710500D01*
X7118000Y5397500D02*
Y5492400D01*
X7060500Y5270500D02*
X7064500D01*
X7066250Y5272250D01*
Y5349750D01*
X7114000Y5397500D01*
X7118000D01*
X6177800Y4807700D02*
X6403900D01*
D28*
X3124200Y5948680D02*
X3141217Y5931663D01*
X3187700Y5956771D02*
X3191460D01*
X3266440Y5881792D01*
X3153336Y5910421D02*
Y5919161D01*
X3141217Y5931279D02*
X3153336Y5919161D01*
X3266440Y5725740D02*
Y5881792D01*
X3141217Y5931279D02*
Y5931663D01*
X3469138Y5965260D02*
X3478119Y5974241D01*
Y5983259D01*
X3494130Y5999270D02*
Y6008010D01*
X3303940Y5965260D02*
X3469138D01*
X3478119Y5983259D02*
X3494130Y5999270D01*
X6223000Y4711700D02*
X6399900D01*
X6403900Y4707700D01*
X3124200Y5710500D02*
X3155350Y5679350D01*
Y5552890D02*
Y5679350D01*
Y5552890D02*
X3175000Y5533240D01*
Y5524500D02*
Y5533240D01*
X3077570Y5527950D02*
X3081020Y5524500D01*
X3039470Y5527950D02*
X3077570D01*
X2997200Y5570220D02*
X3039470Y5527950D01*
X2997200Y5570220D02*
Y5710500D01*
X3017520Y6281420D02*
X3429000D01*
X3535680Y5971540D02*
Y6174740D01*
X3429000Y6281420D02*
X3535680Y6174740D01*
Y5971540D02*
X3728720Y5778500D01*
X2997200Y6100500D02*
Y6261100D01*
X3017520Y6281420D01*
X3251200Y6018000D02*
X3303940Y5965260D01*
X3251200Y6018000D02*
Y6100500D01*
Y5710500D02*
X3266440Y5725740D01*
X3124200Y5948680D02*
Y6100500D01*
X3232775Y3542655D02*
Y3542929D01*
X3197860Y3073400D02*
X3295300D01*
X3283946Y3594100D02*
X3284220D01*
X3232775Y3542929D02*
X3283946Y3594100D01*
X3198584Y3542655D02*
X3232775D01*
X6553900Y5022700D02*
Y5193600D01*
X6953900Y3728100D02*
Y3892700D01*
X6654800Y2807400D02*
Y2962560D01*
X6934200Y2806700D02*
Y2960020D01*
X7213600Y2807400D02*
Y2961640D01*
Y3076640D02*
Y3175000D01*
X6934200Y3075020D02*
Y3177540D01*
X6654800Y3077560D02*
Y3172460D01*
X5101490Y4880610D02*
X5105300Y4876800D01*
X4987290Y4880610D02*
X5101490D01*
X4983480Y4884420D02*
X4987290Y4880610D01*
X5044440Y5002660D02*
X5050620Y4996480D01*
Y4974980D02*
Y4996480D01*
Y4974980D02*
X5083800Y4941800D01*
X5105300D01*
X5283300D02*
X5383300D01*
X5327000Y4227200D02*
X5399400D01*
X5262260Y4147200D02*
X5327000D01*
X7253900Y3723300D02*
Y3892700D01*
X7153900Y3724900D02*
Y3892700D01*
X7053900Y3726500D02*
Y3892700D01*
X6241300Y4107700D02*
X6403900D01*
X6853900Y5022700D02*
Y5198400D01*
X6953900Y5022700D02*
Y5200000D01*
X7053900Y4856800D02*
Y5022700D01*
X7353900D02*
Y5284100D01*
X7240500Y5397500D02*
X7353900Y5284100D01*
X7233000Y5397500D02*
X7240500D01*
X7253900Y5022700D02*
Y5199600D01*
X7183000Y5270500D02*
X7253900Y5199600D01*
X7175500Y5270500D02*
X7183000D01*
X6096000Y4182000D02*
X6121700Y4207700D01*
X6403900D01*
X6115300Y4307700D02*
X6403900D01*
X6096000Y4327000D02*
X6115300Y4307700D01*
D29*
X5327000Y4307200D02*
X5405760D01*
X4833620Y4216400D02*
X4927600D01*
X5082240Y4222440D02*
X5087000Y4227200D01*
X4933640Y4222440D02*
X5082240D01*
X4927600Y4216400D02*
X4933640Y4222440D01*
X4837060Y4431400D02*
X4927600D01*
X4997080D01*
X5036520Y4391960D01*
X5082240D02*
X5087000Y4387200D01*
X5036520Y4391960D02*
X5082240D01*
D30*
X5150300Y4599120D02*
Y4686300D01*
Y4756400D01*
X5127600Y4779100D02*
X5150300Y4756400D01*
X5127600Y4779100D02*
Y4811000D01*
X5126800Y4811800D02*
X5127600Y4811000D01*
X5105300Y4811800D02*
X5126800D01*
D31*
X2847340Y3289300D02*
D03*
Y4559300D02*
D03*
D32*
X5219700Y3289300D02*
D03*
Y5638800D02*
D03*
D33*
X6553200Y3619500D02*
D03*
X6667500Y4127500D02*
D03*
X3124200Y2984500D02*
D03*
X7759700Y5194300D02*
D03*
X7785100Y3721100D02*
D03*
X7670800D02*
D03*
X7556500D02*
D03*
X7366000D02*
D03*
X7315200Y4038600D02*
D03*
X7314221Y4229196D02*
D03*
X7315200Y4140200D02*
D03*
Y4318000D02*
D03*
Y4419600D02*
D03*
Y4508500D02*
D03*
Y4597400D02*
D03*
Y4686300D02*
D03*
Y4775200D02*
D03*
Y4864100D02*
D03*
X7620000Y6032500D02*
D03*
X7778750Y5715000D02*
D03*
X7620000Y5397500D02*
D03*
Y3492500D02*
D03*
X7778750Y3175000D02*
D03*
X7620000Y2857500D02*
D03*
X7302500Y6032500D02*
D03*
X7461250Y5715000D02*
D03*
X7302500Y3492500D02*
D03*
X7461250Y3175000D02*
D03*
X7302500Y2857500D02*
D03*
X6985000Y6032500D02*
D03*
X7143750Y5715000D02*
D03*
X6985000Y5397500D02*
D03*
Y4762500D02*
D03*
X7143750Y4445000D02*
D03*
X6985000Y4127500D02*
D03*
Y3492500D02*
D03*
X7143750Y3175000D02*
D03*
X6667500Y6032500D02*
D03*
X6826250Y5715000D02*
D03*
X6667500Y4762500D02*
D03*
X6826250Y4445000D02*
D03*
Y3175000D02*
D03*
X6350000Y6032500D02*
D03*
Y3492500D02*
D03*
X6508750Y3175000D02*
D03*
X6350000Y2857500D02*
D03*
X6191250Y5715000D02*
D03*
X6032500Y5397500D02*
D03*
Y4762500D02*
D03*
X6191250Y4445000D02*
D03*
Y3810000D02*
D03*
X6032500Y3492500D02*
D03*
X6191250Y3175000D02*
D03*
X6032500Y2857500D02*
D03*
X5873750Y5715000D02*
D03*
X5715000Y5397500D02*
D03*
X5873750Y5080000D02*
D03*
X5715000Y4762500D02*
D03*
X5873750Y4445000D02*
D03*
Y3810000D02*
D03*
X5715000Y3492500D02*
D03*
X5873750Y3175000D02*
D03*
X5715000Y2857500D02*
D03*
X5397500Y4762500D02*
D03*
X5556250Y4445000D02*
D03*
X5397500Y4127500D02*
D03*
X5556250Y3810000D02*
D03*
X5397500Y2857500D02*
D03*
X5238750Y5080000D02*
D03*
Y4445000D02*
D03*
Y3810000D02*
D03*
X5080000Y2857500D02*
D03*
X4762500Y5397500D02*
D03*
X4921250Y5080000D02*
D03*
X4762500Y4762500D02*
D03*
Y4127500D02*
D03*
Y3492500D02*
D03*
Y2857500D02*
D03*
X4603750Y5715000D02*
D03*
X4445000Y5397500D02*
D03*
X4603750Y5080000D02*
D03*
X4445000Y4762500D02*
D03*
X4603750Y4445000D02*
D03*
X4445000Y4127500D02*
D03*
X4603750Y3810000D02*
D03*
X4445000Y3492500D02*
D03*
X4603750Y3175000D02*
D03*
X4445000Y2857500D02*
D03*
X4286250Y5715000D02*
D03*
X4127500Y5397500D02*
D03*
X4286250Y5080000D02*
D03*
X4127500Y4762500D02*
D03*
Y4127500D02*
D03*
X4286250Y3810000D02*
D03*
X4127500Y3492500D02*
D03*
X4286250Y3175000D02*
D03*
X4127500Y2857500D02*
D03*
X3968750Y5715000D02*
D03*
X3810000Y5397500D02*
D03*
X3968750Y5080000D02*
D03*
X3810000Y4762500D02*
D03*
X3968750Y4445000D02*
D03*
X3810000Y4127500D02*
D03*
X3968750Y3810000D02*
D03*
Y3175000D02*
D03*
X3810000Y2857500D02*
D03*
X3492500Y5397500D02*
D03*
Y4762500D02*
D03*
X3651250Y4445000D02*
D03*
X3492500Y4127500D02*
D03*
X3651250Y3810000D02*
D03*
Y3175000D02*
D03*
X3492500Y2857500D02*
D03*
X3333750Y5080000D02*
D03*
X3175000Y4762500D02*
D03*
X3333750Y4445000D02*
D03*
X3175000Y4127500D02*
D03*
Y2857500D02*
D03*
X2857500Y5397500D02*
D03*
X3016250Y5080000D02*
D03*
X2857500Y4762500D02*
D03*
X3016250Y4445000D02*
D03*
X2857500Y4127500D02*
D03*
X3016250Y3810000D02*
D03*
X2857500Y2857500D02*
D03*
X2870200Y5511800D02*
D03*
X3187700Y5956771D02*
D03*
X3153336Y5910421D02*
D03*
X3494130Y6008010D02*
D03*
X3670635Y3380566D02*
D03*
X3677764Y3448298D02*
D03*
X3734135Y3357706D02*
D03*
X3741264Y3425438D02*
D03*
X3802380Y3385820D02*
D03*
X3804920Y3441700D02*
D03*
X3749040Y3482340D02*
D03*
X3690620Y3505200D02*
D03*
X7118000Y5492400D02*
D03*
X6177800Y4807700D02*
D03*
X6223000Y4711700D02*
D03*
X5405760Y4307200D02*
D03*
X4833620Y4216400D02*
D03*
X4837060Y4431400D02*
D03*
X5150300Y4599120D02*
D03*
X3728720Y5778500D02*
D03*
X3081020Y5524500D02*
D03*
X3175000D02*
D03*
X3197860Y3073400D02*
D03*
X3284220Y3594100D02*
D03*
X6553900Y5193600D02*
D03*
X6953900Y3728100D02*
D03*
X7213600Y3175000D02*
D03*
X6934200Y3177540D02*
D03*
X6654800Y3172460D02*
D03*
X4983480Y4884420D02*
D03*
X5044440Y5002660D02*
D03*
X5383300Y4941800D02*
D03*
X5399400Y4227200D02*
D03*
X5262260Y4147200D02*
D03*
X7253900Y3723300D02*
D03*
X7153900Y3724900D02*
D03*
X7053900Y3726500D02*
D03*
X6241300Y4107700D02*
D03*
X6853900Y5198400D02*
D03*
X6953900Y5200000D02*
D03*
X7053900Y4856800D02*
D03*
X7353900Y5284100D02*
D03*
X7253900Y5199600D02*
D03*
%TF.MD5,55765da2b5f1d602adca497112244456*%
M02*
