%TF.GenerationSoftware,Altium Limited,Altium Designer,23.5.1 (21)*%
G04 Layer_Color=0*
%FSLAX45Y45*%
%MOMM*%
%TF.SameCoordinates,0CF0D061-263B-42B0-A585-B6EE71A6EBF9*%
%TF.FilePolarity,Positive*%
%TF.FileFunction,Plated,1,6,PTH,Drill*%
%TF.Part,Single*%
G01*
G75*
%TA.AperFunction,ComponentDrill*%
%ADD50C,1.01600*%
%TA.AperFunction,ViaDrill,NotFilled*%
%ADD51C,0.20000*%
D50*
X2847340Y3289300D02*
D03*
Y4559300D02*
D03*
D51*
X6553200Y3619500D02*
D03*
X6667500Y4127500D02*
D03*
X3124200Y2984500D02*
D03*
X7759700Y5194300D02*
D03*
X7785100Y3721100D02*
D03*
X7670800D02*
D03*
X7556500D02*
D03*
X7366000D02*
D03*
X7315200Y4038600D02*
D03*
X7314221Y4229196D02*
D03*
X7315200Y4140200D02*
D03*
Y4318000D02*
D03*
Y4419600D02*
D03*
Y4508500D02*
D03*
Y4597400D02*
D03*
Y4686300D02*
D03*
Y4775200D02*
D03*
Y4864100D02*
D03*
X7620000Y6032500D02*
D03*
X7778750Y5715000D02*
D03*
X7620000Y5397500D02*
D03*
Y3492500D02*
D03*
X7778750Y3175000D02*
D03*
X7620000Y2857500D02*
D03*
X7302500Y6032500D02*
D03*
X7461250Y5715000D02*
D03*
X7302500Y3492500D02*
D03*
X7461250Y3175000D02*
D03*
X7302500Y2857500D02*
D03*
X6985000Y6032500D02*
D03*
X7143750Y5715000D02*
D03*
X6985000Y5397500D02*
D03*
Y4762500D02*
D03*
X7143750Y4445000D02*
D03*
X6985000Y4127500D02*
D03*
Y3492500D02*
D03*
X7143750Y3175000D02*
D03*
X6667500Y6032500D02*
D03*
X6826250Y5715000D02*
D03*
X6667500Y4762500D02*
D03*
X6826250Y4445000D02*
D03*
Y3175000D02*
D03*
X6350000Y6032500D02*
D03*
Y3492500D02*
D03*
X6508750Y3175000D02*
D03*
X6350000Y2857500D02*
D03*
X6191250Y5715000D02*
D03*
X6032500Y5397500D02*
D03*
Y4762500D02*
D03*
X6191250Y4445000D02*
D03*
Y3810000D02*
D03*
X6032500Y3492500D02*
D03*
X6191250Y3175000D02*
D03*
X6032500Y2857500D02*
D03*
X5873750Y5715000D02*
D03*
X5715000Y5397500D02*
D03*
X5873750Y5080000D02*
D03*
X5715000Y4762500D02*
D03*
X5873750Y4445000D02*
D03*
Y3810000D02*
D03*
X5715000Y3492500D02*
D03*
X5873750Y3175000D02*
D03*
X5715000Y2857500D02*
D03*
X5397500Y4762500D02*
D03*
X5556250Y4445000D02*
D03*
X5397500Y4127500D02*
D03*
X5556250Y3810000D02*
D03*
X5397500Y2857500D02*
D03*
X5238750Y5080000D02*
D03*
Y4445000D02*
D03*
Y3810000D02*
D03*
X5080000Y2857500D02*
D03*
X4762500Y5397500D02*
D03*
X4921250Y5080000D02*
D03*
X4762500Y4762500D02*
D03*
Y4127500D02*
D03*
Y3492500D02*
D03*
Y2857500D02*
D03*
X4603750Y5715000D02*
D03*
X4445000Y5397500D02*
D03*
X4603750Y5080000D02*
D03*
X4445000Y4762500D02*
D03*
X4603750Y4445000D02*
D03*
X4445000Y4127500D02*
D03*
X4603750Y3810000D02*
D03*
X4445000Y3492500D02*
D03*
X4603750Y3175000D02*
D03*
X4445000Y2857500D02*
D03*
X4286250Y5715000D02*
D03*
X4127500Y5397500D02*
D03*
X4286250Y5080000D02*
D03*
X4127500Y4762500D02*
D03*
Y4127500D02*
D03*
X4286250Y3810000D02*
D03*
X4127500Y3492500D02*
D03*
X4286250Y3175000D02*
D03*
X4127500Y2857500D02*
D03*
X3968750Y5715000D02*
D03*
X3810000Y5397500D02*
D03*
X3968750Y5080000D02*
D03*
X3810000Y4762500D02*
D03*
X3968750Y4445000D02*
D03*
X3810000Y4127500D02*
D03*
X3968750Y3810000D02*
D03*
Y3175000D02*
D03*
X3810000Y2857500D02*
D03*
X3492500Y5397500D02*
D03*
Y4762500D02*
D03*
X3651250Y4445000D02*
D03*
X3492500Y4127500D02*
D03*
X3651250Y3810000D02*
D03*
Y3175000D02*
D03*
X3492500Y2857500D02*
D03*
X3333750Y5080000D02*
D03*
X3175000Y4762500D02*
D03*
X3333750Y4445000D02*
D03*
X3175000Y4127500D02*
D03*
Y2857500D02*
D03*
X2857500Y5397500D02*
D03*
X3016250Y5080000D02*
D03*
X2857500Y4762500D02*
D03*
X3016250Y4445000D02*
D03*
X2857500Y4127500D02*
D03*
X3016250Y3810000D02*
D03*
X2857500Y2857500D02*
D03*
X2870200Y5511800D02*
D03*
X3187700Y5956771D02*
D03*
X3153336Y5910421D02*
D03*
X3494130Y6008010D02*
D03*
X3670635Y3380566D02*
D03*
X3677764Y3448298D02*
D03*
X3734135Y3357706D02*
D03*
X3741264Y3425438D02*
D03*
X3802380Y3385820D02*
D03*
X3804920Y3441700D02*
D03*
X3749040Y3482340D02*
D03*
X3690620Y3505200D02*
D03*
X7118000Y5492400D02*
D03*
X6177800Y4807700D02*
D03*
X6223000Y4711700D02*
D03*
X5405760Y4307200D02*
D03*
X4833620Y4216400D02*
D03*
X4837060Y4431400D02*
D03*
X5150300Y4599120D02*
D03*
X3728720Y5778500D02*
D03*
X3081020Y5524500D02*
D03*
X3175000D02*
D03*
X3197860Y3073400D02*
D03*
X3284220Y3594100D02*
D03*
X6553900Y5193600D02*
D03*
X6953900Y3728100D02*
D03*
X7213600Y3175000D02*
D03*
X6934200Y3177540D02*
D03*
X6654800Y3172460D02*
D03*
X4983480Y4884420D02*
D03*
X5044440Y5002660D02*
D03*
X5383300Y4941800D02*
D03*
X5399400Y4227200D02*
D03*
X5262260Y4147200D02*
D03*
X7253900Y3723300D02*
D03*
X7153900Y3724900D02*
D03*
X7053900Y3726500D02*
D03*
X6241300Y4107700D02*
D03*
X6853900Y5198400D02*
D03*
X6953900Y5200000D02*
D03*
X7053900Y4856800D02*
D03*
X7353900Y5284100D02*
D03*
X7253900Y5199600D02*
D03*
%TF.MD5,bb6a62f3c86ef938abe2465a85b73ab6*%
M02*
